<?xml version="1.0" encoding="utf-8"?>
<svg xmlns="http://www.w3.org/2000/svg" clip-rule="evenodd" fill-rule="evenodd" stroke-linecap="round" stroke-linejoin="round" stroke-miterlimit="1.5" xml:space="preserve" viewBox="0 0 2500 2500">
	<title>A crossword puzzle grid with rows numbered with Arabic numerals and columns numbered with Roman numerals. Most squares are black or white, but some additional grey squares create a square pattern mid-way to the center of the puzzle.</title>
	<path d="M196.138 203.667h140v140h-140z" fill="#fff" stroke="#000" stroke-width="6.2537622"/>
	<path d="M334.715 203.667h140v140h-140z" fill="#fff" stroke="#000" stroke-width="6.2537622"/>
	<path d="M473.292 203.667h140v140h-140z" fill="#fff" stroke="#000" stroke-width="6.2537622"/>
	<path d="M611.87 203.667h140v140h-140z" fill="#fff" stroke="#000" stroke-width="6.2537622"/>
	<path d="M750.446 203.667h140v140h-140z" fill="#fff" stroke="#000" stroke-width="6.2537622"/>
	<path d="M889.023 203.667h140v140h-140z" stroke="#000" stroke-width="6.2537622"/>
	<path d="M1027.6 203.667h140v140h-140z" stroke="#000" stroke-width="6.2537622"/>
	<path d="M1166.176 203.667h140v140h-140z" fill="#fff" stroke="#000" stroke-width="6.2537622"/>
	<path d="M1304.755 203.667h140v140h-140z" stroke="#000" stroke-width="6.2537622"/>
	<path d="M1443.335 203.667h140v140h-140z" stroke="#000" stroke-width="6.2537622"/>
	<path d="M1581.905 203.667h140v140h-140z" fill="#fff" stroke="#000" stroke-width="6.2537622"/>
	<path d="M1720.485 203.667h140v140h-140z" fill="#fff" stroke="#000" stroke-width="6.2537622"/>
	<path d="M1859.065 203.667h140v140h-140z" fill="#fff" stroke="#000" stroke-width="6.2537622"/>
	<path d="M1997.635 203.667h140v140h-140z" fill="#fff" stroke="#000" stroke-width="6.2537622"/>
	<path d="M2136.215 203.667h140v140h-140zM196.138 342.667h140v140h-140z" fill="#fff" stroke="#000" stroke-width="6.2537622"/>
	<path d="M334.715 342.667h140v140h-140z" fill="#fff" stroke="#000" stroke-width="6.2537622"/>
	<path d="M473.292 342.667h140v140h-140z" fill="#fff" stroke="#000" stroke-width="6.2537622"/>
	<path d="M611.87 342.667h140v140h-140z" fill="#fff" stroke="#000" stroke-width="6.2537622"/>
	<path d="M750.446 342.667h140v140h-140z" fill="#fff" stroke="#000" stroke-width="6.2537622"/>
	<path d="M889.023 342.667h140v140h-140z" fill="#fff" stroke="#000" stroke-width="6.2537622"/>
	<path d="M1027.6 342.667h140v140h-140z" stroke="#000" stroke-width="6.2537622"/>
	<path d="M1166.176 342.667h140v140h-140z" fill="#fff" stroke="#000" stroke-width="6.2537622"/>
	<path d="M1304.755 342.667h140v140h-140z" stroke="#000" stroke-width="6.2537622"/>
	<path d="M1443.335 342.667h140v140h-140z" fill="#fff" stroke="#000" stroke-width="6.2537622"/>
	<path d="M1581.905 342.667h140v140h-140z" fill="#fff" stroke="#000" stroke-width="6.2537622"/>
	<path d="M1720.485 342.667h140v140h-140z" fill="#fff" stroke="#000" stroke-width="6.2537622"/>
	<path d="M1859.065 342.667h140v140h-140z" fill="#fff" stroke="#000" stroke-width="6.2537622"/>
	<path d="M1997.635 342.667h140v140h-140z" fill="#fff" stroke="#000" stroke-width="6.2537622"/>
	<path d="M2136.215 342.667h140v140h-140zM196.171 477.595h140v140h-140z" fill="#fff" stroke="#000" stroke-width="6.2537622"/>
	<path d="M334.748 477.595h140v140h-140z" fill="#fff" stroke="#000" stroke-width="6.2537622"/>
	<path d="M473.325 477.595h140v140h-140z" stroke="#000" stroke-width="6.2537622"/>
	<path d="M611.902 477.595h140v140h-140z" fill="#c8c8c8" stroke="#000" stroke-width="6.2537622"/>
	<path d="M750.48 477.595h140v140h-140z" fill="#c8c8c8" stroke="#000" stroke-width="6.2537622"/>
	<path d="M889.056 477.595h140v140h-140z" fill="#c8c8c8" stroke="#000" stroke-width="6.2537622"/>
	<path d="M1027.633 477.595h140v140h-140z" fill="#c8c8c8" stroke="#000" stroke-width="6.2537622"/>
	<path d="M1166.21 477.595h140v140h-140z" fill="#c8c8c8" stroke="#000" stroke-width="6.2537622"/>
	<path d="M1304.785 477.595h140v140h-140z" fill="#c8c8c8" stroke="#000" stroke-width="6.2537622"/>
	<path d="M1443.365 477.595h140v140h-140z" fill="#c8c8c8" stroke="#000" stroke-width="6.2537622"/>
	<path d="M1581.945 477.595h140v140h-140z" fill="#c8c8c8" stroke="#000" stroke-width="6.2537622"/>
	<path d="M1720.515 477.595h140v140h-140z" fill="#c8c8c8" stroke="#000" stroke-width="6.2537622"/>
	<path d="M1859.095 477.595h140v140h-140z" stroke="#000" stroke-width="6.2537622"/>
	<path d="M1997.675 477.595h140v140h-140z" fill="#fff" stroke="#000" stroke-width="6.2537622"/>
	<path d="M2136.245 477.595h140v140h-140zM196.205 612.524h140v140h-140z" fill="#fff" stroke="#000" stroke-width="6.2537622"/>
	<path d="M334.781 612.524h140v140h-140z" fill="#fff" stroke="#000" stroke-width="6.2537622"/>
	<path d="M473.358 612.524h140v140h-140z" fill="#c8c8c8" stroke="#000" stroke-width="6.2537622"/>
	<path d="M611.935 612.524h140v140h-140z" fill="#fff" stroke="#000" stroke-width="6.2537622"/>
	<path d="M750.512 612.524h140v140h-140z" fill="#fff" stroke="#000" stroke-width="6.2537622"/>
	<path d="M889.09 612.524h140v140h-140z" fill="#fff" stroke="#000" stroke-width="6.2537622"/>
	<path d="M1027.666 612.524h140v140h-140z" stroke="#000" stroke-width="6.2537622"/>
	<path d="M1166.243 612.524h140v140h-140z" fill="#fff" stroke="#000" stroke-width="6.2537622"/>
	<path d="M1304.815 612.524h140v140h-140z" stroke="#000" stroke-width="6.2537622"/>
	<path d="M1443.395 612.524h140v140h-140z" fill="#fff" stroke="#000" stroke-width="6.2537622"/>
	<path d="M1581.975 612.524h140v140h-140z" fill="#fff" stroke="#000" stroke-width="6.2537622"/>
	<path d="M1720.555 612.524h140v140h-140z" fill="#fff" stroke="#000" stroke-width="6.2537622"/>
	<path d="M1859.125 612.524h140v140h-140z" fill="#c8c8c8" stroke="#000" stroke-width="6.2537622"/>
	<path d="M1997.705 612.524h140v140h-140z" fill="#fff" stroke="#000" stroke-width="6.2537622"/>
	<path d="M2136.285 612.524h140v140h-140zM196.237 747.452h140v140h-140z" fill="#fff" stroke="#000" stroke-width="6.2537622"/>
	<path d="M334.814 747.452h140v140h-140z" fill="#fff" stroke="#000" stroke-width="6.2537622"/>
	<path d="M473.391 747.452h140v140h-140z" fill="#c8c8c8" stroke="#000" stroke-width="6.2537622"/>
	<path d="M611.968 747.452h140v140h-140z" fill="#fff" stroke="#000" stroke-width="6.2537622"/>
	<path d="M750.545 747.452h140v140h-140z" fill="#fff" stroke="#000" stroke-width="6.2537622"/>
	<path d="M889.122 747.452h140v140h-140z" stroke="#000" stroke-width="6.2537622"/>
	<path d="M1027.7 747.452h140v140h-140z" stroke="#000" stroke-width="6.2537622"/>
	<path d="M1166.276 747.452h140v140h-140z" fill="#fff" stroke="#000" stroke-width="6.2537622"/>
	<path d="M1304.855 747.452h140v140h-140z" stroke="#000" stroke-width="6.2537622"/>
	<path d="M1443.425 747.452h140v140h-140z" stroke="#000" stroke-width="6.2537622"/>
	<path d="M1582.005 747.452h140v140h-140z" fill="#fff" stroke="#000" stroke-width="6.2537622"/>
	<path d="M1720.585 747.452h140v140h-140z" fill="#fff" stroke="#000" stroke-width="6.2537622"/>
	<path d="M1859.165 747.452h140v140h-140z" fill="#c8c8c8" stroke="#000" stroke-width="6.2537622"/>
	<path d="M1997.735 747.452h140v140h-140z" fill="#fff" stroke="#000" stroke-width="6.2537622"/>
	<path d="M2136.315 747.452h140v140h-140z" fill="#fff" stroke="#000" stroke-width="6.2537622"/>
	<path d="M196.27 882.38h140v140h-140z" stroke="#000" stroke-width="6.2537622"/>
	<path d="M334.847 882.38h140v140h-140z" fill="#fff" stroke="#000" stroke-width="6.2537622"/>
	<path d="M473.424 882.38h140v140h-140z" fill="#c8c8c8" stroke="#000" stroke-width="6.2537622"/>
	<path d="M612.001 882.38h140v140h-140z" fill="#fff" stroke="#000" stroke-width="6.2537622"/>
	<path d="M750.578 882.38h140v140h-140z" stroke="#000" stroke-width="6.2537622"/>
	<path d="M889.155 882.38h140v140h-140z" stroke="#000" stroke-width="6.2537622"/>
	<path d="M1027.732 882.38h140v140h-140z" fill="#fff" stroke="#000" stroke-width="6.2537622"/>
	<path d="M1166.31 882.38h140v140h-140z" fill="#fff" stroke="#000" stroke-width="6.2537622"/>
	<path d="M1304.885 882.38h140v140h-140z" fill="#fff" stroke="#000" stroke-width="6.2537622"/>
	<path d="M1443.465 882.38h140v140h-140z" stroke="#000" stroke-width="6.2537622"/>
	<path d="M1582.035 882.38h140v140h-140z" stroke="#000" stroke-width="6.2537622"/>
	<path d="M1720.615 882.38h140v140h-140z" fill="#fff" stroke="#000" stroke-width="6.2537622"/>
	<path d="M1859.195 882.38h140v140h-140z" fill="#c8c8c8" stroke="#000" stroke-width="6.2537622"/>
	<path d="M1997.775 882.38h140v140h-140z" fill="#fff" stroke="#000" stroke-width="6.2537622"/>
	<path d="M2136.345 882.38h140v140h-140zM196.303 1017.308h140v140h-140z" stroke="#000" stroke-width="6.2537622"/>
	<path d="M334.88 1017.308h140v140h-140z" stroke="#000" stroke-width="6.2537622"/>
	<path d="M473.457 1017.308h140v140h-140z" fill="#c8c8c8" stroke="#000" stroke-width="6.2537622"/>
	<path d="M612.034 1017.308h140v140h-140z" stroke="#000" stroke-width="6.2537622"/>
	<path d="M750.611 1017.308h140v140h-140z" stroke="#000" stroke-width="6.2537622"/>
	<path d="M889.188 1017.308h140v140h-140z" fill="#fff" stroke="#000" stroke-width="6.2537622"/>
	<path d="M1027.765 1017.308h140v140h-140z" fill="#fff" stroke="#000" stroke-width="6.2537622"/>
	<path d="M1166.342 1017.308h140v140h-140z" fill="#fff" stroke="#000" stroke-width="6.2537622"/>
	<path d="M1304.915 1017.308h140v140h-140z" fill="#fff" stroke="#000" stroke-width="6.2537622"/>
	<path d="M1443.495 1017.308h140v140h-140z" fill="#fff" stroke="#000" stroke-width="6.2537622"/>
	<path d="M1582.075 1017.308h140v140h-140z" stroke="#000" stroke-width="6.2537622"/>
	<path d="M1720.645 1017.308h140v140h-140z" stroke="#000" stroke-width="6.2537622"/>
	<path d="M1859.225 1017.308h140v140h-140z" fill="#c8c8c8" stroke="#000" stroke-width="6.2537622"/>
	<path d="M1997.805 1017.308h140v140h-140z" stroke="#000" stroke-width="6.2537622"/>
	<path d="M2136.385 1017.308h140v140h-140z" stroke="#000" stroke-width="6.2537622"/>
	<path d="M196.336 1152.239h140v140h-140z" fill="#fff" stroke="#000" stroke-width="6.2537622"/>
	<path d="M334.913 1152.239h140v140h-140z" fill="#fff" stroke="#000" stroke-width="6.2537622"/>
	<path d="M473.49 1152.239h140v140h-140z" fill="#c8c8c8" stroke="#000" stroke-width="6.2537622"/>
	<path d="M612.067 1152.239h140v140h-140z" fill="#fff" stroke="#000" stroke-width="6.2537622"/>
	<path d="M750.644 1152.239h140v140h-140z" fill="#fff" stroke="#000" stroke-width="6.2537622"/>
	<path d="M889.221 1152.239h140v140h-140z" fill="#fff" stroke="#000" stroke-width="6.2537622"/>
	<path d="M1027.798 1152.239h140v140h-140z" fill="#fff" stroke="#000" stroke-width="6.2537622"/>
	<path d="M1166.375 1152.239h140v140h-140z" stroke="#000" stroke-width="6.2537622"/>
	<path d="M1304.955 1152.239h140v140h-140z" fill="#fff" stroke="#000" stroke-width="6.2537622"/>
	<path d="M1443.525 1152.239h140v140h-140z" fill="#fff" stroke="#000" stroke-width="6.2537622"/>
	<path d="M1582.105 1152.239h140v140h-140z" fill="#fff" stroke="#000" stroke-width="6.2537622"/>
	<path d="M1720.685 1152.239h140v140h-140z" fill="#fff" stroke="#000" stroke-width="6.2537622"/>
	<path d="M1859.255 1152.239h140v140h-140z" fill="#c8c8c8" stroke="#000" stroke-width="6.2537622"/>
	<path d="M1997.835 1152.239h140v140h-140z" fill="#fff" stroke="#000" stroke-width="6.2537622"/>
	<path d="M2136.415 1152.239h140v140h-140z" fill="#fff" stroke="#000" stroke-width="6.2537622"/>
	<path d="M196.37 1287.169h140v140h-140z" stroke="#000" stroke-width="6.2537622"/>
	<path d="M334.946 1287.169h140v140h-140z" stroke="#000" stroke-width="6.2537622"/>
	<path d="M473.523 1287.169h140v140h-140z" fill="#c8c8c8" stroke="#000" stroke-width="6.2537622"/>
	<path d="M612.1 1287.169h140v140h-140z" stroke="#000" stroke-width="6.2537622"/>
	<path d="M750.677 1287.169h140v140h-140z" stroke="#000" stroke-width="6.2537622"/>
	<path d="M889.254 1287.169h140v140h-140z" fill="#fff" stroke="#000" stroke-width="6.2537622"/>
	<path d="M1027.831 1287.169h140v140h-140z" fill="#fff" stroke="#000" stroke-width="6.2537622"/>
	<path d="M1166.408 1287.169h140v140h-140z" fill="#fff" stroke="#000" stroke-width="6.2537622"/>
	<path d="M1304.985 1287.169h140v140h-140z" fill="#fff" stroke="#000" stroke-width="6.2537622"/>
	<path d="M1443.565 1287.169h140v140h-140z" fill="#fff" stroke="#000" stroke-width="6.2537622"/>
	<path d="M1582.135 1287.169h140v140h-140z" stroke="#000" stroke-width="6.2537622"/>
	<path d="M1720.715 1287.169h140v140h-140z" stroke="#000" stroke-width="6.2537622"/>
	<path d="M1859.295 1287.169h140v140h-140z" fill="#c8c8c8" stroke="#000" stroke-width="6.2537622"/>
	<path d="M1997.865 1287.169h140v140h-140z" stroke="#000" stroke-width="6.2537622"/>
	<path d="M2136.445 1287.169h140v140h-140zM196.403 1422.089h140v140h-140z" stroke="#000" stroke-width="6.2537622"/>
	<path d="M334.98 1422.089h140v140h-140z" fill="#fff" stroke="#000" stroke-width="6.2537622"/>
	<path d="M473.556 1422.089h140v140h-140z" fill="#c8c8c8" stroke="#000" stroke-width="6.2537622"/>
	<path d="M612.133 1422.089h140v140h-140z" fill="#fff" stroke="#000" stroke-width="6.2537622"/>
	<path d="M750.71 1422.089h140v140h-140z" stroke="#000" stroke-width="6.2537622"/>
	<path d="M889.287 1422.089h140v140h-140z" stroke="#000" stroke-width="6.2537622"/>
	<path d="M1027.864 1422.089h140v140h-140z" fill="#fff" stroke="#000" stroke-width="6.2537622"/>
	<path d="M1166.441 1422.089h140v140h-140z" fill="#fff" stroke="#000" stroke-width="6.2537622"/>
	<path d="M1305.015 1422.089h140v140h-140z" fill="#fff" stroke="#000" stroke-width="6.2537622"/>
	<path d="M1443.595 1422.089h140v140h-140z" stroke="#000" stroke-width="6.2537622"/>
	<path d="M1582.175 1422.089h140v140h-140z" stroke="#000" stroke-width="6.2537622"/>
	<path d="M1720.745 1422.089h140v140h-140z" fill="#fff" stroke="#000" stroke-width="6.2537622"/>
	<path d="M1859.325 1422.089h140v140h-140z" fill="#c8c8c8" stroke="#000" stroke-width="6.2537622"/>
	<path d="M1997.905 1422.089h140v140h-140z" fill="#fff" stroke="#000" stroke-width="6.2537622"/>
	<path d="M2136.475 1422.089h140v140h-140z" stroke="#000" stroke-width="6.2537622"/>
	<path d="M196.435 1557.019h140v140h-140z" fill="#fff" stroke="#000" stroke-width="6.2537622"/>
	<path d="M335.013 1557.019h140v140h-140z" fill="#fff" stroke="#000" stroke-width="6.2537622"/>
	<path d="M473.59 1557.019h140v140h-140z" fill="#c8c8c8" stroke="#000" stroke-width="6.2537622"/>
	<path d="M612.166 1557.019h140v140h-140z" fill="#fff" stroke="#000" stroke-width="6.2537622"/>
	<path d="M750.743 1557.019h140v140h-140z" fill="#fff" stroke="#000" stroke-width="6.2537622"/>
	<path d="M889.32 1557.019h140v140h-140z" stroke="#000" stroke-width="6.2537622"/>
	<path d="M1027.897 1557.019h140v140h-140z" stroke="#000" stroke-width="6.2537622"/>
	<path d="M1166.474 1557.019h140v140h-140z" fill="#fff" stroke="#000" stroke-width="6.2537622"/>
	<path d="M1305.055 1557.019h140v140h-140z" stroke="#000" stroke-width="6.2537622"/>
	<path d="M1443.625 1557.019h140v140h-140z" stroke="#000" stroke-width="6.2537622"/>
	<path d="M1582.205 1557.019h140v140h-140z" fill="#fff" stroke="#000" stroke-width="6.2537622"/>
	<path d="M1720.785 1557.019h140v140h-140z" fill="#fff" stroke="#000" stroke-width="6.2537622"/>
	<path d="M1859.355 1557.019h140v140h-140z" fill="#c8c8c8" stroke="#000" stroke-width="6.2537622"/>
	<path d="M1997.935 1557.019h140v140h-140z" fill="#fff" stroke="#000" stroke-width="6.2537622"/>
	<path d="M2136.515 1557.019h140v140h-140zM196.47 1691.949h140v140h-140z" fill="#fff" stroke="#000" stroke-width="6.2537622"/>
	<path d="M335.046 1691.949h140v140h-140z" fill="#fff" stroke="#000" stroke-width="6.2537622"/>
	<path d="M473.623 1691.949h140v140h-140z" fill="#c8c8c8" stroke="#000" stroke-width="6.2537622"/>
	<path d="M612.2 1691.949h140v140h-140z" fill="#fff" stroke="#000" stroke-width="6.2537622"/>
	<path d="M750.776 1691.949h140v140h-140z" fill="#fff" stroke="#000" stroke-width="6.2537622"/>
	<path d="M889.353 1691.949h140v140h-140z" fill="#fff" stroke="#000" stroke-width="6.2537622"/>
	<path d="M1027.93 1691.949h140v140h-140z" stroke="#000" stroke-width="6.2537622"/>
	<path d="M1166.507 1691.949h140v140h-140z" fill="#fff" stroke="#000" stroke-width="6.2537622"/>
	<path d="M1305.085 1691.949h140v140h-140z" stroke="#000" stroke-width="6.2537622"/>
	<path d="M1443.665 1691.949h140v140h-140z" fill="#fff" stroke="#000" stroke-width="6.2537622"/>
	<path d="M1582.235 1691.949h140v140h-140z" fill="#fff" stroke="#000" stroke-width="6.2537622"/>
	<path d="M1720.815 1691.949h140v140h-140z" fill="#fff" stroke="#000" stroke-width="6.2537622"/>
	<path d="M1859.395 1691.949h140v140h-140z" fill="#c8c8c8" stroke="#000" stroke-width="6.2537622"/>
	<path d="M1997.965 1691.949h140v140h-140z" fill="#fff" stroke="#000" stroke-width="6.2537622"/>
	<path d="M2136.545 1691.949h140v140h-140zM196.502 1826.879h140v140h-140z" fill="#fff" stroke="#000" stroke-width="6.2537622"/>
	<path d="M335.08 1826.879h140v140h-140z" fill="#fff" stroke="#000" stroke-width="6.2537622"/>
	<path d="M473.656 1826.879h140v140h-140z" stroke="#000" stroke-width="6.2537622"/>
	<path d="M612.233 1826.879h140v140h-140z" fill="#c8c8c8" stroke="#000" stroke-width="6.2537622"/>
	<path d="M750.81 1826.879h140v140h-140z" fill="#c8c8c8" stroke="#000" stroke-width="6.2537622"/>
	<path d="M889.386 1826.879h140v140h-140z" fill="#c8c8c8" stroke="#000" stroke-width="6.2537622"/>
	<path d="M1027.963 1826.879h140v140h-140z" fill="#c8c8c8" stroke="#000" stroke-width="6.2537622"/>
	<path d="M1166.54 1826.879h140v140h-140z" fill="#c8c8c8" stroke="#000" stroke-width="6.2537622"/>
	<path d="M1305.115 1826.879h140v140h-140z" fill="#c8c8c8" stroke="#000" stroke-width="6.2537622"/>
	<path d="M1443.695 1826.879h140v140h-140z" fill="#c8c8c8" stroke="#000" stroke-width="6.2537622"/>
	<path d="M1582.275 1826.879h140v140h-140z" fill="#c8c8c8" stroke="#000" stroke-width="6.2537622"/>
	<path d="M1720.845 1826.879h140v140h-140z" fill="#c8c8c8" stroke="#000" stroke-width="6.2537622"/>
	<path d="M1859.425 1826.879h140v140h-140z" stroke="#000" stroke-width="6.2537622"/>
	<path d="M1998.005 1826.879h140v140h-140z" fill="#fff" stroke="#000" stroke-width="6.2537622"/>
	<path d="M2136.575 1826.879h140v140h-140zM196.535 1961.809h140v140h-140z" fill="#fff" stroke="#000" stroke-width="6.2537622"/>
	<path d="M335.112 1961.809h140v140h-140z" fill="#fff" stroke="#000" stroke-width="6.2537622"/>
	<path d="M473.69 1961.809h140v140h-140z" fill="#fff" stroke="#000" stroke-width="6.2537622"/>
	<path d="M612.266 1961.809h140v140h-140z" fill="#fff" stroke="#000" stroke-width="6.2537622"/>
	<path d="M750.843 1961.809h140v140h-140z" fill="#fff" stroke="#000" stroke-width="6.2537622"/>
	<path d="M889.42 1961.809h140v140h-140z" fill="#fff" stroke="#000" stroke-width="6.2537622"/>
	<path d="M1027.996 1961.809h140v140h-140z" stroke="#000" stroke-width="6.2537622"/>
	<path d="M1166.573 1961.809h140v140h-140z" fill="#fff" stroke="#000" stroke-width="6.2537622"/>
	<path d="M1305.155 1961.809h140v140h-140z" stroke="#000" stroke-width="6.2537622"/>
	<path d="M1443.725 1961.809h140v140h-140z" fill="#fff" stroke="#000" stroke-width="6.2537622"/>
	<path d="M1582.305 1961.809h140v140h-140z" fill="#fff" stroke="#000" stroke-width="6.2537622"/>
	<path d="M1720.885 1961.809h140v140h-140z" fill="#fff" stroke="#000" stroke-width="6.2537622"/>
	<path d="M1859.455 1961.809h140v140h-140z" fill="#fff" stroke="#000" stroke-width="6.2537622"/>
	<path d="M1998.035 1961.809h140v140h-140z" fill="#fff" stroke="#000" stroke-width="6.2537622"/>
	<path d="M2136.615 1961.809h140v140h-140zM196.568 2096.729h140v140h-140z" fill="#fff" stroke="#000" stroke-width="6.2537622"/>
	<path d="M335.145 2096.729h140v140h-140z" fill="#fff" stroke="#000" stroke-width="6.2537622"/>
	<path d="M473.722 2096.729h140v140h-140z" fill="#fff" stroke="#000" stroke-width="6.2537622"/>
	<path d="M612.3 2096.729h140v140h-140z" fill="#fff" stroke="#000" stroke-width="6.2537622"/>
	<path d="M750.876 2096.729h140v140h-140z" fill="#fff" stroke="#000" stroke-width="6.2537622"/>
	<path d="M889.453 2096.729h140v140h-140z" stroke="#000" stroke-width="6.2537622"/>
	<path d="M1028.03 2096.729h140v140h-140z" stroke="#000" stroke-width="6.2537622"/>
	<path d="M1166.606 2096.729h140v140h-140z" fill="#fff" stroke="#000" stroke-width="6.2537622"/>
	<path d="M1305.185 2096.729h140v140h-140z" stroke="#000" stroke-width="6.2537622"/>
	<path d="M1443.765 2096.729h140v140h-140z" stroke="#000" stroke-width="6.2537622"/>
	<path d="M1582.335 2096.729h140v140h-140z" fill="#fff" stroke="#000" stroke-width="6.2537622"/>
	<path d="M1720.915 2096.729h140v140h-140z" fill="#fff" stroke="#000" stroke-width="6.2537622"/>
	<path d="M1859.495 2096.729h140v140h-140z" fill="#fff" stroke="#000" stroke-width="6.2537622"/>
	<path d="M1998.065 2096.729h140v140h-140z" fill="#fff" stroke="#000" stroke-width="6.2537622"/>
	<path d="M2136.645 2096.729h140v140h-140z" fill="#fff" stroke="#000" stroke-width="6.2537622"/>
	<path d="M125.34 242.97h9.375v51.15h-9.375zM127.705 378.45c4.875 0 8.7 1.425 11.625 4.2 2.85 2.7 4.275 6.45 4.275 11.025 0 3.525-1.05 7.35-3.225 11.475-2.1 4.05-5.85 9.525-11.25 16.275h17.55v8.85h-33.15v-1.05c3.825-4.8 7.2-9.075 9.975-12.825 2.775-3.825 4.875-6.975 6.375-9.45 1.5-2.55 2.625-4.65 3.225-6.375.675-1.8.975-3.6.975-5.475 0-2.325-.75-4.35-2.25-5.925-1.5-1.575-3.3-2.4-5.475-2.4-3.9 0-7.875 2.175-12 6.6v-10.05c4.35-3.225 8.775-4.875 13.35-4.875ZM127.92 514.604c4.725 0 8.55 1.2 11.475 3.525 2.925 2.4 4.35 5.475 4.35 9.375 0 5.25-2.4 9.15-7.125 11.7 2.7.975 4.8 2.55 6.15 4.8 1.425 2.175 2.1 4.8 2.1 7.875 0 4.575-1.575 8.25-4.725 11.025-3.225 2.775-7.35 4.2-12.525 4.2-4.125 0-8.025-.975-11.775-2.925v-9c2.1 1.425 3.975 2.4 5.7 3 1.725.675 3.525.975 5.325.975 2.4 0 4.35-.675 5.85-2.025 1.575-1.35 2.325-3.15 2.325-5.325 0-2.4-.825-4.275-2.55-5.7-1.65-1.425-3.975-2.175-6.9-2.175h-.6v-7.95h.45c2.7 0 4.875-.6 6.375-1.8 1.575-1.2 2.325-2.85 2.325-4.875s-.75-3.675-2.25-4.875c-1.425-1.275-3.375-1.875-5.7-1.875-2.85 0-5.925.75-9.075 2.325v-8.025c3.225-1.5 6.825-2.25 10.8-2.25ZM143.577 650.759v29.85h4.35v7.5h-4.35v14.475h-9.375v-14.475h-20.925v-6l24.9-31.35h5.4Zm-9.6 15.525-11.325 14.325h11.55v-14.325h-.225ZM143.16 787.588v8.625h-16.2v11.025l.975-.075h.75c3.075 0 5.925.675 8.475 2.025 2.55 1.35 4.5 3.3 5.925 5.7 1.425 2.475 2.175 5.175 2.175 8.25 0 4.8-1.65 8.7-4.875 11.7-3.225 3.075-7.5 4.575-12.75 4.575-4.65 0-8.85-.975-12.45-2.925v-8.55c3.825 2.325 7.5 3.525 10.95 3.525 2.775 0 5.025-.75 6.825-2.325 1.875-1.5 2.775-3.45 2.775-5.775 0-2.625-1.05-4.725-3.15-6.15-2.1-1.5-4.95-2.25-8.55-2.25-1.725 0-3.6.225-5.7.675v-28.05h24.825ZM142.747 923.068c-2.7 2.25-5.775 5.625-9.075 10.05-3.3 4.5-5.625 8.4-7.05 11.7 1.875-.825 3.825-1.2 5.85-1.2 2.625 0 5.025.675 7.2 2.025 2.175 1.275 3.825 3.15 5.025 5.475 1.2 2.4 1.8 5.025 1.8 7.875 0 3.075-.75 5.85-2.1 8.4-1.425 2.55-3.375 4.5-5.925 6-2.475 1.425-5.175 2.175-8.1 2.175-4.95 0-9-1.725-12.075-5.025-3.075-3.375-4.65-7.725-4.65-13.125 0-5.325 1.575-11.1 4.8-17.175 3.225-6.075 7.575-11.85 13.125-17.175h11.175Zm-19.575 35.925c0 2.4.675 4.35 2.025 5.85 1.275 1.575 3 2.325 5.1 2.325 2.025 0 3.75-.75 5.025-2.175 1.2-1.425 1.875-3.375 1.875-5.775 0-2.25-.675-4.125-1.95-5.55-1.35-1.5-3-2.25-5.1-2.25-2.025 0-3.675.75-4.95 2.175-1.35 1.425-2.025 3.225-2.025 5.4ZM146.193 1059.897v.3l-20.625 51.525-8.625-3.225 16.125-39.825h-20.4v-8.775h33.525ZM130.059 1195.377c4.575 0 8.325 1.35 11.175 3.975 2.925 2.7 4.35 6.15 4.35 10.35 0 4.65-2.1 8.25-6.3 10.875 2.625 1.425 4.575 3.15 5.7 5.175 1.2 2.025 1.8 4.425 1.8 7.2 0 2.85-.75 5.4-2.175 7.65-1.425 2.325-3.45 4.05-6 5.325-2.55 1.275-5.4 1.95-8.55 1.95-4.875 0-8.925-1.425-12.075-4.2-3.15-2.775-4.725-6.375-4.725-10.725 0-2.925.6-5.325 1.875-7.35 1.275-2.025 3.15-3.675 5.625-5.025-4.2-2.625-6.3-6.3-6.3-10.95 0-4.2 1.5-7.65 4.35-10.275 2.925-2.625 6.675-3.975 11.25-3.975Zm-6.225 14.475c0 2.175.6 3.975 1.8 5.4 1.125 1.425 2.625 2.1 4.425 2.1 1.8 0 3.225-.75 4.425-2.175 1.125-1.425 1.725-3.225 1.725-5.325 0-2.25-.525-3.975-1.65-5.25-1.125-1.35-2.625-1.95-4.5-1.95s-3.375.6-4.5 1.875-1.725 3.075-1.725 5.325Zm-1.05 22.65c0 2.55.675 4.5 1.95 5.925 1.35 1.5 3.15 2.175 5.325 2.175 2.25 0 3.975-.75 5.25-2.175 1.275-1.425 1.95-3.375 1.95-5.775 0-2.4-.675-4.35-2.025-5.85-1.275-1.575-3-2.325-5.1-2.325-2.175 0-3.975.675-5.325 2.175-1.35 1.425-2.025 3.375-2.025 5.85ZM129.705 1331.535c3.225 0 6.15.75 8.7 2.25 2.55 1.575 4.575 3.675 5.925 6.45 1.425 2.7 2.1 5.85 2.1 9.45 0 5.325-1.65 11.175-4.875 17.4-3.3 6.225-7.65 11.85-13.05 16.95H117.33c2.925-2.55 6-5.925 9.225-10.275 3.3-4.35 5.55-8.175 6.9-11.475-1.8.825-3.75 1.2-5.85 1.2-4.05 0-7.425-1.425-10.05-4.35-2.625-2.925-3.975-6.6-3.975-11.1 0-3 .675-5.775 2.1-8.25 1.35-2.55 3.3-4.575 5.775-6 2.55-1.5 5.25-2.25 8.25-2.25Zm-6.825 16.35c0 2.25.675 4.125 1.95 5.625 1.275 1.425 3 2.175 5.1 2.175 2.025 0 3.675-.75 5.025-2.25 1.275-1.425 1.95-3.225 1.95-5.25 0-2.475-.675-4.425-2.025-6-1.275-1.5-3-2.25-5.175-2.25-2.025 0-3.675.75-4.95 2.175-1.275 1.5-1.875 3.375-1.875 5.775ZM96.428 1468.36h9.375v51.15h-9.375zM140.816 1467.685c5.175 0 9.3 2.325 12.3 6.975 3.075 4.725 4.575 11.025 4.575 19.125 0 8.175-1.5 14.625-4.5 19.35-3 4.65-7.125 7.05-12.3 7.05-5.25 0-9.45-2.325-12.525-7.05-3-4.65-4.575-11.025-4.575-19.2 0-8.1 1.5-14.475 4.575-19.2s7.2-7.05 12.45-7.05Zm-7.5 26.55c0 11.7 2.475 17.55 7.5 17.55 4.875 0 7.35-6.15 7.35-18.45 0-11.475-2.475-17.25-7.425-17.25-4.95 0-7.425 6.075-7.425 18.15ZM101.547 1604.52h9.375v51.15h-9.375zM141.135 1604.52h9.375v51.15h-9.375zM96.835 1740.67h9.375v51.15h-9.375zM138.598 1739.995c4.875 0 8.7 1.425 11.625 4.2 2.85 2.7 4.275 6.45 4.275 11.025 0 3.525-1.05 7.35-3.225 11.475-2.1 4.05-5.85 9.525-11.25 16.275h17.55v8.85h-33.15v-1.05c3.825-4.8 7.2-9.075 9.975-12.825 2.775-3.825 4.875-6.975 6.375-9.45 1.5-2.55 2.625-4.65 3.225-6.375.675-1.8.975-3.6.975-5.475 0-2.325-.75-4.35-2.25-5.925-1.5-1.575-3.3-2.4-5.475-2.4-3.9 0-7.875 2.175-12 6.6v-10.05c4.35-3.225 8.775-4.875 13.35-4.875ZM98.762 1876.82h9.375v51.15h-9.375zM139.925 1876.145c4.725 0 8.55 1.2 11.475 3.525 2.925 2.4 4.35 5.475 4.35 9.375 0 5.25-2.4 9.15-7.125 11.7 2.7.975 4.8 2.55 6.15 4.8 1.425 2.175 2.1 4.8 2.1 7.875 0 4.575-1.575 8.25-4.725 11.025-3.225 2.775-7.35 4.2-12.525 4.2-4.125 0-8.025-.975-11.775-2.925v-9c2.1 1.425 3.975 2.4 5.7 3 1.725.675 3.525.975 5.325.975 2.4 0 4.35-.675 5.85-2.025 1.575-1.35 2.325-3.15 2.325-5.325 0-2.4-.825-4.275-2.55-5.7-1.65-1.425-3.975-2.175-6.9-2.175h-.6v-7.95h.45c2.7 0 4.875-.6 6.375-1.8 1.575-1.2 2.325-2.85 2.325-4.875s-.75-3.675-2.25-4.875c-1.425-1.275-3.375-1.875-5.7-1.875-2.85 0-5.925.75-9.075 2.325v-8.025c3.225-1.5 6.825-2.25 10.8-2.25ZM97.053 2012.98h9.375v51.15h-9.375zM153.14 2012.305v29.85h4.35v7.5h-4.35v14.475h-9.375v-14.475H122.84v-6l24.9-31.35h5.4Zm-9.6 15.525-11.325 14.325h11.55v-14.325h-.225ZM98.165 2149.13h9.375v51.15h-9.375zM155.003 2149.13v8.625h-16.2v11.025l.975-.075h.75c3.075 0 5.925.675 8.475 2.025 2.55 1.35 4.5 3.3 5.925 5.7 1.425 2.475 2.175 5.175 2.175 8.25 0 4.8-1.65 8.7-4.875 11.7-3.225 3.075-7.5 4.575-12.75 4.575-4.65 0-8.85-.975-12.45-2.925v-8.55c3.825 2.325 7.5 3.525 10.95 3.525 2.775 0 5.025-.75 6.825-2.325 1.875-1.5 2.775-3.45 2.775-5.775 0-2.625-1.05-4.725-3.15-6.15-2.1-1.5-4.95-2.25-8.55-2.25-1.725 0-3.6.225-5.7.675v-28.05h24.825ZM265.742 115.998h10.666v46.2h-10.666zM396.804 115.998h10.666v46.2h-10.666zM414.738 115.998h10.666v46.2h-10.666zM520.047 115.998h10.666v46.2h-10.666zM537.98 115.998h10.666v46.2H537.98zM555.913 115.998h10.666v46.2h-10.666zM662.36 115.998h10.667v46.2h-10.666zM712.36 115.998h-10.666l-7.134 37.8-7.733-37.8h-10.933l11.733 46.2h13.467l11.266-46.2ZM839.523 115.998h-10.666l-7.134 37.8-7.733-37.8h-10.933l11.733 46.2h13.467l11.266-46.2ZM971.778 115.998h-10.666l-7.134 37.8-7.733-37.8h-10.933l11.733 46.2h13.467l11.266-46.2ZM974.712 115.998h10.666v46.2h-10.666zM1101.54 115.998h-10.667l-7.134 37.8-7.733-37.8h-10.933l11.733 46.2h13.467l11.266-46.2ZM1104.473 115.998h10.666v46.2h-10.666zM1122.407 115.998h10.666v46.2h-10.666zM1228.233 115.998h-10.666l-7.134 37.8-7.733-37.8h-10.933l11.733 46.2h13.467l11.266-46.2ZM1231.167 115.998h10.666v46.2h-10.666zM1249.1 115.998h10.666v46.2H1249.1zM1267.033 115.998h10.666v46.2h-10.666zM1349.753 115.998h10.666v46.2h-10.666zM1387.82 137.265l10.933-21.267h-11.066l-6.134 15-5.733-15h-11.333l10.666 21.667-11.533 24.533h11.133l6.667-17.8 6.933 17.8h11.4l-11.933-24.933ZM1521.873 137.265l10.933-21.267h-11.066l-6.134 15-5.733-15h-11.333l10.666 21.667-11.533 24.533h11.133l6.667-17.8 6.933 17.8h11.4l-11.933-24.933ZM1645.556 137.265l10.933-21.267h-11.066l-6.134 15-5.733-15h-11.333l10.666 21.667-11.533 24.533h11.133l6.667-17.8 6.933 17.8h11.4l-11.933-24.933ZM1660.757 115.998h10.666v46.2h-10.666zM1767.52 137.265l10.933-21.267h-11.066l-6.134 15-5.733-15h-11.333l10.666 21.667-11.533 24.533h11.133l6.667-17.8 6.933 17.8h11.4l-11.933-24.933ZM1782.72 115.998h10.666v46.2h-10.666zM1800.653 115.998h10.666v46.2h-10.666zM1901.023 137.265l10.933-21.267h-11.066l-6.134 15-5.733-15h-11.333l10.666 21.667-11.533 24.533h11.133l6.667-17.8 6.933 17.8h11.4l-11.933-24.933ZM1916.223 115.998h10.666v46.2h-10.666zM1934.157 115.998h10.666v46.2h-10.666zM1952.09 115.998h10.666v46.2h-10.666zM2041.756 137.265l10.933-21.267h-11.066l-6.134 15-5.733-15h-11.333l10.666 21.667-11.533 24.533h11.133l6.667-17.8 6.933 17.8h11.4l-11.933-24.933ZM2056.957 115.998h10.666v46.2h-10.666zM2106.956 115.998h-10.666l-7.134 37.8-7.733-37.8h-10.933l11.733 46.2h13.467l11.266-46.2ZM2186.213 137.265l10.933-21.267h-11.066l-6.134 15-5.733-15h-11.333l10.666 21.667-11.533 24.533h11.133l6.667-17.8 6.933 17.8h11.4l-11.933-24.933Z" fill-rule="nonzero"/>
	<path d="M2233.48 115.998h-10.667l-7.134 37.8-7.733-37.8h-10.933l11.733 46.2h13.467l11.266-46.2Z" fill-rule="nonzero"/>
</svg>
