<?xml version="1.0" encoding="utf-8"?>
<svg xmlns="http://www.w3.org/2000/svg" clip-rule="evenodd" fill-rule="evenodd" stroke-linecap="round" stroke-linejoin="round" stroke-miterlimit="1.5" xml:space="preserve" viewBox="0 0 2500 2500">
	<title>A crossword puzzle grid with the solution filled in. Revealed in the grey squares are the words TESTAMENT, VERSICLES, CANTICLES and THIRTYONE.</title>
	<path d="M196.138 203.667h140v140h-140z" fill="#fff" stroke="#000" stroke-width="6.2537622"/>
	<path d="M334.715 203.667h140v140h-140z" fill="#fff" stroke="#000" stroke-width="6.2537622"/>
	<path d="M473.292 203.667h140v140h-140z" fill="#fff" stroke="#000" stroke-width="6.2537622"/>
	<path d="M611.87 203.667h140v140h-140z" fill="#fff" stroke="#000" stroke-width="6.2537622"/>
	<path d="M750.446 203.667h140v140h-140z" fill="#fff" stroke="#000" stroke-width="6.2537622"/>
	<path d="M889.023 203.667h140v140h-140z" stroke="#000" stroke-width="6.2537622"/>
	<path d="M1027.6 203.667h140v140h-140z" stroke="#000" stroke-width="6.2537622"/>
	<path d="M1166.176 203.667h140v140h-140z" fill="#fff" stroke="#000" stroke-width="6.2537622"/>
	<path d="M1304.755 203.667h140v140h-140z" stroke="#000" stroke-width="6.2537622"/>
	<path d="M1443.335 203.667h140v140h-140z" stroke="#000" stroke-width="6.2537622"/>
	<path d="M1581.905 203.667h140v140h-140z" fill="#fff" stroke="#000" stroke-width="6.2537622"/>
	<path d="M1720.485 203.667h140v140h-140z" fill="#fff" stroke="#000" stroke-width="6.2537622"/>
	<path d="M1859.065 203.667h140v140h-140z" fill="#fff" stroke="#000" stroke-width="6.2537622"/>
	<path d="M1997.635 203.667h140v140h-140z" fill="#fff" stroke="#000" stroke-width="6.2537622"/>
	<path d="M2136.215 203.667h140v140h-140zM196.138 342.667h140v140h-140z" fill="#fff" stroke="#000" stroke-width="6.2537622"/>
	<path d="M334.715 342.667h140v140h-140z" fill="#fff" stroke="#000" stroke-width="6.2537622"/>
	<path d="M473.292 342.667h140v140h-140z" fill="#fff" stroke="#000" stroke-width="6.2537622"/>
	<path d="M611.87 342.667h140v140h-140z" fill="#fff" stroke="#000" stroke-width="6.2537622"/>
	<path d="M750.446 342.667h140v140h-140z" fill="#fff" stroke="#000" stroke-width="6.2537622"/>
	<path d="M889.023 342.667h140v140h-140z" fill="#fff" stroke="#000" stroke-width="6.2537622"/>
	<path d="M1027.6 342.667h140v140h-140z" stroke="#000" stroke-width="6.2537622"/>
	<path d="M1166.176 342.667h140v140h-140z" fill="#fff" stroke="#000" stroke-width="6.2537622"/>
	<path d="M1304.755 342.667h140v140h-140z" stroke="#000" stroke-width="6.2537622"/>
	<path d="M1443.335 342.667h140v140h-140z" fill="#fff" stroke="#000" stroke-width="6.2537622"/>
	<path d="M1581.905 342.667h140v140h-140z" fill="#fff" stroke="#000" stroke-width="6.2537622"/>
	<path d="M1720.485 342.667h140v140h-140z" fill="#fff" stroke="#000" stroke-width="6.2537622"/>
	<path d="M1859.065 342.667h140v140h-140z" fill="#fff" stroke="#000" stroke-width="6.2537622"/>
	<path d="M1997.635 342.667h140v140h-140z" fill="#fff" stroke="#000" stroke-width="6.2537622"/>
	<path d="M2136.215 342.667h140v140h-140zM196.171 477.595h140v140h-140z" fill="#fff" stroke="#000" stroke-width="6.2537622"/>
	<path d="M334.748 477.595h140v140h-140z" fill="#fff" stroke="#000" stroke-width="6.2537622"/>
	<path d="M473.325 477.595h140v140h-140z" stroke="#000" stroke-width="6.2537622"/>
	<path d="M611.902 477.595h140v140h-140z" fill="#c8c8c8" stroke="#000" stroke-width="6.2537622"/>
	<path d="M750.48 477.595h140v140h-140z" fill="#c8c8c8" stroke="#000" stroke-width="6.2537622"/>
	<path d="M889.056 477.595h140v140h-140z" fill="#c8c8c8" stroke="#000" stroke-width="6.2537622"/>
	<path d="M1027.633 477.595h140v140h-140z" fill="#c8c8c8" stroke="#000" stroke-width="6.2537622"/>
	<path d="M1166.21 477.595h140v140h-140z" fill="#c8c8c8" stroke="#000" stroke-width="6.2537622"/>
	<path d="M1304.785 477.595h140v140h-140z" fill="#c8c8c8" stroke="#000" stroke-width="6.2537622"/>
	<path d="M1443.365 477.595h140v140h-140z" fill="#c8c8c8" stroke="#000" stroke-width="6.2537622"/>
	<path d="M1581.945 477.595h140v140h-140z" fill="#c8c8c8" stroke="#000" stroke-width="6.2537622"/>
	<path d="M1720.515 477.595h140v140h-140z" fill="#c8c8c8" stroke="#000" stroke-width="6.2537622"/>
	<path d="M1859.095 477.595h140v140h-140z" stroke="#000" stroke-width="6.2537622"/>
	<path d="M1997.675 477.595h140v140h-140z" fill="#fff" stroke="#000" stroke-width="6.2537622"/>
	<path d="M2136.245 477.595h140v140h-140zM196.205 612.524h140v140h-140z" fill="#fff" stroke="#000" stroke-width="6.2537622"/>
	<path d="M334.781 612.524h140v140h-140z" fill="#fff" stroke="#000" stroke-width="6.2537622"/>
	<path d="M473.358 612.524h140v140h-140z" fill="#c8c8c8" stroke="#000" stroke-width="6.2537622"/>
	<path d="M611.935 612.524h140v140h-140z" fill="#fff" stroke="#000" stroke-width="6.2537622"/>
	<path d="M750.512 612.524h140v140h-140z" fill="#fff" stroke="#000" stroke-width="6.2537622"/>
	<path d="M889.09 612.524h140v140h-140z" fill="#fff" stroke="#000" stroke-width="6.2537622"/>
	<path d="M1027.666 612.524h140v140h-140z" stroke="#000" stroke-width="6.2537622"/>
	<path d="M1166.243 612.524h140v140h-140z" fill="#fff" stroke="#000" stroke-width="6.2537622"/>
	<path d="M1304.815 612.524h140v140h-140z" stroke="#000" stroke-width="6.2537622"/>
	<path d="M1443.395 612.524h140v140h-140z" fill="#fff" stroke="#000" stroke-width="6.2537622"/>
	<path d="M1581.975 612.524h140v140h-140z" fill="#fff" stroke="#000" stroke-width="6.2537622"/>
	<path d="M1720.555 612.524h140v140h-140z" fill="#fff" stroke="#000" stroke-width="6.2537622"/>
	<path d="M1859.125 612.524h140v140h-140z" fill="#c8c8c8" stroke="#000" stroke-width="6.2537622"/>
	<path d="M1997.705 612.524h140v140h-140z" fill="#fff" stroke="#000" stroke-width="6.2537622"/>
	<path d="M2136.285 612.524h140v140h-140zM196.237 747.452h140v140h-140z" fill="#fff" stroke="#000" stroke-width="6.2537622"/>
	<path d="M334.814 747.452h140v140h-140z" fill="#fff" stroke="#000" stroke-width="6.2537622"/>
	<path d="M473.391 747.452h140v140h-140z" fill="#c8c8c8" stroke="#000" stroke-width="6.2537622"/>
	<path d="M611.968 747.452h140v140h-140z" fill="#fff" stroke="#000" stroke-width="6.2537622"/>
	<path d="M750.545 747.452h140v140h-140z" fill="#fff" stroke="#000" stroke-width="6.2537622"/>
	<path d="M889.122 747.452h140v140h-140z" stroke="#000" stroke-width="6.2537622"/>
	<path d="M1027.7 747.452h140v140h-140z" stroke="#000" stroke-width="6.2537622"/>
	<path d="M1166.276 747.452h140v140h-140z" fill="#fff" stroke="#000" stroke-width="6.2537622"/>
	<path d="M1304.855 747.452h140v140h-140z" stroke="#000" stroke-width="6.2537622"/>
	<path d="M1443.425 747.452h140v140h-140z" stroke="#000" stroke-width="6.2537622"/>
	<path d="M1582.005 747.452h140v140h-140z" fill="#fff" stroke="#000" stroke-width="6.2537622"/>
	<path d="M1720.585 747.452h140v140h-140z" fill="#fff" stroke="#000" stroke-width="6.2537622"/>
	<path d="M1859.165 747.452h140v140h-140z" fill="#c8c8c8" stroke="#000" stroke-width="6.2537622"/>
	<path d="M1997.735 747.452h140v140h-140z" fill="#fff" stroke="#000" stroke-width="6.2537622"/>
	<path d="M2136.315 747.452h140v140h-140z" fill="#fff" stroke="#000" stroke-width="6.2537622"/>
	<path d="M196.27 882.38h140v140h-140z" stroke="#000" stroke-width="6.2537622"/>
	<path d="M334.847 882.38h140v140h-140z" fill="#fff" stroke="#000" stroke-width="6.2537622"/>
	<path d="M473.424 882.38h140v140h-140z" fill="#c8c8c8" stroke="#000" stroke-width="6.2537622"/>
	<path d="M612.001 882.38h140v140h-140z" fill="#fff" stroke="#000" stroke-width="6.2537622"/>
	<path d="M750.578 882.38h140v140h-140z" stroke="#000" stroke-width="6.2537622"/>
	<path d="M889.155 882.38h140v140h-140z" stroke="#000" stroke-width="6.2537622"/>
	<path d="M1027.732 882.38h140v140h-140z" fill="#fff" stroke="#000" stroke-width="6.2537622"/>
	<path d="M1166.31 882.38h140v140h-140z" fill="#fff" stroke="#000" stroke-width="6.2537622"/>
	<path d="M1304.885 882.38h140v140h-140z" fill="#fff" stroke="#000" stroke-width="6.2537622"/>
	<path d="M1443.465 882.38h140v140h-140z" stroke="#000" stroke-width="6.2537622"/>
	<path d="M1582.035 882.38h140v140h-140z" stroke="#000" stroke-width="6.2537622"/>
	<path d="M1720.615 882.38h140v140h-140z" fill="#fff" stroke="#000" stroke-width="6.2537622"/>
	<path d="M1859.195 882.38h140v140h-140z" fill="#c8c8c8" stroke="#000" stroke-width="6.2537622"/>
	<path d="M1997.775 882.38h140v140h-140z" fill="#fff" stroke="#000" stroke-width="6.2537622"/>
	<path d="M2136.345 882.38h140v140h-140zM196.303 1017.308h140v140h-140z" stroke="#000" stroke-width="6.2537622"/>
	<path d="M334.88 1017.308h140v140h-140z" stroke="#000" stroke-width="6.2537622"/>
	<path d="M473.457 1017.308h140v140h-140z" fill="#c8c8c8" stroke="#000" stroke-width="6.2537622"/>
	<path d="M612.034 1017.308h140v140h-140z" stroke="#000" stroke-width="6.2537622"/>
	<path d="M750.611 1017.308h140v140h-140z" stroke="#000" stroke-width="6.2537622"/>
	<path d="M889.188 1017.308h140v140h-140z" fill="#fff" stroke="#000" stroke-width="6.2537622"/>
	<path d="M1027.765 1017.308h140v140h-140z" fill="#fff" stroke="#000" stroke-width="6.2537622"/>
	<path d="M1166.342 1017.308h140v140h-140z" fill="#fff" stroke="#000" stroke-width="6.2537622"/>
	<path d="M1304.915 1017.308h140v140h-140z" fill="#fff" stroke="#000" stroke-width="6.2537622"/>
	<path d="M1443.495 1017.308h140v140h-140z" fill="#fff" stroke="#000" stroke-width="6.2537622"/>
	<path d="M1582.075 1017.308h140v140h-140z" stroke="#000" stroke-width="6.2537622"/>
	<path d="M1720.645 1017.308h140v140h-140z" stroke="#000" stroke-width="6.2537622"/>
	<path d="M1859.225 1017.308h140v140h-140z" fill="#c8c8c8" stroke="#000" stroke-width="6.2537622"/>
	<path d="M1997.805 1017.308h140v140h-140z" stroke="#000" stroke-width="6.2537622"/>
	<path d="M2136.385 1017.308h140v140h-140z" stroke="#000" stroke-width="6.2537622"/>
	<path d="M196.336 1152.239h140v140h-140z" fill="#fff" stroke="#000" stroke-width="6.2537622"/>
	<path d="M334.913 1152.239h140v140h-140z" fill="#fff" stroke="#000" stroke-width="6.2537622"/>
	<path d="M473.49 1152.239h140v140h-140z" fill="#c8c8c8" stroke="#000" stroke-width="6.2537622"/>
	<path d="M612.067 1152.239h140v140h-140z" fill="#fff" stroke="#000" stroke-width="6.2537622"/>
	<path d="M750.644 1152.239h140v140h-140z" fill="#fff" stroke="#000" stroke-width="6.2537622"/>
	<path d="M889.221 1152.239h140v140h-140z" fill="#fff" stroke="#000" stroke-width="6.2537622"/>
	<path d="M1027.798 1152.239h140v140h-140z" fill="#fff" stroke="#000" stroke-width="6.2537622"/>
	<path d="M1166.375 1152.239h140v140h-140z" stroke="#000" stroke-width="6.2537622"/>
	<path d="M1304.955 1152.239h140v140h-140z" fill="#fff" stroke="#000" stroke-width="6.2537622"/>
	<path d="M1443.525 1152.239h140v140h-140z" fill="#fff" stroke="#000" stroke-width="6.2537622"/>
	<path d="M1582.105 1152.239h140v140h-140z" fill="#fff" stroke="#000" stroke-width="6.2537622"/>
	<path d="M1720.685 1152.239h140v140h-140z" fill="#fff" stroke="#000" stroke-width="6.2537622"/>
	<path d="M1859.255 1152.239h140v140h-140z" fill="#c8c8c8" stroke="#000" stroke-width="6.2537622"/>
	<path d="M1997.835 1152.239h140v140h-140z" fill="#fff" stroke="#000" stroke-width="6.2537622"/>
	<path d="M2136.415 1152.239h140v140h-140z" fill="#fff" stroke="#000" stroke-width="6.2537622"/>
	<path d="M196.37 1287.169h140v140h-140z" stroke="#000" stroke-width="6.2537622"/>
	<path d="M334.946 1287.169h140v140h-140z" stroke="#000" stroke-width="6.2537622"/>
	<path d="M473.523 1287.169h140v140h-140z" fill="#c8c8c8" stroke="#000" stroke-width="6.2537622"/>
	<path d="M612.1 1287.169h140v140h-140z" stroke="#000" stroke-width="6.2537622"/>
	<path d="M750.677 1287.169h140v140h-140z" stroke="#000" stroke-width="6.2537622"/>
	<path d="M889.254 1287.169h140v140h-140z" fill="#fff" stroke="#000" stroke-width="6.2537622"/>
	<path d="M1027.831 1287.169h140v140h-140z" fill="#fff" stroke="#000" stroke-width="6.2537622"/>
	<path d="M1166.408 1287.169h140v140h-140z" fill="#fff" stroke="#000" stroke-width="6.2537622"/>
	<path d="M1304.985 1287.169h140v140h-140z" fill="#fff" stroke="#000" stroke-width="6.2537622"/>
	<path d="M1443.565 1287.169h140v140h-140z" fill="#fff" stroke="#000" stroke-width="6.2537622"/>
	<path d="M1582.135 1287.169h140v140h-140z" stroke="#000" stroke-width="6.2537622"/>
	<path d="M1720.715 1287.169h140v140h-140z" stroke="#000" stroke-width="6.2537622"/>
	<path d="M1859.295 1287.169h140v140h-140z" fill="#c8c8c8" stroke="#000" stroke-width="6.2537622"/>
	<path d="M1997.865 1287.169h140v140h-140z" stroke="#000" stroke-width="6.2537622"/>
	<path d="M2136.445 1287.169h140v140h-140zM196.403 1422.089h140v140h-140z" stroke="#000" stroke-width="6.2537622"/>
	<path d="M334.98 1422.089h140v140h-140z" fill="#fff" stroke="#000" stroke-width="6.2537622"/>
	<path d="M473.556 1422.089h140v140h-140z" fill="#c8c8c8" stroke="#000" stroke-width="6.2537622"/>
	<path d="M612.133 1422.089h140v140h-140z" fill="#fff" stroke="#000" stroke-width="6.2537622"/>
	<path d="M750.71 1422.089h140v140h-140z" stroke="#000" stroke-width="6.2537622"/>
	<path d="M889.287 1422.089h140v140h-140z" stroke="#000" stroke-width="6.2537622"/>
	<path d="M1027.864 1422.089h140v140h-140z" fill="#fff" stroke="#000" stroke-width="6.2537622"/>
	<path d="M1166.441 1422.089h140v140h-140z" fill="#fff" stroke="#000" stroke-width="6.2537622"/>
	<path d="M1305.015 1422.089h140v140h-140z" fill="#fff" stroke="#000" stroke-width="6.2537622"/>
	<path d="M1443.595 1422.089h140v140h-140z" stroke="#000" stroke-width="6.2537622"/>
	<path d="M1582.175 1422.089h140v140h-140z" stroke="#000" stroke-width="6.2537622"/>
	<path d="M1720.745 1422.089h140v140h-140z" fill="#fff" stroke="#000" stroke-width="6.2537622"/>
	<path d="M1859.325 1422.089h140v140h-140z" fill="#c8c8c8" stroke="#000" stroke-width="6.2537622"/>
	<path d="M1997.905 1422.089h140v140h-140z" fill="#fff" stroke="#000" stroke-width="6.2537622"/>
	<path d="M2136.475 1422.089h140v140h-140z" stroke="#000" stroke-width="6.2537622"/>
	<path d="M196.435 1557.019h140v140h-140z" fill="#fff" stroke="#000" stroke-width="6.2537622"/>
	<path d="M335.013 1557.019h140v140h-140z" fill="#fff" stroke="#000" stroke-width="6.2537622"/>
	<path d="M473.59 1557.019h140v140h-140z" fill="#c8c8c8" stroke="#000" stroke-width="6.2537622"/>
	<path d="M612.166 1557.019h140v140h-140z" fill="#fff" stroke="#000" stroke-width="6.2537622"/>
	<path d="M750.743 1557.019h140v140h-140z" fill="#fff" stroke="#000" stroke-width="6.2537622"/>
	<path d="M889.32 1557.019h140v140h-140z" stroke="#000" stroke-width="6.2537622"/>
	<path d="M1027.897 1557.019h140v140h-140z" stroke="#000" stroke-width="6.2537622"/>
	<path d="M1166.474 1557.019h140v140h-140z" fill="#fff" stroke="#000" stroke-width="6.2537622"/>
	<path d="M1305.055 1557.019h140v140h-140z" stroke="#000" stroke-width="6.2537622"/>
	<path d="M1443.625 1557.019h140v140h-140z" stroke="#000" stroke-width="6.2537622"/>
	<path d="M1582.205 1557.019h140v140h-140z" fill="#fff" stroke="#000" stroke-width="6.2537622"/>
	<path d="M1720.785 1557.019h140v140h-140z" fill="#fff" stroke="#000" stroke-width="6.2537622"/>
	<path d="M1859.355 1557.019h140v140h-140z" fill="#c8c8c8" stroke="#000" stroke-width="6.2537622"/>
	<path d="M1997.935 1557.019h140v140h-140z" fill="#fff" stroke="#000" stroke-width="6.2537622"/>
	<path d="M2136.515 1557.019h140v140h-140zM196.47 1691.949h140v140h-140z" fill="#fff" stroke="#000" stroke-width="6.2537622"/>
	<path d="M335.046 1691.949h140v140h-140z" fill="#fff" stroke="#000" stroke-width="6.2537622"/>
	<path d="M473.623 1691.949h140v140h-140z" fill="#c8c8c8" stroke="#000" stroke-width="6.2537622"/>
	<path d="M612.2 1691.949h140v140h-140z" fill="#fff" stroke="#000" stroke-width="6.2537622"/>
	<path d="M750.776 1691.949h140v140h-140z" fill="#fff" stroke="#000" stroke-width="6.2537622"/>
	<path d="M889.353 1691.949h140v140h-140z" fill="#fff" stroke="#000" stroke-width="6.2537622"/>
	<path d="M1027.93 1691.949h140v140h-140z" stroke="#000" stroke-width="6.2537622"/>
	<path d="M1166.507 1691.949h140v140h-140z" fill="#fff" stroke="#000" stroke-width="6.2537622"/>
	<path d="M1305.085 1691.949h140v140h-140z" stroke="#000" stroke-width="6.2537622"/>
	<path d="M1443.665 1691.949h140v140h-140z" fill="#fff" stroke="#000" stroke-width="6.2537622"/>
	<path d="M1582.235 1691.949h140v140h-140z" fill="#fff" stroke="#000" stroke-width="6.2537622"/>
	<path d="M1720.815 1691.949h140v140h-140z" fill="#fff" stroke="#000" stroke-width="6.2537622"/>
	<path d="M1859.395 1691.949h140v140h-140z" fill="#c8c8c8" stroke="#000" stroke-width="6.2537622"/>
	<path d="M1997.965 1691.949h140v140h-140z" fill="#fff" stroke="#000" stroke-width="6.2537622"/>
	<path d="M2136.545 1691.949h140v140h-140zM196.502 1826.879h140v140h-140z" fill="#fff" stroke="#000" stroke-width="6.2537622"/>
	<path d="M335.08 1826.879h140v140h-140z" fill="#fff" stroke="#000" stroke-width="6.2537622"/>
	<path d="M473.656 1826.879h140v140h-140z" stroke="#000" stroke-width="6.2537622"/>
	<path d="M612.233 1826.879h140v140h-140z" fill="#c8c8c8" stroke="#000" stroke-width="6.2537622"/>
	<path d="M750.81 1826.879h140v140h-140z" fill="#c8c8c8" stroke="#000" stroke-width="6.2537622"/>
	<path d="M889.386 1826.879h140v140h-140z" fill="#c8c8c8" stroke="#000" stroke-width="6.2537622"/>
	<path d="M1027.963 1826.879h140v140h-140z" fill="#c8c8c8" stroke="#000" stroke-width="6.2537622"/>
	<path d="M1166.54 1826.879h140v140h-140z" fill="#c8c8c8" stroke="#000" stroke-width="6.2537622"/>
	<path d="M1305.115 1826.879h140v140h-140z" fill="#c8c8c8" stroke="#000" stroke-width="6.2537622"/>
	<path d="M1443.695 1826.879h140v140h-140z" fill="#c8c8c8" stroke="#000" stroke-width="6.2537622"/>
	<path d="M1582.275 1826.879h140v140h-140z" fill="#c8c8c8" stroke="#000" stroke-width="6.2537622"/>
	<path d="M1720.845 1826.879h140v140h-140z" fill="#c8c8c8" stroke="#000" stroke-width="6.2537622"/>
	<path d="M1859.425 1826.879h140v140h-140z" stroke="#000" stroke-width="6.2537622"/>
	<path d="M1998.005 1826.879h140v140h-140z" fill="#fff" stroke="#000" stroke-width="6.2537622"/>
	<path d="M2136.575 1826.879h140v140h-140zM196.535 1961.809h140v140h-140z" fill="#fff" stroke="#000" stroke-width="6.2537622"/>
	<path d="M335.112 1961.809h140v140h-140z" fill="#fff" stroke="#000" stroke-width="6.2537622"/>
	<path d="M473.69 1961.809h140v140h-140z" fill="#fff" stroke="#000" stroke-width="6.2537622"/>
	<path d="M612.266 1961.809h140v140h-140z" fill="#fff" stroke="#000" stroke-width="6.2537622"/>
	<path d="M750.843 1961.809h140v140h-140z" fill="#fff" stroke="#000" stroke-width="6.2537622"/>
	<path d="M889.42 1961.809h140v140h-140z" fill="#fff" stroke="#000" stroke-width="6.2537622"/>
	<path d="M1027.996 1961.809h140v140h-140z" stroke="#000" stroke-width="6.2537622"/>
	<path d="M1166.573 1961.809h140v140h-140z" fill="#fff" stroke="#000" stroke-width="6.2537622"/>
	<path d="M1305.155 1961.809h140v140h-140z" stroke="#000" stroke-width="6.2537622"/>
	<path d="M1443.725 1961.809h140v140h-140z" fill="#fff" stroke="#000" stroke-width="6.2537622"/>
	<path d="M1582.305 1961.809h140v140h-140z" fill="#fff" stroke="#000" stroke-width="6.2537622"/>
	<path d="M1720.885 1961.809h140v140h-140z" fill="#fff" stroke="#000" stroke-width="6.2537622"/>
	<path d="M1859.455 1961.809h140v140h-140z" fill="#fff" stroke="#000" stroke-width="6.2537622"/>
	<path d="M1998.035 1961.809h140v140h-140z" fill="#fff" stroke="#000" stroke-width="6.2537622"/>
	<path d="M2136.615 1961.809h140v140h-140zM196.568 2096.729h140v140h-140z" fill="#fff" stroke="#000" stroke-width="6.2537622"/>
	<path d="M335.145 2096.729h140v140h-140z" fill="#fff" stroke="#000" stroke-width="6.2537622"/>
	<path d="M473.722 2096.729h140v140h-140z" fill="#fff" stroke="#000" stroke-width="6.2537622"/>
	<path d="M612.3 2096.729h140v140h-140z" fill="#fff" stroke="#000" stroke-width="6.2537622"/>
	<path d="M750.876 2096.729h140v140h-140z" fill="#fff" stroke="#000" stroke-width="6.2537622"/>
	<path d="M889.453 2096.729h140v140h-140z" stroke="#000" stroke-width="6.2537622"/>
	<path d="M1028.03 2096.729h140v140h-140z" stroke="#000" stroke-width="6.2537622"/>
	<path d="M1166.606 2096.729h140v140h-140z" fill="#fff" stroke="#000" stroke-width="6.2537622"/>
	<path d="M1305.185 2096.729h140v140h-140z" stroke="#000" stroke-width="6.2537622"/>
	<path d="M1443.765 2096.729h140v140h-140z" stroke="#000" stroke-width="6.2537622"/>
	<path d="M1582.335 2096.729h140v140h-140z" fill="#fff" stroke="#000" stroke-width="6.2537622"/>
	<path d="M1720.915 2096.729h140v140h-140z" fill="#fff" stroke="#000" stroke-width="6.2537622"/>
	<path d="M1859.495 2096.729h140v140h-140z" fill="#fff" stroke="#000" stroke-width="6.2537622"/>
	<path d="M1998.065 2096.729h140v140h-140z" fill="#fff" stroke="#000" stroke-width="6.2537622"/>
	<path d="M2136.645 2096.729h140v140h-140z" fill="#fff" stroke="#000" stroke-width="6.2537622"/>
	<path d="M125.34 242.97h9.375v51.15h-9.375zM127.705 378.45c4.875 0 8.7 1.425 11.625 4.2 2.85 2.7 4.275 6.45 4.275 11.025 0 3.525-1.05 7.35-3.225 11.475-2.1 4.05-5.85 9.525-11.25 16.275h17.55v8.85h-33.15v-1.05c3.825-4.8 7.2-9.075 9.975-12.825 2.775-3.825 4.875-6.975 6.375-9.45 1.5-2.55 2.625-4.65 3.225-6.375.675-1.8.975-3.6.975-5.475 0-2.325-.75-4.35-2.25-5.925-1.5-1.575-3.3-2.4-5.475-2.4-3.9 0-7.875 2.175-12 6.6v-10.05c4.35-3.225 8.775-4.875 13.35-4.875ZM127.92 514.604c4.725 0 8.55 1.2 11.475 3.525 2.925 2.4 4.35 5.475 4.35 9.375 0 5.25-2.4 9.15-7.125 11.7 2.7.975 4.8 2.55 6.15 4.8 1.425 2.175 2.1 4.8 2.1 7.875 0 4.575-1.575 8.25-4.725 11.025-3.225 2.775-7.35 4.2-12.525 4.2-4.125 0-8.025-.975-11.775-2.925v-9c2.1 1.425 3.975 2.4 5.7 3 1.725.675 3.525.975 5.325.975 2.4 0 4.35-.675 5.85-2.025 1.575-1.35 2.325-3.15 2.325-5.325 0-2.4-.825-4.275-2.55-5.7-1.65-1.425-3.975-2.175-6.9-2.175h-.6v-7.95h.45c2.7 0 4.875-.6 6.375-1.8 1.575-1.2 2.325-2.85 2.325-4.875s-.75-3.675-2.25-4.875c-1.425-1.275-3.375-1.875-5.7-1.875-2.85 0-5.925.75-9.075 2.325v-8.025c3.225-1.5 6.825-2.25 10.8-2.25ZM143.577 650.759v29.85h4.35v7.5h-4.35v14.475h-9.375v-14.475h-20.925v-6l24.9-31.35h5.4Zm-9.6 15.525-11.325 14.325h11.55v-14.325h-.225ZM143.16 787.588v8.625h-16.2v11.025l.975-.075h.75c3.075 0 5.925.675 8.475 2.025 2.55 1.35 4.5 3.3 5.925 5.7 1.425 2.475 2.175 5.175 2.175 8.25 0 4.8-1.65 8.7-4.875 11.7-3.225 3.075-7.5 4.575-12.75 4.575-4.65 0-8.85-.975-12.45-2.925v-8.55c3.825 2.325 7.5 3.525 10.95 3.525 2.775 0 5.025-.75 6.825-2.325 1.875-1.5 2.775-3.45 2.775-5.775 0-2.625-1.05-4.725-3.15-6.15-2.1-1.5-4.95-2.25-8.55-2.25-1.725 0-3.6.225-5.7.675v-28.05h24.825ZM142.747 923.068c-2.7 2.25-5.775 5.625-9.075 10.05-3.3 4.5-5.625 8.4-7.05 11.7 1.875-.825 3.825-1.2 5.85-1.2 2.625 0 5.025.675 7.2 2.025 2.175 1.275 3.825 3.15 5.025 5.475 1.2 2.4 1.8 5.025 1.8 7.875 0 3.075-.75 5.85-2.1 8.4-1.425 2.55-3.375 4.5-5.925 6-2.475 1.425-5.175 2.175-8.1 2.175-4.95 0-9-1.725-12.075-5.025-3.075-3.375-4.65-7.725-4.65-13.125 0-5.325 1.575-11.1 4.8-17.175 3.225-6.075 7.575-11.85 13.125-17.175h11.175Zm-19.575 35.925c0 2.4.675 4.35 2.025 5.85 1.275 1.575 3 2.325 5.1 2.325 2.025 0 3.75-.75 5.025-2.175 1.2-1.425 1.875-3.375 1.875-5.775 0-2.25-.675-4.125-1.95-5.55-1.35-1.5-3-2.25-5.1-2.25-2.025 0-3.675.75-4.95 2.175-1.35 1.425-2.025 3.225-2.025 5.4ZM146.193 1059.897v.3l-20.625 51.525-8.625-3.225 16.125-39.825h-20.4v-8.775h33.525ZM130.059 1195.377c4.575 0 8.325 1.35 11.175 3.975 2.925 2.7 4.35 6.15 4.35 10.35 0 4.65-2.1 8.25-6.3 10.875 2.625 1.425 4.575 3.15 5.7 5.175 1.2 2.025 1.8 4.425 1.8 7.2 0 2.85-.75 5.4-2.175 7.65-1.425 2.325-3.45 4.05-6 5.325-2.55 1.275-5.4 1.95-8.55 1.95-4.875 0-8.925-1.425-12.075-4.2-3.15-2.775-4.725-6.375-4.725-10.725 0-2.925.6-5.325 1.875-7.35 1.275-2.025 3.15-3.675 5.625-5.025-4.2-2.625-6.3-6.3-6.3-10.95 0-4.2 1.5-7.65 4.35-10.275 2.925-2.625 6.675-3.975 11.25-3.975Zm-6.225 14.475c0 2.175.6 3.975 1.8 5.4 1.125 1.425 2.625 2.1 4.425 2.1 1.8 0 3.225-.75 4.425-2.175 1.125-1.425 1.725-3.225 1.725-5.325 0-2.25-.525-3.975-1.65-5.25-1.125-1.35-2.625-1.95-4.5-1.95s-3.375.6-4.5 1.875-1.725 3.075-1.725 5.325Zm-1.05 22.65c0 2.55.675 4.5 1.95 5.925 1.35 1.5 3.15 2.175 5.325 2.175 2.25 0 3.975-.75 5.25-2.175 1.275-1.425 1.95-3.375 1.95-5.775 0-2.4-.675-4.35-2.025-5.85-1.275-1.575-3-2.325-5.1-2.325-2.175 0-3.975.675-5.325 2.175-1.35 1.425-2.025 3.375-2.025 5.85ZM129.705 1331.535c3.225 0 6.15.75 8.7 2.25 2.55 1.575 4.575 3.675 5.925 6.45 1.425 2.7 2.1 5.85 2.1 9.45 0 5.325-1.65 11.175-4.875 17.4-3.3 6.225-7.65 11.85-13.05 16.95H117.33c2.925-2.55 6-5.925 9.225-10.275 3.3-4.35 5.55-8.175 6.9-11.475-1.8.825-3.75 1.2-5.85 1.2-4.05 0-7.425-1.425-10.05-4.35-2.625-2.925-3.975-6.6-3.975-11.1 0-3 .675-5.775 2.1-8.25 1.35-2.55 3.3-4.575 5.775-6 2.55-1.5 5.25-2.25 8.25-2.25Zm-6.825 16.35c0 2.25.675 4.125 1.95 5.625 1.275 1.425 3 2.175 5.1 2.175 2.025 0 3.675-.75 5.025-2.25 1.275-1.425 1.95-3.225 1.95-5.25 0-2.475-.675-4.425-2.025-6-1.275-1.5-3-2.25-5.175-2.25-2.025 0-3.675.75-4.95 2.175-1.275 1.5-1.875 3.375-1.875 5.775ZM96.428 1468.36h9.375v51.15h-9.375zM140.816 1467.685c5.175 0 9.3 2.325 12.3 6.975 3.075 4.725 4.575 11.025 4.575 19.125 0 8.175-1.5 14.625-4.5 19.35-3 4.65-7.125 7.05-12.3 7.05-5.25 0-9.45-2.325-12.525-7.05-3-4.65-4.575-11.025-4.575-19.2 0-8.1 1.5-14.475 4.575-19.2s7.2-7.05 12.45-7.05Zm-7.5 26.55c0 11.7 2.475 17.55 7.5 17.55 4.875 0 7.35-6.15 7.35-18.45 0-11.475-2.475-17.25-7.425-17.25-4.95 0-7.425 6.075-7.425 18.15ZM101.547 1604.52h9.375v51.15h-9.375zM141.135 1604.52h9.375v51.15h-9.375zM96.835 1740.67h9.375v51.15h-9.375zM138.598 1739.995c4.875 0 8.7 1.425 11.625 4.2 2.85 2.7 4.275 6.45 4.275 11.025 0 3.525-1.05 7.35-3.225 11.475-2.1 4.05-5.85 9.525-11.25 16.275h17.55v8.85h-33.15v-1.05c3.825-4.8 7.2-9.075 9.975-12.825 2.775-3.825 4.875-6.975 6.375-9.45 1.5-2.55 2.625-4.65 3.225-6.375.675-1.8.975-3.6.975-5.475 0-2.325-.75-4.35-2.25-5.925-1.5-1.575-3.3-2.4-5.475-2.4-3.9 0-7.875 2.175-12 6.6v-10.05c4.35-3.225 8.775-4.875 13.35-4.875ZM98.762 1876.82h9.375v51.15h-9.375zM139.925 1876.145c4.725 0 8.55 1.2 11.475 3.525 2.925 2.4 4.35 5.475 4.35 9.375 0 5.25-2.4 9.15-7.125 11.7 2.7.975 4.8 2.55 6.15 4.8 1.425 2.175 2.1 4.8 2.1 7.875 0 4.575-1.575 8.25-4.725 11.025-3.225 2.775-7.35 4.2-12.525 4.2-4.125 0-8.025-.975-11.775-2.925v-9c2.1 1.425 3.975 2.4 5.7 3 1.725.675 3.525.975 5.325.975 2.4 0 4.35-.675 5.85-2.025 1.575-1.35 2.325-3.15 2.325-5.325 0-2.4-.825-4.275-2.55-5.7-1.65-1.425-3.975-2.175-6.9-2.175h-.6v-7.95h.45c2.7 0 4.875-.6 6.375-1.8 1.575-1.2 2.325-2.85 2.325-4.875s-.75-3.675-2.25-4.875c-1.425-1.275-3.375-1.875-5.7-1.875-2.85 0-5.925.75-9.075 2.325v-8.025c3.225-1.5 6.825-2.25 10.8-2.25ZM97.053 2012.98h9.375v51.15h-9.375zM153.14 2012.305v29.85h4.35v7.5h-4.35v14.475h-9.375v-14.475H122.84v-6l24.9-31.35h5.4Zm-9.6 15.525-11.325 14.325h11.55v-14.325h-.225ZM98.165 2149.13h9.375v51.15h-9.375zM155.003 2149.13v8.625h-16.2v11.025l.975-.075h.75c3.075 0 5.925.675 8.475 2.025 2.55 1.35 4.5 3.3 5.925 5.7 1.425 2.475 2.175 5.175 2.175 8.25 0 4.8-1.65 8.7-4.875 11.7-3.225 3.075-7.5 4.575-12.75 4.575-4.65 0-8.85-.975-12.45-2.925v-8.55c3.825 2.325 7.5 3.525 10.95 3.525 2.775 0 5.025-.75 6.825-2.325 1.875-1.5 2.775-3.45 2.775-5.775 0-2.625-1.05-4.725-3.15-6.15-2.1-1.5-4.95-2.25-8.55-2.25-1.725 0-3.6.225-5.7.675v-28.05h24.825ZM265.742 115.998h10.666v46.2h-10.666zM396.804 115.998h10.666v46.2h-10.666zM414.738 115.998h10.666v46.2h-10.666zM520.047 115.998h10.666v46.2h-10.666zM537.98 115.998h10.666v46.2H537.98zM555.913 115.998h10.666v46.2h-10.666zM662.36 115.998h10.667v46.2h-10.666zM712.36 115.998h-10.666l-7.134 37.8-7.733-37.8h-10.933l11.733 46.2h13.467l11.266-46.2ZM839.523 115.998h-10.666l-7.134 37.8-7.733-37.8h-10.933l11.733 46.2h13.467l11.266-46.2ZM971.778 115.998h-10.666l-7.134 37.8-7.733-37.8h-10.933l11.733 46.2h13.467l11.266-46.2ZM974.712 115.998h10.666v46.2h-10.666zM1101.54 115.998h-10.667l-7.134 37.8-7.733-37.8h-10.933l11.733 46.2h13.467l11.266-46.2ZM1104.473 115.998h10.666v46.2h-10.666zM1122.407 115.998h10.666v46.2h-10.666zM1228.233 115.998h-10.666l-7.134 37.8-7.733-37.8h-10.933l11.733 46.2h13.467l11.266-46.2ZM1231.167 115.998h10.666v46.2h-10.666zM1249.1 115.998h10.666v46.2H1249.1zM1267.033 115.998h10.666v46.2h-10.666zM1349.753 115.998h10.666v46.2h-10.666zM1387.82 137.265l10.933-21.267h-11.066l-6.134 15-5.733-15h-11.333l10.666 21.667-11.533 24.533h11.133l6.667-17.8 6.933 17.8h11.4l-11.933-24.933ZM1521.873 137.265l10.933-21.267h-11.066l-6.134 15-5.733-15h-11.333l10.666 21.667-11.533 24.533h11.133l6.667-17.8 6.933 17.8h11.4l-11.933-24.933ZM1645.556 137.265l10.933-21.267h-11.066l-6.134 15-5.733-15h-11.333l10.666 21.667-11.533 24.533h11.133l6.667-17.8 6.933 17.8h11.4l-11.933-24.933ZM1660.757 115.998h10.666v46.2h-10.666zM1767.52 137.265l10.933-21.267h-11.066l-6.134 15-5.733-15h-11.333l10.666 21.667-11.533 24.533h11.133l6.667-17.8 6.933 17.8h11.4l-11.933-24.933ZM1782.72 115.998h10.666v46.2h-10.666zM1800.653 115.998h10.666v46.2h-10.666zM1901.023 137.265l10.933-21.267h-11.066l-6.134 15-5.733-15h-11.333l10.666 21.667-11.533 24.533h11.133l6.667-17.8 6.933 17.8h11.4l-11.933-24.933ZM1916.223 115.998h10.666v46.2h-10.666zM1934.157 115.998h10.666v46.2h-10.666zM1952.09 115.998h10.666v46.2h-10.666zM2041.756 137.265l10.933-21.267h-11.066l-6.134 15-5.733-15h-11.333l10.666 21.667-11.533 24.533h11.133l6.667-17.8 6.933 17.8h11.4l-11.933-24.933ZM2056.957 115.998h10.666v46.2h-10.666zM2106.956 115.998h-10.666l-7.134 37.8-7.733-37.8h-10.933l11.733 46.2h13.467l11.266-46.2ZM2186.213 137.265l10.933-21.267h-11.066l-6.134 15-5.733-15h-11.333l10.666 21.667-11.533 24.533h11.133l6.667-17.8 6.933 17.8h11.4l-11.933-24.933Z" fill-rule="nonzero"/>
	<path d="M2233.48 115.998h-10.667l-7.134 37.8-7.733-37.8h-10.933l11.733 46.2h13.467l11.266-46.2ZM239.457 239.218l16.083 36.5 15.667-36.5h11.5L257.624 296.8h-3.834l-25.916-57.583h11.583ZM279.964 374.468v8.583h-25.75v14.917h24.667v8.583h-24.667v16.167h26.333v8.583h-37.333v-56.833h36.75ZM260.309 513.906c5.333 0 9.667 1.5 13.083 4.416 3.334 3 5 6.834 5 11.584 0 3.25-.833 6-2.5 8.416-1.666 2.417-4.166 4.334-7.416 5.667 1.833 1 3.416 2.333 4.833 4 1.417 1.667 3.167 4.5 5.25 8.5 3.5 6.917 6.083 11.667 7.75 14.25h-12.25c-.833-1.25-2-3.25-3.417-6-3.166-6-5.5-10.083-6.916-12.25-1.5-2.083-2.917-3.583-4.25-4.417-1.334-.916-2.917-1.333-4.667-1.333h-4v24h-11v-56.833h20.5Zm-2.5 24.25c2.917 0 5.167-.75 6.75-2.167 1.667-1.417 2.5-3.417 2.5-5.917 0-2.583-.833-4.5-2.417-5.833-1.666-1.25-4-1.917-7-1.917h-6.833v15.834h7ZM399.802 513.156c5.5 0 10.833 1.416 16 4.166v9.75c-5.917-3.583-11.083-5.333-15.667-5.333-2.75 0-4.916.583-6.5 1.583-1.583 1.084-2.333 2.5-2.333 4.334 0 2.166 1.417 4.083 4.333 5.916.834.584 4 2.084 9.417 4.584 4.667 2.166 8 4.666 10.083 7.333 2.084 2.667 3.084 5.917 3.084 9.667 0 4.916-1.75 8.833-5.25 11.833s-8.084 4.5-13.667 4.5c-3.667 0-6.75-.417-9.333-1.25-2.667-.75-5.584-2.167-8.834-4.083v-10.834c6.084 5 11.75 7.584 17.167 7.584 2.667 0 4.833-.584 6.5-1.75 1.667-1.167 2.5-2.75 2.5-4.667 0-2.583-1.417-4.75-4.333-6.417-2.417-1.333-5.5-2.833-9.25-4.666-4.5-2.084-7.834-4.417-10-7.167-2.25-2.667-3.334-5.833-3.334-9.417 0-4.75 1.75-8.583 5.334-11.416 3.583-2.834 8.25-4.25 14.083-4.25ZM702.808 513.906v8.583H682.64v48.25h-11v-48.25h-20.167v-8.583h51.334ZM835.274 513.906v8.583h-25.75v14.917h24.667v8.583h-24.667v16.167h26.333v8.583h-37.333v-56.833h36.75ZM955.466 513.156c5.5 0 10.833 1.416 16 4.166v9.75c-5.917-3.583-11.083-5.333-15.667-5.333-2.75 0-4.916.583-6.5 1.583-1.583 1.084-2.333 2.5-2.333 4.334 0 2.166 1.417 4.083 4.333 5.916.834.584 4 2.084 9.417 4.584 4.667 2.166 8 4.666 10.083 7.333 2.084 2.667 3.084 5.917 3.084 9.667 0 4.916-1.75 8.833-5.25 11.833s-8.084 4.5-13.667 4.5c-3.667 0-6.75-.417-9.333-1.25-2.667-.75-5.584-2.167-8.834-4.083v-10.834c6.084 5 11.75 7.584 17.167 7.584 2.667 0 4.833-.584 6.5-1.75 1.667-1.167 2.5-2.75 2.5-4.667 0-2.583-1.417-4.75-4.333-6.417-2.417-1.333-5.5-2.833-9.25-4.666-4.5-2.084-7.834-4.417-10-7.167-2.25-2.667-3.334-5.833-3.334-9.417 0-4.75 1.75-8.583 5.334-11.416 3.583-2.834 8.25-4.25 14.083-4.25ZM1119.556 513.906v8.583h-20.167v48.25h-11v-48.25h-20.167v-8.583h51.334ZM1237.6 513.906l25.083 56.833h-11.584l-5.916-13.833h-25.25l-5.5 13.833h-11.5l23.416-56.833h11.25Zm-14.334 34.666h18.333l-9.583-22.5-8.75 22.5ZM1353.097 513.906l18.666 22.416 18.667-22.416h9.833v56.833h-11v-39.917h-.333l-16.417 20h-1.583l-16.417-20h-.333v39.917h-11v-56.833h9.917ZM1529.856 513.906v8.583h-25.75v14.917h24.667v8.583h-24.667v16.167h26.333v8.583h-37.333v-56.833h36.75ZM1632.14 513.906l33.75 39.666v-39.666h10.75v56.833h-9.416l-34-40.333v40.333h-10.75v-56.833h9.667ZM1814.136 513.906v8.583h-20.167v48.25h-11v-48.25h-20.167v-8.583h51.334ZM2051.547 513.906v23.916h29.5v-23.916h11v56.833h-11v-24h-29.5v24h-11v-56.833h11ZM2199.716 513.906h11v56.833h-11zM261.23 648.04c5.5 0 10.833 1.417 16 4.167v9.75c-5.917-3.583-11.083-5.333-15.667-5.333-2.75 0-4.916.583-6.5 1.583-1.583 1.084-2.333 2.5-2.333 4.334 0 2.166 1.417 4.083 4.333 5.916.834.584 4 2.084 9.417 4.584 4.667 2.166 8 4.666 10.083 7.333 2.084 2.667 3.084 5.917 3.084 9.667 0 4.916-1.75 8.833-5.25 11.833s-8.084 4.5-13.667 4.5c-3.667 0-6.75-.417-9.333-1.25-2.667-.75-5.584-2.167-8.834-4.083v-10.834c6.084 5 11.75 7.584 17.167 7.584 2.667 0 4.833-.584 6.5-1.75 1.667-1.167 2.5-2.75 2.5-4.667 0-2.583-1.417-4.75-4.333-6.417-2.417-1.333-5.5-2.833-9.25-4.666-4.5-2.084-7.834-4.417-10-7.167-2.25-2.667-3.334-5.833-3.334-9.417 0-4.75 1.75-8.583 5.334-11.416 3.583-2.834 8.25-4.25 14.083-4.25ZM418.87 648.79v8.584h-25.75v14.917h24.667v8.583H393.12v16.167h26.333v8.583H382.12v-56.833h36.75ZM544.44 648.04c3.25 0 6.416.334 9.5 1.084 3.083.75 6.416 2 10 3.75v10.333c-3.5-2-6.75-3.416-9.667-4.333-3-.917-6.084-1.333-9.334-1.333-4.083 0-7.666.833-10.916 2.5-3.25 1.666-5.834 4-7.584 7.083-1.833 3-2.75 6.417-2.75 10.083 0 3.834.917 7.25 2.667 10.25 1.833 3 4.333 5.334 7.583 6.917 3.25 1.667 6.917 2.5 11 2.5 3.084 0 6.084-.417 8.917-1.333 2.833-.917 6.417-2.5 10.75-4.834v10.334c-3.667 1.916-7.083 3.25-10.167 4.083-3.083.833-6.75 1.25-10.833 1.25-6 0-11.333-1.25-16.083-3.583-4.75-2.417-8.417-5.834-11.167-10.334-2.667-4.5-4-9.416-4-14.75 0-5.75 1.417-10.833 4.167-15.416 2.75-4.584 6.583-8.084 11.5-10.5 4.833-2.5 10.333-3.75 16.416-3.75ZM682.273 648.79l25.084 56.834h-11.584l-5.916-13.833h-25.25l-5.5 13.833h-11.5l23.416-56.833h11.25Zm-14.333 34.667h18.333l-9.583-22.5-8.75 22.5ZM798.993 648.79l33.75 39.667v-39.666h10.75v56.833h-9.417l-34-40.333v40.333h-10.75v-56.833h9.667ZM980.984 648.79v8.584h-20.167v48.25h-11v-48.25H929.65v-8.583h51.334ZM1233.065 648.79c5.333 0 9.667 1.5 13.083 4.417 3.334 3 5 6.834 5 11.584 0 3.25-.833 6-2.5 8.416-1.666 2.417-4.166 4.334-7.416 5.667 1.833 1 3.416 2.333 4.833 4 1.417 1.667 3.167 4.5 5.25 8.5 3.5 6.917 6.083 11.667 7.75 14.25h-12.25c-.833-1.25-2-3.25-3.417-6-3.166-6-5.5-10.083-6.916-12.25-1.5-2.083-2.917-3.583-4.25-4.417-1.334-.916-2.917-1.333-4.667-1.333h-4v24h-11v-56.833h20.5Zm-2.5 24.25c2.917 0 5.167-.75 6.75-2.166 1.667-1.417 2.5-3.417 2.5-5.917 0-2.583-.833-4.5-2.417-5.833-1.666-1.25-4-1.917-7-1.917h-6.833v15.834h7ZM1505.179 648.79v48.25h27.583v8.584h-38.583v-56.833h11ZM1669.116 648.79v8.584h-25.75v14.917h24.667v8.583h-24.667v16.167h26.333v8.583h-37.333v-56.833h36.75ZM1793.6 648.79l25.083 56.834h-11.584l-5.916-13.833h-25.25l-5.5 13.833h-11.5l23.416-56.833h11.25Zm-14.334 34.667h18.333l-9.583-22.5-8.75 22.5ZM1911.898 648.79l16.083 36.5 15.667-36.5h11.5l-25.083 57.584h-3.834l-25.916-57.583h11.583ZM2085.866 648.79v8.584h-25.75v14.917h24.667v8.583h-24.667v16.167h26.333v8.583h-37.333v-56.833h36.75ZM2188.152 648.79l33.75 39.667v-39.666h10.75v56.833h-9.417l-34-40.333v40.333h-10.75v-56.833h9.667ZM286.747 783.677v8.583H266.58v48.25h-11v-48.25h-20.167v-8.583h51.334ZM399.912 783.677c5.333 0 9.667 1.5 13.083 4.416 3.334 3 5 6.834 5 11.584 0 3.25-.833 6-2.5 8.416-1.666 2.417-4.166 4.334-7.416 5.667 1.833 1 3.416 2.333 4.833 4 1.417 1.667 3.167 4.5 5.25 8.5 3.5 6.917 6.083 11.667 7.75 14.25h-12.25c-.833-1.25-2-3.25-3.417-6-3.166-6-5.5-10.083-6.916-12.25-1.5-2.083-2.917-3.583-4.25-4.417-1.334-.916-2.917-1.333-4.667-1.333h-4v24h-11v-56.833h20.5Zm-2.5 24.25c2.917 0 5.167-.75 6.75-2.167 1.667-1.417 2.5-3.417 2.5-5.917 0-2.583-.833-4.5-2.417-5.833-1.666-1.25-4-1.917-7-1.917h-6.833v15.834h7ZM543.702 783.677l25.084 56.833h-11.584l-5.916-13.833h-25.25l-5.5 13.833h-11.5l23.416-56.833h11.25Zm-14.333 34.666h18.333l-9.583-22.5-8.75 22.5ZM660.42 783.677l33.75 39.666v-39.666h10.75v56.833h-9.416l-34-40.333v40.333h-10.75v-56.833h9.667ZM817.237 782.927c5.5 0 10.833 1.416 16 4.166v9.75c-5.917-3.583-11.083-5.333-15.667-5.333-2.75 0-4.916.583-6.5 1.583-1.583 1.084-2.333 2.5-2.333 4.334 0 2.166 1.417 4.083 4.333 5.916.834.584 4 2.084 9.417 4.584 4.667 2.166 8 4.666 10.083 7.333 2.084 2.667 3.084 5.917 3.084 9.667 0 4.916-1.75 8.833-5.25 11.833s-8.084 4.5-13.667 4.5c-3.667 0-6.75-.417-9.333-1.25-2.667-.75-5.584-2.167-8.834-4.083v-10.834c6.084 5 11.75 7.584 17.167 7.584 2.667 0 4.833-.584 6.5-1.75 1.667-1.167 2.5-2.75 2.5-4.667 0-2.583-1.417-4.75-4.333-6.417-2.417-1.333-5.5-2.833-9.25-4.666-4.5-2.084-7.834-4.417-10-7.167-2.25-2.667-3.334-5.833-3.334-9.417 0-4.75 1.75-8.583 5.334-11.416 3.583-2.834 8.25-4.25 14.083-4.25ZM1227.689 783.677v48.25h27.583v8.583h-38.583v-56.833h11ZM1650.732 782.927c5.5 0 10.833 1.416 16 4.166v9.75c-5.917-3.583-11.083-5.333-15.667-5.333-2.75 0-4.916.583-6.5 1.583-1.583 1.084-2.333 2.5-2.333 4.334 0 2.166 1.417 4.083 4.333 5.916.834.584 4 2.084 9.417 4.584 4.667 2.166 8 4.666 10.083 7.333 2.084 2.667 3.084 5.917 3.084 9.667 0 4.916-1.75 8.833-5.25 11.833s-8.084 4.5-13.667 4.5c-3.667 0-6.75-.417-9.333-1.25-2.667-.75-5.584-2.167-8.834-4.083v-10.834c6.084 5 11.75 7.584 17.167 7.584 2.667 0 4.833-.584 6.5-1.75 1.667-1.167 2.5-2.75 2.5-4.667 0-2.583-1.417-4.75-4.333-6.417-2.417-1.333-5.5-2.833-9.25-4.666-4.5-2.084-7.834-4.417-10-7.167-2.25-2.667-3.334-5.833-3.334-9.417 0-4.75 1.75-8.583 5.334-11.416 3.583-2.834 8.25-4.25 14.083-4.25ZM1795.03 782.927c3.25 0 6.417.333 9.5 1.083 3.084.75 6.417 2 10 3.75v10.333c-3.5-2-6.75-3.416-9.666-4.333-3-.917-6.084-1.333-9.334-1.333-4.083 0-7.666.833-10.916 2.5-3.25 1.666-5.834 4-7.584 7.083-1.833 3-2.75 6.417-2.75 10.083 0 3.834.917 7.25 2.667 10.25 1.833 3 4.333 5.334 7.583 6.917 3.25 1.667 6.917 2.5 11 2.5 3.084 0 6.084-.417 8.917-1.333 2.833-.917 6.417-2.5 10.75-4.834v10.334c-3.667 1.916-7.083 3.25-10.167 4.083-3.083.833-6.75 1.25-10.833 1.25-6 0-11.333-1.25-16.083-3.583-4.75-2.417-8.417-5.834-11.167-10.334-2.667-4.5-4-9.416-4-14.75 0-5.75 1.417-10.833 4.167-15.416 2.75-4.584 6.583-8.084 11.5-10.5 4.833-2.5 10.333-3.75 16.416-3.75ZM1947.286 783.677v8.583h-25.75v14.917h24.667v8.583h-24.667v16.167h26.333v8.583h-37.333v-56.833h36.75ZM2049.58 783.677l33.75 39.666v-39.666h10.75v56.833h-9.416l-34-40.333v40.333h-10.75v-56.833h9.667ZM2231.576 783.677v8.583h-20.167v48.25h-11v-48.25h-20.167v-8.583h51.334ZM426.007 918.562v8.583H405.84v48.25h-11v-48.25h-20.167v-8.583h51.334ZM521.848 918.562l33.75 39.666v-39.666h10.75v56.833h-9.417l-34-40.333v40.333h-10.75v-56.833h9.667ZM682.962 918.562l25.084 56.833h-11.584l-5.916-13.833h-25.25l-5.5 13.833h-11.5l23.416-56.833h11.25Zm-14.333 34.666h18.333l-9.583-22.5-8.75 22.5ZM1095.413 917.812c5.5 0 10.833 1.416 16 4.166v9.75c-5.917-3.583-11.083-5.333-15.667-5.333-2.75 0-4.916.583-6.5 1.583-1.583 1.084-2.333 2.5-2.333 4.334 0 2.166 1.417 4.083 4.333 5.916.834.584 4 2.084 9.417 4.584 4.667 2.166 8 4.666 10.083 7.333 2.084 2.667 3.084 5.917 3.084 9.667 0 4.916-1.75 8.833-5.25 11.833s-8.084 4.5-13.667 4.5c-3.667 0-6.75-.417-9.333-1.25-2.667-.75-5.584-2.167-8.834-4.083v-10.834c6.084 5 11.75 7.584 17.167 7.584 2.667 0 4.833-.584 6.5-1.75 1.667-1.167 2.5-2.75 2.5-4.667 0-2.583-1.417-4.75-4.333-6.417-2.417-1.333-5.5-2.833-9.25-4.666-4.5-2.084-7.834-4.417-10-7.167-2.25-2.667-3.334-5.833-3.334-9.417 0-4.75 1.75-8.583 5.334-11.416 3.583-2.834 8.25-4.25 14.083-4.25ZM1253.056 918.562v8.583h-25.75v14.917h24.667v8.583h-24.667v16.167h26.333v8.583h-37.333v-56.833h36.75ZM1377.074 917.812c7 0 13.917 1.583 20.834 4.666v10.084c-6.917-3.5-13.667-5.25-20.334-5.25-4.166 0-7.833.833-11.083 2.5-3.25 1.583-5.75 4-7.5 7.083-1.75 3.167-2.667 6.583-2.667 10.417 0 5.833 1.917 10.5 5.834 14 3.833 3.583 8.916 5.333 15.25 5.333 1.75 0 3.416-.167 5-.417 1.583-.333 3.5-.916 5.666-1.75v-9.416h-9.416v-8.584h20.416v23.417c-2.833 2-6.166 3.5-10.083 4.583a45.758 45.758 0 0 1-12.25 1.667c-6 0-11.417-1.25-16.25-3.75-4.917-2.417-8.667-5.917-11.417-10.333-2.75-4.5-4.083-9.417-4.083-14.917 0-5.583 1.333-10.583 4.083-15.083s6.667-8 11.584-10.5c4.916-2.5 10.416-3.75 16.416-3.75ZM1815.166 918.562v8.583h-20.167v48.25h-11v-48.25h-20.167v-8.583h51.334ZM1928.335 918.562c5.333 0 9.667 1.5 13.083 4.416 3.334 3 5 6.834 5 11.584 0 3.25-.833 6-2.5 8.416-1.666 2.417-4.166 4.334-7.416 5.667 1.833 1 3.416 2.333 4.833 4 1.417 1.667 3.167 4.5 5.25 8.5 3.5 6.917 6.083 11.667 7.75 14.25h-12.25c-.833-1.25-2-3.25-3.417-6-3.166-6-5.5-10.083-6.916-12.25-1.5-2.083-2.917-3.583-4.25-4.417-1.334-.916-2.917-1.333-4.667-1.333h-4v24h-11v-56.833h20.5Zm-2.5 24.25c2.917 0 5.167-.75 6.75-2.167 1.667-1.417 2.5-3.417 2.5-5.917 0-2.583-.833-4.5-2.417-5.833-1.666-1.25-4-1.917-7-1.917h-6.833v15.834h7ZM2086.546 918.562v8.583h-25.75v14.917h24.667v8.583h-24.667v16.167h26.333v8.583h-37.333v-56.833h36.75ZM565.267 1053.448v8.583H545.1v48.25h-11v-48.25h-20.167v-8.583h51.334ZM950.845 1053.448h11v56.833h-11zM1101.135 1052.698c3.25 0 6.417.333 9.5 1.083 3.084.75 6.417 2 10 3.75v10.333c-3.5-2-6.75-3.416-9.666-4.333-3-.917-6.084-1.333-9.334-1.333-4.083 0-7.666.833-10.916 2.5-3.25 1.666-5.834 4-7.584 7.083-1.833 3-2.75 6.417-2.75 10.083 0 3.834.917 7.25 2.667 10.25 1.833 3 4.333 5.334 7.583 6.917 3.25 1.667 6.917 2.5 11 2.5 3.084 0 6.084-.417 8.917-1.333 2.833-.917 6.417-2.5 10.75-4.834v10.334c-3.667 1.916-7.083 3.25-10.167 4.083-3.083.833-6.75 1.25-10.833 1.25-6 0-11.333-1.25-16.083-3.583-4.75-2.417-8.417-5.834-11.167-10.334-2.667-4.5-4-9.416-4-14.75 0-5.75 1.417-10.833 4.167-15.416 2.75-4.584 6.583-8.084 11.5-10.5 4.833-2.5 10.333-3.75 16.416-3.75ZM1259.846 1053.448v8.583h-20.167v48.25h-11v-48.25h-20.167v-8.583h51.334ZM1358.133 1053.448v33.083c0 3.417.5 6.083 1.5 8.083 1.084 2 2.75 3.667 5 5 2.334 1.25 5 1.917 8.084 1.917 3.333 0 6.25-.583 8.583-1.833s4-2.917 5.167-5.084c1.083-2.083 1.583-5.083 1.583-8.833v-32.333h11v33.75c0 7.666-2.333 13.5-6.917 17.666-4.583 4.084-11 6.167-19.416 6.167-5.25 0-9.834-.917-13.667-2.833-3.917-1.834-6.833-4.584-8.917-8.084-2-3.583-3-7.75-3-12.5v-34.166h11ZM1512.502 1052.698c5.5 0 10.833 1.416 16 4.166v9.75c-5.917-3.583-11.083-5.333-15.667-5.333-2.75 0-4.916.583-6.5 1.583-1.583 1.084-2.333 2.5-2.333 4.334 0 2.166 1.417 4.083 4.333 5.916.834.584 4 2.084 9.417 4.584 4.667 2.166 8 4.666 10.083 7.333 2.084 2.667 3.084 5.917 3.084 9.667 0 4.916-1.75 8.833-5.25 11.833s-8.084 4.5-13.667 4.5c-3.667 0-6.75-.417-9.333-1.25-2.667-.75-5.584-2.167-8.834-4.083v-10.834c6.084 5 11.75 7.584 17.167 7.584 2.667 0 4.833-.584 6.5-1.75 1.667-1.167 2.5-2.75 2.5-4.667 0-2.583-1.417-4.75-4.333-6.417-2.417-1.333-5.5-2.833-9.25-4.666-4.5-2.084-7.834-4.417-10-7.167-2.25-2.667-3.334-5.833-3.334-9.417 0-4.75 1.75-8.583 5.334-11.416 3.583-2.834 8.25-4.25 14.083-4.25ZM1929.252 1052.698c5.5 0 10.833 1.416 16 4.166v9.75c-5.917-3.583-11.083-5.333-15.667-5.333-2.75 0-4.916.583-6.5 1.583-1.583 1.084-2.333 2.5-2.333 4.334 0 2.166 1.417 4.083 4.333 5.916.834.584 4 2.084 9.417 4.584 4.667 2.166 8 4.666 10.083 7.333 2.084 2.667 3.084 5.917 3.084 9.667 0 4.916-1.75 8.833-5.25 11.833s-8.084 4.5-13.667 4.5c-3.667 0-6.75-.417-9.333-1.25-2.667-.75-5.584-2.167-8.834-4.083v-10.834c6.084 5 11.75 7.584 17.167 7.584 2.667 0 4.833-.584 6.5-1.75 1.667-1.167 2.5-2.75 2.5-4.667 0-2.583-1.417-4.75-4.333-6.417-2.417-1.333-5.5-2.833-9.25-4.666-4.5-2.084-7.834-4.417-10-7.167-2.25-2.667-3.334-5.833-3.334-9.417 0-4.75 1.75-8.583 5.334-11.416 3.583-2.834 8.25-4.25 14.083-4.25ZM262.604 1187.583c5.5 0 10.833 1.416 16 4.166v9.75c-5.917-3.583-11.083-5.333-15.667-5.333-2.75 0-4.916.583-6.5 1.583-1.583 1.084-2.333 2.5-2.333 4.334 0 2.166 1.417 4.083 4.333 5.916.834.584 4 2.084 9.417 4.584 4.667 2.166 8 4.666 10.083 7.333 2.084 2.667 3.084 5.917 3.084 9.667 0 4.916-1.75 8.833-5.25 11.833s-8.084 4.5-13.667 4.5c-3.667 0-6.75-.417-9.333-1.25-2.667-.75-5.584-2.167-8.834-4.083v-10.834c6.084 5 11.75 7.584 17.167 7.584 2.667 0 4.833-.584 6.5-1.75 1.667-1.167 2.5-2.75 2.5-4.667 0-2.583-1.417-4.75-4.333-6.417-2.417-1.333-5.5-2.833-9.25-4.666-4.5-2.084-7.834-4.417-10-7.167-2.25-2.667-3.334-5.833-3.334-9.417 0-4.75 1.75-8.583 5.334-11.416 3.583-2.834 8.25-4.25 14.083-4.25ZM404.945 1188.333c5.333 0 9.667 1.5 12.917 4.583 3.333 3.083 5 7.083 5 11.917 0 4.916-1.667 8.916-5 11.916-3.417 3.084-7.834 4.584-13.334 4.584h-10.583v23.833h-11v-56.833h22Zm-2.75 24.416c2.917 0 5.25-.666 6.833-2 1.667-1.333 2.5-3.333 2.5-6 0-5.25-3.333-7.833-10.083-7.833h-7.5v15.833h8.25ZM534.44 1188.333h11v56.833h-11zM661.45 1188.333l33.75 39.666v-39.666h10.75v56.833h-9.416l-34-40.333v40.333h-10.75v-56.833h9.667ZM817.813 1187.583c5.833 0 11.166 1.25 15.833 3.666 4.75 2.417 8.5 5.917 11.25 10.5 2.833 4.584 4.25 9.584 4.25 15 0 5.334-1.417 10.25-4.083 14.834-2.75 4.5-6.5 8.083-11.25 10.583s-10.167 3.75-16.084 3.75c-5.916 0-11.25-1.333-16.083-3.833-4.833-2.584-8.583-6.084-11.25-10.5-2.667-4.5-4-9.417-4-14.834 0-5.166 1.333-10.083 4-14.666 2.667-4.584 6.417-8.167 11.083-10.667 4.75-2.583 10.167-3.833 16.334-3.833Zm-20.084 29.166c0 3.75.834 7.167 2.584 10.167 1.666 3 4.083 5.333 7.166 7 3 1.667 6.5 2.5 10.334 2.5 5.833 0 10.583-1.833 14.333-5.5s5.667-8.333 5.667-14.167c0-3.75-.834-7.166-2.5-10.166-1.75-3-4.084-5.417-7.167-7-3.083-1.667-6.583-2.5-10.417-2.5-3.833 0-7.333.833-10.416 2.5-3.084 1.666-5.417 4-7.084 7-1.666 3-2.5 6.416-2.5 10.166ZM982.064 1188.333l-33.083 48.25h33.25v8.583h-52.167l33.083-48.25h-31.083v-8.583h50ZM1100.398 1188.333l25.084 56.833h-11.584l-5.916-13.833h-25.25l-5.5 13.833h-11.5l23.416-56.833h11.25Zm-14.333 34.666h18.333l-9.583-22.5-8.75 22.5ZM1378.23 1188.333l25.083 56.833h-11.584l-5.916-13.833h-25.25l-5.5 13.833h-11.5l23.416-56.833h11.25Zm-14.334 34.666h18.333l-9.583-22.5-8.75 22.5ZM1497.393 1188.333v33.083c0 3.417.5 6.083 1.5 8.083 1.084 2 2.75 3.667 5 5 2.334 1.25 5 1.917 8.084 1.917 3.333 0 6.25-.583 8.583-1.833s4-2.917 5.167-5.084c1.083-2.083 1.583-5.083 1.583-8.833v-32.333h11v33.75c0 7.666-2.333 13.5-6.917 17.666-4.583 4.084-11 6.167-19.416 6.167-5.25 0-9.834-.917-13.667-2.833-3.917-1.834-6.833-4.584-8.917-8.084-2-3.583-3-7.75-3-12.5v-34.166h11ZM1657.14 1187.583c3.25 0 6.417.333 9.5 1.083 3.084.75 6.417 2 10 3.75v10.333c-3.5-2-6.75-3.416-9.666-4.333-3-.917-6.084-1.333-9.334-1.333-4.083 0-7.666.833-10.916 2.5-3.25 1.666-5.834 4-7.584 7.083-1.833 3-2.75 6.417-2.75 10.083 0 3.834.917 7.25 2.667 10.25 1.833 3 4.333 5.334 7.583 6.917 3.25 1.667 6.917 2.5 11 2.5 3.084 0 6.084-.417 8.917-1.333 2.833-.917 6.417-2.5 10.75-4.834v10.334c-3.667 1.916-7.083 3.25-10.167 4.083-3.083.833-6.75 1.25-10.833 1.25-6 0-11.333-1.25-16.083-3.583-4.75-2.417-8.417-5.834-11.167-10.334-2.667-4.5-4-9.416-4-14.75 0-5.75 1.417-10.833 4.167-15.416 2.75-4.584 6.583-8.084 11.5-10.5 4.833-2.5 10.333-3.75 16.416-3.75ZM1815.856 1188.333v8.583h-20.167v48.25h-11v-48.25h-20.167v-8.583h51.334ZM1923.596 1188.333h11v56.833h-11zM2068.057 1187.583c5.833 0 11.166 1.25 15.833 3.666 4.75 2.417 8.5 5.917 11.25 10.5 2.833 4.584 4.25 9.584 4.25 15 0 5.334-1.417 10.25-4.083 14.834-2.75 4.5-6.5 8.083-11.25 10.583s-10.167 3.75-16.084 3.75c-5.916 0-11.25-1.333-16.083-3.833-4.833-2.584-8.583-6.084-11.25-10.5-2.667-4.5-4-9.417-4-14.834 0-5.166 1.333-10.083 4-14.666 2.667-4.584 6.417-8.167 11.083-10.667 4.75-2.583 10.167-3.833 16.334-3.833Zm-20.084 29.166c0 3.75.834 7.167 2.584 10.167 1.666 3 4.083 5.333 7.166 7 3 1.667 6.5 2.5 10.334 2.5 5.833 0 10.583-1.833 14.333-5.5s5.667-8.333 5.667-14.167c0-3.75-.834-7.166-2.5-10.166-1.75-3-4.084-5.417-7.167-7-3.083-1.667-6.583-2.5-10.417-2.5-3.833 0-7.333.833-10.416 2.5-3.084 1.666-5.417 4-7.084 7-1.666 3-2.5 6.416-2.5 10.166ZM2189.53 1188.333l33.75 39.666v-39.666h10.75v56.833h-9.416l-34-40.333v40.333h-10.75v-56.833h9.667ZM546.158 1322.472c3.25 0 6.417.333 9.5 1.083 3.084.75 6.417 2 10 3.75v10.333c-3.5-2-6.75-3.416-9.666-4.333-3-.917-6.084-1.333-9.334-1.333-4.083 0-7.666.833-10.916 2.5-3.25 1.666-5.834 4-7.584 7.083-1.833 3-2.75 6.417-2.75 10.083 0 3.834.917 7.25 2.667 10.25 1.833 3 4.333 5.334 7.583 6.917 3.25 1.667 6.917 2.5 11 2.5 3.084 0 6.084-.417 8.917-1.333 2.833-.917 6.417-2.5 10.75-4.834v10.334c-3.667 1.916-7.083 3.25-10.167 4.083-3.083.833-6.75 1.25-10.833 1.25-6 0-11.333-1.25-16.083-3.583-4.75-2.417-8.417-5.834-11.167-10.334-2.667-4.5-4-9.416-4-14.75 0-5.75 1.417-10.833 4.167-15.416 2.75-4.584 6.583-8.084 11.5-10.5 4.833-2.5 10.333-3.75 16.416-3.75ZM976.252 1323.222v8.583h-25.75v14.917h24.667v8.583h-24.667v16.167h26.333v8.583h-37.333v-56.833h36.75ZM1090.15 1323.222v48.25h27.583v8.583h-38.583v-56.833h11ZM1239.66 1323.222l25.083 56.833h-11.584l-5.916-13.833h-25.25l-5.5 13.833h-11.5l23.416-56.833h11.25Zm-14.334 34.666h18.333l-9.583-22.5-8.75 22.5ZM1356.37 1323.222l33.75 39.666v-39.666h10.75v56.833h-9.416l-34-40.333v40.333h-10.75v-56.833h9.667ZM1510.577 1323.222c5.917 0 11.167 1.166 15.75 3.583 4.667 2.417 8.25 5.833 10.75 10.167 2.584 4.416 3.834 9.333 3.834 14.75 0 5.583-1.25 10.5-3.834 14.833-2.583 4.25-6.25 7.583-10.916 10-4.75 2.333-10.167 3.5-16.25 3.5h-23.167v-56.833h23.833Zm-1.166 48.25c6.083 0 11-1.834 14.666-5.5 3.667-3.584 5.5-8.417 5.5-14.334 0-6.083-1.833-10.916-5.583-14.5-3.667-3.583-8.667-5.333-14.917-5.333h-11.333v39.667h11.667ZM1935.32 1322.472c3.25 0 6.417.333 9.5 1.083 3.084.75 6.417 2 10 3.75v10.333c-3.5-2-6.75-3.416-9.666-4.333-3-.917-6.084-1.333-9.334-1.333-4.083 0-7.666.833-10.916 2.5-3.25 1.666-5.834 4-7.584 7.083-1.833 3-2.75 6.417-2.75 10.083 0 3.834.917 7.25 2.667 10.25 1.833 3 4.333 5.334 7.583 6.917 3.25 1.667 6.917 2.5 11 2.5 3.084 0 6.084-.417 8.917-1.333 2.833-.917 6.417-2.5 10.75-4.834v10.334c-3.667 1.916-7.083 3.25-10.167 4.083-3.083.833-6.75 1.25-10.833 1.25-6 0-11.333-1.25-16.083-3.583-4.75-2.417-8.417-5.834-11.167-10.334-2.667-4.5-4-9.416-4-14.75 0-5.75 1.417-10.833 4.167-15.416 2.75-4.584 6.583-8.084 11.5-10.5 4.833-2.5 10.333-3.75 16.416-3.75ZM406.505 1458.102l25.084 56.833h-11.584l-5.916-13.833h-25.25l-5.5 13.833h-11.5l23.416-56.833h11.25Zm-14.333 34.666h18.333l-9.583-22.5-8.75 22.5ZM534.83 1458.102v48.25h27.583v8.583H523.83v-56.833h11ZM705.214 1458.102v8.583h-20.167v48.25h-11v-48.25H653.88v-8.583h51.334ZM1101.085 1458.102l25.084 56.833h-11.584l-5.916-13.833h-25.25l-5.5 13.833h-11.5l23.416-56.833h11.25Zm-14.333 34.666h18.333l-9.583-22.5-8.75 22.5ZM1233.087 1458.102c5.917 0 11.167 1.166 15.75 3.583 4.667 2.417 8.25 5.833 10.75 10.167 2.584 4.416 3.834 9.333 3.834 14.75 0 5.583-1.25 10.5-3.834 14.833-2.583 4.25-6.25 7.583-10.916 10-4.75 2.333-10.167 3.5-16.25 3.5h-23.167v-56.833h23.833Zm-1.166 48.25c6.083 0 11-1.834 14.666-5.5 3.667-3.584 5.5-8.417 5.5-14.334 0-6.083-1.833-10.916-5.583-14.5-3.667-3.583-8.667-5.333-14.917-5.333h-11.333v39.667h11.667ZM1374.167 1457.352c5.833 0 11.166 1.25 15.833 3.666 4.75 2.417 8.5 5.917 11.25 10.5 2.833 4.584 4.25 9.584 4.25 15 0 5.334-1.417 10.25-4.083 14.834-2.75 4.5-6.5 8.083-11.25 10.583s-10.167 3.75-16.084 3.75c-5.916 0-11.25-1.333-16.083-3.833-4.833-2.584-8.583-6.084-11.25-10.5-2.667-4.5-4-9.417-4-14.834 0-5.166 1.333-10.083 4-14.666 2.667-4.584 6.417-8.167 11.083-10.667 4.75-2.583 10.167-3.833 16.334-3.833Zm-20.084 29.166c0 3.75.834 7.167 2.584 10.167 1.666 3 4.083 5.333 7.166 7 3 1.667 6.5 2.5 10.334 2.5 5.833 0 10.583-1.833 14.333-5.5s5.667-8.333 5.667-14.167c0-3.75-.834-7.166-2.5-10.166-1.75-3-4.084-5.417-7.167-7-3.083-1.667-6.583-2.5-10.417-2.5-3.833 0-7.333.833-10.416 2.5-3.084 1.666-5.417 4-7.084 7-1.666 3-2.5 6.416-2.5 10.166ZM1809.457 1458.102v8.583h-23.667v14.667h23.667v8.666h-23.667v24.917h-11v-56.833h34.667ZM1923.989 1458.102v48.25h27.583v8.583h-38.583v-56.833h11ZM2053.743 1458.102v33.083c0 3.417.5 6.083 1.5 8.083 1.084 2 2.75 3.667 5 5 2.334 1.25 5 1.917 8.084 1.917 3.333 0 6.25-.583 8.583-1.833s4-2.917 5.167-5.084c1.083-2.083 1.583-5.083 1.583-8.833v-32.333h11v33.75c0 7.666-2.333 13.5-6.917 17.666-4.583 4.084-11 6.167-19.416 6.167-5.25 0-9.834-.917-13.667-2.833-3.917-1.834-6.833-4.584-8.917-8.084-2-3.583-3-7.75-3-12.5v-34.166h11ZM267.061 1592.992c5.333 0 9.667 1.5 12.917 4.583 3.333 3.083 5 7.083 5 11.917 0 4.916-1.667 8.916-5 11.916-3.417 3.084-7.834 4.584-13.334 4.584h-10.583v23.833h-11v-56.833h22Zm-2.75 24.416c2.917 0 5.25-.666 6.833-2 1.667-1.333 2.5-3.333 2.5-6 0-5.25-3.333-7.833-10.083-7.833h-7.5v15.833h8.25ZM396.259 1592.992v48.25h27.583v8.583H385.26v-56.833h11ZM560.192 1592.992v8.583h-25.75v14.917h24.667v8.583h-24.667v16.167h26.333v8.583h-37.333v-56.833h36.75ZM684.681 1592.992l25.084 56.833H698.18l-5.916-13.833h-25.25l-5.5 13.833h-11.5l23.416-56.833h11.25Zm-14.333 34.666h18.333l-9.583-22.5-8.75 22.5ZM819.3 1592.242c5.5 0 10.833 1.416 16 4.166v9.75c-5.917-3.583-11.083-5.333-15.667-5.333-2.75 0-4.916.583-6.5 1.583-1.583 1.084-2.333 2.5-2.333 4.334 0 2.166 1.417 4.083 4.333 5.916.834.584 4 2.084 9.417 4.584 4.667 2.166 8 4.666 10.083 7.333 2.084 2.667 3.084 5.917 3.084 9.667 0 4.916-1.75 8.833-5.25 11.833s-8.084 4.5-13.667 4.5c-3.667 0-6.75-.417-9.333-1.25-2.667-.75-5.584-2.167-8.834-4.083v-10.834c6.084 5 11.75 7.584 17.167 7.584 2.667 0 4.833-.584 6.5-1.75 1.667-1.167 2.5-2.75 2.5-4.667 0-2.583-1.417-4.75-4.333-6.417-2.417-1.333-5.5-2.833-9.25-4.666-4.5-2.084-7.834-4.417-10-7.167-2.25-2.667-3.334-5.833-3.334-9.417 0-4.75 1.75-8.583 5.334-11.416 3.583-2.834 8.25-4.25 14.083-4.25ZM1216.937 1592.992l18.666 22.416 18.667-22.416h9.833v56.833h-11v-39.917h-.333l-16.417 20h-1.583l-16.417-20h-.333v39.917h-11v-56.833h9.917ZM1657.09 1592.992l25.083 56.833h-11.584l-5.916-13.833h-25.25l-5.5 13.833h-11.5l23.416-56.833h11.25Zm-14.334 34.666h18.333l-9.583-22.5-8.75 22.5ZM1791.135 1592.992c5.333 0 9.667 1.5 13.083 4.416 3.334 3 5 6.834 5 11.584 0 3.25-.833 6-2.5 8.416-1.666 2.417-4.166 4.334-7.416 5.667 1.833 1 3.416 2.333 4.833 4 1.417 1.667 3.167 4.5 5.25 8.5 3.5 6.917 6.083 11.667 7.75 14.25h-12.25c-.833-1.25-2-3.25-3.417-6-3.166-6-5.5-10.083-6.916-12.25-1.5-2.083-2.917-3.583-4.25-4.417-1.334-.916-2.917-1.333-4.667-1.333h-4v24h-11v-56.833h20.5Zm-2.5 24.25c2.917 0 5.167-.75 6.75-2.167 1.667-1.417 2.5-3.417 2.5-5.917 0-2.583-.833-4.5-2.417-5.833-1.666-1.25-4-1.917-7-1.917h-6.833v15.834h7ZM1949.356 1592.992v8.583h-25.75v14.917h24.667v8.583h-24.667v16.167h26.333v8.583h-37.333v-56.833h36.75ZM2051.64 1592.992l33.75 39.666v-39.666h10.75v56.833h-9.416l-34-40.333v40.333h-10.75v-56.833h9.667ZM2212.76 1592.992l25.083 56.833h-11.584l-5.916-13.833h-25.25l-5.5 13.833h-11.5l23.416-56.833h11.25Zm-14.334 34.666h18.333l-9.583-22.5-8.75 22.5ZM257.686 1727.872v48.25h27.583v8.583h-38.583v-56.833h11ZM396.9 1727.872h11v56.833h-11zM541.811 1727.122c5.5 0 10.833 1.416 16 4.166v9.75c-5.917-3.583-11.083-5.333-15.667-5.333-2.75 0-4.916.583-6.5 1.583-1.583 1.084-2.333 2.5-2.333 4.334 0 2.166 1.417 4.083 4.333 5.916.834.584 4 2.084 9.417 4.584 4.667 2.166 8 4.666 10.083 7.333 2.084 2.667 3.084 5.917 3.084 9.667 0 4.916-1.75 8.833-5.25 11.833s-8.084 4.5-13.667 4.5c-3.667 0-6.75-.417-9.333-1.25-2.667-.75-5.584-2.167-8.834-4.083v-10.834c6.084 5 11.75 7.584 17.167 7.584 2.667 0 4.833-.584 6.5-1.75 1.667-1.167 2.5-2.75 2.5-4.667 0-2.583-1.417-4.75-4.333-6.417-2.417-1.333-5.5-2.833-9.25-4.666-4.5-2.084-7.834-4.417-10-7.167-2.25-2.667-3.334-5.833-3.334-9.417 0-4.75 1.75-8.583 5.334-11.416 3.583-2.834 8.25-4.25 14.083-4.25ZM705.9 1727.872v8.583h-20.166v48.25h-11v-48.25h-20.167v-8.583h51.334ZM838.367 1727.872v8.583h-25.75v14.917h24.667v8.583h-24.667v16.167h26.333v8.583h-37.333v-56.833h36.75ZM940.659 1727.872l33.75 39.666v-39.666h10.75v56.833h-9.417l-34-40.333v40.333h-10.75v-56.833h9.667ZM1255.116 1727.872v8.583h-25.75v14.917h24.667v8.583h-24.667v16.167h26.333v8.583h-37.333v-56.833h36.75ZM1539.396 1727.872v8.583h-20.167v48.25h-11v-48.25h-20.167v-8.583h51.334ZM1618.987 1727.872l14.166 35.083 14.917-35.083h9.25l15 35.166 14.083-35.166h11.25l-23.416 57.583h-3.667l-17.917-42.167-18 42.167h-3.583l-23.417-57.583h11.334ZM1786.056 1727.872h11v56.833h-11zM1930.972 1727.122c5.5 0 10.833 1.416 16 4.166v9.75c-5.917-3.583-11.083-5.333-15.667-5.333-2.75 0-4.916.583-6.5 1.583-1.583 1.084-2.333 2.5-2.333 4.334 0 2.166 1.417 4.083 4.333 5.916.834.584 4 2.084 9.417 4.584 4.667 2.166 8 4.666 10.083 7.333 2.084 2.667 3.084 5.917 3.084 9.667 0 4.916-1.75 8.833-5.25 11.833s-8.084 4.5-13.667 4.5c-3.667 0-6.75-.417-9.333-1.25-2.667-.75-5.584-2.167-8.834-4.083v-10.834c6.084 5 11.75 7.584 17.167 7.584 2.667 0 4.833-.584 6.5-1.75 1.667-1.167 2.5-2.75 2.5-4.667 0-2.583-1.417-4.75-4.333-6.417-2.417-1.333-5.5-2.833-9.25-4.666-4.5-2.084-7.834-4.417-10-7.167-2.25-2.667-3.334-5.833-3.334-9.417 0-4.75 1.75-8.583 5.334-11.416 3.583-2.834 8.25-4.25 14.083-4.25ZM2095.066 1727.872v8.583h-20.167v48.25h-11v-48.25h-20.167v-8.583h51.334ZM2208.802 1727.122c5.5 0 10.833 1.416 16 4.166v9.75c-5.917-3.583-11.083-5.333-15.667-5.333-2.75 0-4.916.583-6.5 1.583-1.583 1.084-2.333 2.5-2.333 4.334 0 2.166 1.417 4.083 4.333 5.916.834.584 4 2.084 9.417 4.584 4.667 2.166 8 4.666 10.083 7.333 2.084 2.667 3.084 5.917 3.084 9.667 0 4.916-1.75 8.833-5.25 11.833s-8.084 4.5-13.667 4.5c-3.667 0-6.75-.417-9.333-1.25-2.667-.75-5.584-2.167-8.834-4.083v-10.834c6.084 5 11.75 7.584 17.167 7.584 2.667 0 4.833-.584 6.5-1.75 1.667-1.167 2.5-2.75 2.5-4.667 0-2.583-1.417-4.75-4.333-6.417-2.417-1.333-5.5-2.833-9.25-4.666-4.5-2.084-7.834-4.417-10-7.167-2.25-2.667-3.334-5.833-3.334-9.417 0-4.75 1.75-8.583 5.334-11.416 3.583-2.834 8.25-4.25 14.083-4.25ZM268.62 1862.762l25.084 56.833H282.12l-5.916-13.833h-25.25l-5.5 13.833h-11.5l23.416-56.833h11.25Zm-14.333 34.666h18.333l-9.583-22.5-8.75 22.5ZM421.963 1862.762v8.583h-25.75v14.917h24.667v8.583h-24.667v16.167h26.333v8.583h-37.333v-56.833h36.75ZM706.245 1862.762v8.583h-20.167v48.25h-11v-48.25h-20.167v-8.583h51.334ZM804.742 1862.762v23.916h29.5v-23.916h11v56.833h-11v-24h-29.5v24h-11v-56.833h11ZM952.907 1862.762h11v56.833h-11zM1097.242 1862.762c5.333 0 9.667 1.5 13.083 4.416 3.334 3 5 6.834 5 11.584 0 3.25-.833 6-2.5 8.416-1.666 2.417-4.166 4.334-7.416 5.667 1.833 1 3.416 2.333 4.833 4 1.417 1.667 3.167 4.5 5.25 8.5 3.5 6.917 6.083 11.667 7.75 14.25h-12.25c-.833-1.25-2-3.25-3.417-6-3.166-6-5.5-10.083-6.916-12.25-1.5-2.083-2.917-3.583-4.25-4.417-1.334-.916-2.917-1.333-4.667-1.333h-4v24h-11v-56.833h20.5Zm-2.5 24.25c2.917 0 5.167-.75 6.75-2.167 1.667-1.417 2.5-3.417 2.5-5.917 0-2.583-.833-4.5-2.417-5.833-1.666-1.25-4-1.917-7-1.917h-6.833v15.834h7ZM1261.906 1862.762v8.583h-20.167v48.25h-11v-48.25h-20.167v-8.583h51.334ZM1361.442 1862.762l13.75 19 13.916-19h13.084l-21.5 28.666v28.167h-11v-28.25l-21.584-28.583h13.334ZM1514.117 1862.012c5.833 0 11.166 1.25 15.833 3.666 4.75 2.417 8.5 5.917 11.25 10.5 2.833 4.584 4.25 9.584 4.25 15 0 5.334-1.417 10.25-4.083 14.834-2.75 4.5-6.5 8.083-11.25 10.583s-10.167 3.75-16.084 3.75c-5.916 0-11.25-1.333-16.083-3.833-4.833-2.584-8.583-6.084-11.25-10.5-2.667-4.5-4-9.417-4-14.834 0-5.166 1.333-10.083 4-14.666 2.667-4.584 6.417-8.167 11.083-10.667 4.75-2.583 10.167-3.833 16.334-3.833Zm-20.084 29.166c0 3.75.834 7.167 2.584 10.167 1.666 3 4.083 5.333 7.166 7 3 1.667 6.5 2.5 10.334 2.5 5.833 0 10.583-1.833 14.333-5.5s5.667-8.333 5.667-14.167c0-3.75-.834-7.166-2.5-10.166-1.75-3-4.084-5.417-7.167-7-3.083-1.667-6.583-2.5-10.417-2.5-3.833 0-7.333.833-10.416 2.5-3.084 1.666-5.417 4-7.084 7-1.666 3-2.5 6.416-2.5 10.166ZM1635.58 1862.762l33.75 39.666v-39.666h10.75v56.833h-9.416l-34-40.333v40.333h-10.75v-56.833h9.667ZM1811.126 1862.762v8.583h-25.75v14.917h24.667v8.583h-24.667v16.167h26.333v8.583h-37.333v-56.833h36.75ZM2088.956 1862.762v8.583h-25.75v14.917h24.667v8.583h-24.667v16.167h26.333v8.583h-37.333v-56.833h36.75ZM2234.326 1862.762v8.583h-20.167v48.25h-11v-48.25h-20.167v-8.583h51.334ZM249.208 1997.642v33.083c0 3.417.5 6.083 1.5 8.083 1.084 2 2.75 3.667 5 5 2.334 1.25 5 1.917 8.084 1.917 3.333 0 6.25-.583 8.583-1.833s4-2.917 5.167-5.084c1.083-2.083 1.583-5.083 1.583-8.833v-32.333h11v33.75c0 7.666-2.333 13.5-6.917 17.666-4.583 4.084-11 6.167-19.416 6.167-5.25 0-9.834-.917-13.667-2.833-3.917-1.834-6.833-4.584-8.917-8.084-2-3.583-3-7.75-3-12.5v-34.166h11ZM385.682 1997.642l33.75 39.666v-39.666h10.75v56.833h-9.417l-34-40.333v40.333h-10.75v-56.833h9.667ZM527.254 1997.642v23.916h29.5v-23.916h11v56.833h-11v-24h-29.5v24h-11v-56.833h11ZM680.96 1996.892c5.833 0 11.166 1.25 15.833 3.666 4.75 2.417 8.5 5.917 11.25 10.5 2.833 4.584 4.25 9.584 4.25 15 0 5.334-1.417 10.25-4.083 14.834-2.75 4.5-6.5 8.083-11.25 10.583s-10.167 3.75-16.084 3.75c-5.916 0-11.25-1.333-16.083-3.833-4.833-2.584-8.583-6.084-11.25-10.5-2.667-4.5-4-9.417-4-14.834 0-5.166 1.333-10.083 4-14.666 2.667-4.584 6.417-8.167 11.083-10.667 4.75-2.583 10.167-3.833 16.334-3.833Zm-20.084 29.166c0 3.75.834 7.167 2.584 10.167 1.666 3 4.083 5.333 7.166 7 3 1.667 6.5 2.5 10.334 2.5 5.833 0 10.583-1.833 14.333-5.5s5.667-8.333 5.667-14.167c0-3.75-.834-7.166-2.5-10.166-1.75-3-4.084-5.417-7.167-7-3.083-1.667-6.583-2.5-10.417-2.5-3.833 0-7.333.833-10.416 2.5-3.084 1.666-5.417 4-7.084 7-1.666 3-2.5 6.416-2.5 10.166ZM819.876 1996.892c5.833 0 11.166 1.25 15.833 3.666 4.75 2.417 8.5 5.917 11.25 10.5 2.833 4.584 4.25 9.584 4.25 15 0 5.334-1.417 10.25-4.083 14.834-2.75 4.5-6.5 8.083-11.25 10.583s-10.167 3.75-16.084 3.75c-5.916 0-11.25-1.333-16.083-3.833-4.833-2.584-8.583-6.084-11.25-10.5-2.667-4.5-4-9.417-4-14.834 0-5.166 1.333-10.083 4-14.666 2.667-4.584 6.417-8.167 11.083-10.667 4.75-2.583 10.167-3.833 16.334-3.833Zm-20.084 29.166c0 3.75.834 7.167 2.584 10.167 1.666 3 4.083 5.333 7.166 7 3 1.667 6.5 2.5 10.334 2.5 5.833 0 10.583-1.833 14.333-5.5s5.667-8.333 5.667-14.167c0-3.75-.834-7.166-2.5-10.166-1.75-3-4.084-5.417-7.167-7-3.083-1.667-6.583-2.5-10.417-2.5-3.833 0-7.333.833-10.416 2.5-3.084 1.666-5.417 4-7.084 7-1.666 3-2.5 6.416-2.5 10.166ZM956.631 1997.642c5.917 0 11.167 1.166 15.75 3.583 4.667 2.417 8.25 5.833 10.75 10.167 2.584 4.416 3.834 9.333 3.834 14.75 0 5.583-1.25 10.5-3.834 14.833-2.583 4.25-6.25 7.583-10.916 10-4.75 2.333-10.167 3.5-16.25 3.5h-23.167v-56.833h23.833Zm-1.166 48.25c6.083 0 11-1.834 14.666-5.5 3.667-3.584 5.5-8.417 5.5-14.334 0-6.083-1.833-10.916-5.583-14.5-3.667-3.583-8.667-5.333-14.917-5.333h-11.333v39.667h11.667ZM1221.623 1997.642v33.083c0 3.417.5 6.083 1.5 8.083 1.084 2 2.75 3.667 5 5 2.334 1.25 5 1.917 8.084 1.917 3.333 0 6.25-.583 8.583-1.833s4-2.917 5.167-5.084c1.083-2.083 1.583-5.083 1.583-8.833v-32.333h11v33.75c0 7.666-2.333 13.5-6.917 17.666-4.583 4.084-11 6.167-19.416 6.167-5.25 0-9.834-.917-13.667-2.833-3.917-1.834-6.833-4.584-8.917-8.084-2-3.583-3-7.75-3-12.5v-34.166h11ZM1515.34 1997.642c5.25 0 9.5 1.333 12.75 4.083 3.25 2.667 4.916 6.083 4.916 10.167 0 2.583-.667 4.916-2.083 6.833-1.334 2-3.334 3.583-5.917 4.75v.5c3.917.917 7 2.667 9.25 5.333 2.25 2.584 3.333 5.667 3.333 9.25 0 3.167-.833 6-2.416 8.417-1.667 2.5-3.834 4.417-6.75 5.667-2.834 1.25-6.25 1.833-10.084 1.833h-23.833v-56.833h20.833Zm-2.917 23.583c2.916 0 5.166-.667 6.916-2.083 1.667-1.334 2.5-3.334 2.5-5.75 0-2.25-.75-3.917-2.333-5.25-1.583-1.25-3.583-1.917-6.083-1.917h-7.917v15h6.917Zm2.583 24.667c3.667 0 6.5-.667 8.417-2.084 1.916-1.416 2.833-3.5 2.833-6.166 0-2.417-.917-4.334-2.833-5.75-1.917-1.417-4.417-2.084-7.584-2.084h-10.333v16.084h9.5ZM1672.556 1997.642v8.583h-25.75v14.917h24.667v8.583h-24.667v16.167h26.333v8.583h-37.333v-56.833h36.75ZM1817.621 1997.642l-33.083 48.25h33.25v8.583h-52.167l33.083-48.25h-31.083v-8.583h50ZM1931.207 1996.892c5.833 0 11.166 1.25 15.833 3.666 4.75 2.417 8.5 5.917 11.25 10.5 2.833 4.584 4.25 9.584 4.25 15 0 5.334-1.417 10.25-4.083 14.834-2.75 4.5-6.5 8.083-11.25 10.583s-10.167 3.75-16.084 3.75c-5.916 0-11.25-1.333-16.083-3.833-4.833-2.584-8.583-6.084-11.25-10.5-2.667-4.5-4-9.417-4-14.834 0-5.166 1.333-10.083 4-14.666 2.667-4.584 6.417-8.167 11.083-10.667 4.75-2.583 10.167-3.833 16.334-3.833Zm-20.084 29.166c0 3.75.834 7.167 2.584 10.167 1.666 3 4.083 5.333 7.166 7 3 1.667 6.5 2.5 10.334 2.5 5.833 0 10.583-1.833 14.333-5.5s5.667-8.333 5.667-14.167c0-3.75-.834-7.166-2.5-10.166-1.75-3-4.084-5.417-7.167-7-3.083-1.667-6.583-2.5-10.417-2.5-3.833 0-7.333.833-10.416 2.5-3.084 1.666-5.417 4-7.084 7-1.666 3-2.5 6.416-2.5 10.166ZM2074.87 1997.642l25.083 56.833h-11.584l-5.916-13.833h-25.25l-5.5 13.833h-11.5l23.416-56.833h11.25Zm-14.334 34.666h18.333l-9.583-22.5-8.75 22.5ZM2208.915 1997.642c5.333 0 9.667 1.5 13.083 4.416 3.334 3 5 6.834 5 11.584 0 3.25-.833 6-2.5 8.416-1.666 2.417-4.166 4.334-7.416 5.667 1.833 1 3.416 2.333 4.833 4 1.417 1.667 3.167 4.5 5.25 8.5 3.5 6.917 6.083 11.667 7.75 14.25h-12.25c-.833-1.25-2-3.25-3.417-6-3.166-6-5.5-10.083-6.916-12.25-1.5-2.083-2.917-3.583-4.25-4.417-1.334-.916-2.917-1.333-4.667-1.333h-4v24h-11v-56.833h20.5Zm-2.5 24.25c2.917 0 5.167-.75 6.75-2.167 1.667-1.417 2.5-3.417 2.5-5.917 0-2.583-.833-4.5-2.417-5.833-1.666-1.25-4-1.917-7-1.917h-6.833v15.834h7ZM262.396 2132.532c5.917 0 11.167 1.166 15.75 3.583 4.667 2.417 8.25 5.833 10.75 10.167 2.584 4.416 3.834 9.333 3.834 14.75 0 5.583-1.25 10.5-3.834 14.833-2.583 4.25-6.25 7.583-10.916 10-4.75 2.333-10.167 3.5-16.25 3.5h-23.167v-56.833h23.833Zm-1.166 48.25c6.083 0 11-1.834 14.666-5.5 3.667-3.584 5.5-8.417 5.5-14.334 0-6.083-1.833-10.916-5.583-14.5-3.667-3.583-8.667-5.333-14.917-5.333h-11.333v39.667h11.667ZM408.223 2132.532l25.084 56.833h-11.584l-5.916-13.833h-25.25l-5.5 13.833h-11.5l23.416-56.833h11.25Zm-14.333 34.666h18.333l-9.583-22.5-8.75 22.5ZM523.727 2132.532l18.666 22.416 18.667-22.416h9.833v56.833h-11v-39.917h-.333l-16.417 20h-1.583l-16.417-20h-.333v39.917h-11v-56.833h9.917ZM681.304 2131.782c5.833 0 11.166 1.25 15.833 3.666 4.75 2.417 8.5 5.917 11.25 10.5 2.833 4.584 4.25 9.584 4.25 15 0 5.334-1.417 10.25-4.083 14.834-2.75 4.5-6.5 8.083-11.25 10.583s-10.167 3.75-16.084 3.75c-5.916 0-11.25-1.333-16.083-3.833-4.833-2.584-8.583-6.084-11.25-10.5-2.667-4.5-4-9.417-4-14.834 0-5.166 1.333-10.083 4-14.666 2.667-4.584 6.417-8.167 11.083-10.667 4.75-2.583 10.167-3.833 16.334-3.833Zm-20.084 29.166c0 3.75.834 7.167 2.584 10.167 1.666 3 4.083 5.333 7.166 7 3 1.667 6.5 2.5 10.334 2.5 5.833 0 10.583-1.833 14.333-5.5s5.667-8.333 5.667-14.167c0-3.75-.834-7.166-2.5-10.166-1.75-3-4.084-5.417-7.167-7-3.083-1.667-6.583-2.5-10.417-2.5-3.833 0-7.333.833-10.416 2.5-3.084 1.666-5.417 4-7.084 7-1.666 3-2.5 6.416-2.5 10.166ZM802.774 2132.532l33.75 39.666v-39.666h10.75v56.833h-9.417l-34-40.333v40.333h-10.75v-56.833h9.667ZM1237.422 2131.782c5.5 0 10.833 1.416 16 4.166v9.75c-5.917-3.583-11.083-5.333-15.667-5.333-2.75 0-4.916.583-6.5 1.583-1.583 1.084-2.333 2.5-2.333 4.334 0 2.166 1.417 4.083 4.333 5.916.834.584 4 2.084 9.417 4.584 4.667 2.166 8 4.666 10.083 7.333 2.084 2.667 3.084 5.917 3.084 9.667 0 4.916-1.75 8.833-5.25 11.833s-8.084 4.5-13.667 4.5c-3.667 0-6.75-.417-9.333-1.25-2.667-.75-5.584-2.167-8.834-4.083v-10.834c6.084 5 11.75 7.584 17.167 7.584 2.667 0 4.833-.584 6.5-1.75 1.667-1.167 2.5-2.75 2.5-4.667 0-2.583-1.417-4.75-4.333-6.417-2.417-1.333-5.5-2.833-9.25-4.666-4.5-2.084-7.834-4.417-10-7.167-2.25-2.667-3.334-5.833-3.334-9.417 0-4.75 1.75-8.583 5.334-11.416 3.583-2.834 8.25-4.25 14.083-4.25ZM1651.557 2132.532c5.917 0 11.167 1.166 15.75 3.583 4.667 2.417 8.25 5.833 10.75 10.167 2.584 4.416 3.834 9.333 3.834 14.75 0 5.583-1.25 10.5-3.834 14.833-2.583 4.25-6.25 7.583-10.916 10-4.75 2.333-10.167 3.5-16.25 3.5h-23.167v-56.833h23.833Zm-1.166 48.25c6.083 0 11-1.834 14.666-5.5 3.667-3.584 5.5-8.417 5.5-14.334 0-6.083-1.833-10.916-5.583-14.5-3.667-3.583-8.667-5.333-14.917-5.333h-11.333v39.667h11.667ZM1811.806 2132.532v8.583h-25.75v14.917h24.667v8.583h-24.667v16.167h26.333v8.583h-37.333v-56.833h36.75ZM1931.425 2132.532c5.333 0 9.667 1.5 13.083 4.416 3.334 3 5 6.834 5 11.584 0 3.25-.833 6-2.5 8.416-1.666 2.417-4.166 4.334-7.416 5.667 1.833 1 3.416 2.333 4.833 4 1.417 1.667 3.167 4.5 5.25 8.5 3.5 6.917 6.083 11.667 7.75 14.25h-12.25c-.833-1.25-2-3.25-3.417-6-3.166-6-5.5-10.083-6.916-12.25-1.5-2.083-2.917-3.583-4.25-4.417-1.334-.916-2.917-1.333-4.667-1.333h-4v24h-11v-56.833h20.5Zm-2.5 24.25c2.917 0 5.167-.75 6.75-2.167 1.667-1.417 2.5-3.417 2.5-5.917 0-2.583-.833-4.5-2.417-5.833-1.666-1.25-4-1.917-7-1.917h-6.833v15.834h7ZM2051.807 2132.532l18.666 22.416 18.667-22.416h9.833v56.833h-11v-39.917h-.333l-16.417 20h-1.583l-16.417-20h-.333v39.917h-11v-56.833h9.917ZM2214.13 2132.532l25.083 56.833h-11.584l-5.916-13.833h-25.25l-5.5 13.833h-11.5l23.416-56.833h11.25Zm-14.334 34.666h18.333l-9.583-22.5-8.75 22.5ZM382.256 374.468l33.75 39.666v-39.666h10.75V431.3h-9.417l-34-40.333V431.3h-10.75v-56.833h9.667ZM536.457 374.468c5.917 0 11.167 1.166 15.75 3.583 4.667 2.417 8.25 5.833 10.75 10.167 2.584 4.416 3.834 9.333 3.834 14.75 0 5.583-1.25 10.5-3.834 14.833-2.583 4.25-6.25 7.583-10.916 10-4.75 2.333-10.167 3.5-16.25 3.5h-23.167v-56.833h23.833Zm-1.166 48.25c6.083 0 11-1.834 14.666-5.5 3.667-3.584 5.5-8.417 5.5-14.334 0-6.083-1.833-10.916-5.583-14.5-3.667-3.583-8.667-5.333-14.917-5.333h-11.333v39.667h11.667ZM671.992 374.468h11V431.3h-11zM800.58 374.468l16.083 36.5 15.667-36.5h11.5l-25.083 57.583h-3.834l-25.916-57.583h11.583ZM974.544 374.468v8.583h-25.75v14.917h24.667v8.583h-24.667v16.167h26.333v8.583h-37.333v-56.833h36.75ZM1239.03 373.718c3.25 0 6.417.333 9.5 1.083 3.084.75 6.417 2 10 3.75v10.333c-3.5-2-6.75-3.416-9.666-4.333-3-.917-6.084-1.333-9.334-1.333-4.083 0-7.666.833-10.916 2.5-3.25 1.666-5.834 4-7.584 7.083-1.833 3-2.75 6.417-2.75 10.083 0 3.834.917 7.25 2.667 10.25 1.833 3 4.333 5.334 7.583 6.917 3.25 1.667 6.917 2.5 11 2.5 3.084 0 6.084-.417 8.917-1.333 2.833-.917 6.417-2.5 10.75-4.834v10.334c-3.667 1.916-7.083 3.25-10.167 4.083-3.083.833-6.75 1.25-10.833 1.25-6 0-11.333-1.25-16.083-3.583-4.75-2.417-8.417-5.834-11.167-10.334-2.667-4.5-4-9.416-4-14.75 0-5.75 1.417-10.833 4.167-15.416 2.75-4.584 6.583-8.084 11.5-10.5 4.833-2.5 10.333-3.75 16.416-3.75ZM1495.158 374.468l16.083 36.5 15.667-36.5h11.5l-25.083 57.583h-3.834l-25.916-57.583h11.583ZM1654.7 374.468l25.083 56.833h-11.584l-5.916-13.833h-25.25l-5.5 13.833h-11.5l23.416-56.833h11.25Zm-14.334 34.666h18.333l-9.583-22.5-8.75 22.5ZM1771.41 374.468l33.75 39.666v-39.666h10.75V431.3h-9.416l-34-40.333V431.3h-10.75v-56.833h9.667ZM1922.236 374.468h11V431.3h-11zM2092.326 374.468v8.583h-20.167v48.25h-11v-48.25h-20.167v-8.583h51.334ZM2210.36 374.468l25.083 56.833h-11.584l-5.916-13.833h-25.25l-5.5 13.833h-11.5l23.416-56.833h11.25Zm-14.334 34.666h18.333l-9.583-22.5-8.75 22.5ZM389.65 239.95h11v56.834h-11zM534.934 239.95c5.333 0 9.667 1.5 13.083 4.417 3.334 3 5 6.834 5 11.584 0 3.25-.833 6-2.5 8.416-1.666 2.417-4.166 4.334-7.416 5.667 1.833 1 3.416 2.333 4.833 4 1.417 1.667 3.167 4.5 5.25 8.5 3.5 6.917 6.083 11.667 7.75 14.25h-12.25c-.833-1.25-2-3.25-3.417-6-3.166-6-5.5-10.083-6.916-12.25-1.5-2.083-2.917-3.583-4.25-4.417-1.334-.916-2.917-1.333-4.667-1.333h-4v24h-11v-56.833h20.5Zm-2.5 24.25c2.917 0 5.167-.75 6.75-2.166 1.667-1.417 2.5-3.417 2.5-5.917 0-2.583-.833-4.5-2.417-5.833-1.666-1.25-4-1.917-7-1.917h-6.833v15.834h7ZM679.207 238.468c7 0 13.917 1.583 20.834 4.666v10.084c-6.917-3.5-13.667-5.25-20.334-5.25-4.166 0-7.833.833-11.083 2.5-3.25 1.583-5.75 4-7.5 7.083-1.75 3.167-2.667 6.583-2.667 10.417 0 5.833 1.917 10.5 5.834 14 3.833 3.583 8.916 5.333 15.25 5.333 1.75 0 3.416-.167 5-.417 1.583-.333 3.5-.916 5.666-1.75v-9.416h-9.416v-8.584h20.416v23.417c-2.833 2-6.166 3.5-10.083 4.583a45.758 45.758 0 0 1-12.25 1.667c-6 0-11.417-1.25-16.25-3.75-4.917-2.417-8.667-5.917-11.417-10.333-2.75-4.5-4.083-9.417-4.083-14.917 0-5.583 1.333-10.583 4.083-15.083s6.667-8 11.584-10.5c4.916-2.5 10.416-3.75 16.416-3.75ZM1232.822 238.468c5.5 0 10.833 1.416 16 4.166v9.75c-5.917-3.583-11.083-5.333-15.667-5.333-2.75 0-4.916.583-6.5 1.583-1.583 1.084-2.333 2.5-2.333 4.334 0 2.166 1.417 4.083 4.333 5.916.834.584 4 2.084 9.417 4.584 4.667 2.166 8 4.666 10.083 7.333 2.084 2.667 3.084 5.917 3.084 9.667 0 4.916-1.75 8.833-5.25 11.833s-8.084 4.5-13.667 4.5c-3.667 0-6.75-.417-9.333-1.25-2.667-.75-5.584-2.167-8.834-4.083v-10.834c6.084 5 11.75 7.584 17.167 7.584 2.667 0 4.833-.584 6.5-1.75 1.667-1.167 2.5-2.75 2.5-4.667 0-2.583-1.417-4.75-4.333-6.417-2.417-1.333-5.5-2.833-9.25-4.666-4.5-2.084-7.834-4.417-10-7.167-2.25-2.667-3.334-5.833-3.334-9.417 0-4.75 1.75-8.583 5.334-11.416 3.583-2.834 8.25-4.25 14.083-4.25ZM811.233 238.468c5.833 0 11.166 1.25 15.833 3.666 4.75 2.417 8.5 5.917 11.25 10.5 2.833 4.584 4.25 9.584 4.25 15 0 5.334-1.417 10.25-4.083 14.834-2.75 4.5-6.5 8.083-11.25 10.583s-10.167 3.75-16.084 3.75c-5.916 0-11.25-1.333-16.083-3.833-4.833-2.584-8.583-6.084-11.25-10.5-2.667-4.5-4-9.417-4-14.834 0-5.166 1.333-10.083 4-14.666 2.667-4.584 6.417-8.167 11.083-10.667 4.75-2.583 10.167-3.833 16.334-3.833Zm-20.084 29.166c0 3.75.834 7.167 2.584 10.167 1.666 3 4.083 5.333 7.166 7 3 1.667 6.5 2.5 10.334 2.5 5.833 0 10.583-1.833 14.333-5.5s5.667-8.333 5.667-14.167c0-3.75-.834-7.166-2.5-10.166-1.75-3-4.084-5.417-7.167-7-3.083-1.667-6.583-2.5-10.417-2.5-3.833 0-7.333.833-10.416 2.5-3.084 1.666-5.417 4-7.084 7-1.666 3-2.5 6.416-2.5 10.166ZM1632.987 239.95l18.666 22.417 18.667-22.416h9.833v56.833h-11v-39.917h-.333l-16.417 20h-1.583l-16.417-20h-.333v39.917h-11v-56.833h9.917ZM1785.976 239.95h11v56.834h-11zM1929.216 239.95c5.917 0 11.167 1.167 15.75 3.584 4.667 2.417 8.25 5.833 10.75 10.167 2.584 4.416 3.834 9.333 3.834 14.75 0 5.583-1.25 10.5-3.834 14.833-2.583 4.25-6.25 7.583-10.916 10-4.75 2.333-10.167 3.5-16.25 3.5h-23.167v-56.833h23.833Zm-1.166 48.25c6.083 0 11-1.833 14.666-5.5 3.667-3.583 5.5-8.416 5.5-14.333 0-6.083-1.833-10.916-5.583-14.5-3.667-3.583-8.667-5.333-14.917-5.333h-11.333v39.667h11.667ZM2076 239.95l25.083 56.834h-11.584l-5.916-13.833h-25.25l-5.5 13.833h-11.5l23.416-56.833H2076Zm-14.334 34.667h18.333l-9.583-22.5-8.75 22.5ZM2208.012 238.468c5.5 0 10.833 1.416 16 4.166v9.75c-5.917-3.583-11.083-5.333-15.667-5.333-2.75 0-4.916.583-6.5 1.583-1.583 1.084-2.333 2.5-2.333 4.334 0 2.166 1.417 4.083 4.333 5.916.834.584 4 2.084 9.417 4.584 4.667 2.166 8 4.666 10.083 7.333 2.084 2.667 3.084 5.917 3.084 9.667 0 4.916-1.75 8.833-5.25 11.833s-8.084 4.5-13.667 4.5c-3.667 0-6.75-.417-9.333-1.25-2.667-.75-5.584-2.167-8.834-4.083v-10.834c6.084 5 11.75 7.584 17.167 7.584 2.667 0 4.833-.584 6.5-1.75 1.667-1.167 2.5-2.75 2.5-4.667 0-2.583-1.417-4.75-4.333-6.417-2.417-1.333-5.5-2.833-9.25-4.666-4.5-2.084-7.834-4.417-10-7.167-2.25-2.667-3.334-5.833-3.334-9.417 0-4.75 1.75-8.583 5.334-11.416 3.583-2.834 8.25-4.25 14.083-4.25Z" fill-rule="nonzero"/>
</svg>
