<?xml version="1.0" encoding="utf-8"?>
<svg clip-rule="evenodd" fill-rule="evenodd" stroke-linecap="round" stroke-linejoin="round" stroke-miterlimit="1.5" version="1.1" viewBox="0 0 1004 976" xml:space="preserve" xmlns="http://www.w3.org/2000/svg">
	<title>A crossword puzzle grid with the solution filled in. Revealed on the reddish cells are the words TESTAMENT, VERSICLES, CANTICLES and THIRTYONE.</title>
    <g fill="#fff" stroke="#000" stroke-width="6.25px">
        <rect x="45.728" y="40.212" width="64.214" height="64.214"/><rect x="109.29" y="40.212" width="64.214" height="64.214"/><rect x="172.85" y="40.212" width="64.214" height="64.214"/><rect x="236.41" y="40.212" width="64.214" height="64.214"/><rect x="299.97" y="40.212" width="64.214" height="64.214"/></g><g stroke="#000" stroke-width="6.25px"><rect x="363.54" y="40.212" width="64.214" height="64.214"/><rect x="427.1" y="40.212" width="64.214" height="64.214"/><rect x="490.66" y="40.212" width="64.214" height="64.214" fill="#fff"/><rect x="554.22" y="40.212" width="64.214" height="64.214"/><rect x="617.78" y="40.212" width="64.214" height="64.214"/></g><g fill="#fff" stroke="#000" stroke-width="6.25px"><rect x="681.34" y="40.212" width="64.214" height="64.214"/><rect x="744.9" y="40.212" width="64.214" height="64.214"/><rect x="808.47" y="40.212" width="64.214" height="64.214"/><rect x="872.03" y="40.212" width="64.214" height="64.214"/><rect x="935.59" y="40.212" width="64.214" height="64.214"/><rect x="45.728" y="103.97" width="64.214" height="64.214"/><rect x="109.29" y="103.97" width="64.214" height="64.214"/><rect x="172.85" y="103.97" width="64.214" height="64.214"/><rect x="236.41" y="103.97" width="64.214" height="64.214"/><rect x="299.97" y="103.97" width="64.214" height="64.214"/><rect x="363.54" y="103.97" width="64.214" height="64.214"/></g><g stroke="#000" stroke-width="6.25px"><rect x="427.1" y="103.97" width="64.214" height="64.214"/><rect x="490.66" y="103.97" width="64.214" height="64.214" fill="#fff"/><rect x="554.22" y="103.97" width="64.214" height="64.214"/></g><g fill="#fff" stroke="#000" stroke-width="6.25px"><rect x="617.78" y="103.97" width="64.214" height="64.214"/><rect x="681.34" y="103.97" width="64.214" height="64.214"/><rect x="744.9" y="103.97" width="64.214" height="64.214"/><rect x="808.47" y="103.97" width="64.214" height="64.214"/><rect x="872.03" y="103.97" width="64.214" height="64.214"/><rect x="935.59" y="103.97" width="64.214" height="64.214"/><rect x="45.744" y="165.86" width="64.214" height="64.214"/><rect x="109.3" y="165.86" width="64.214" height="64.214"/></g><rect x="172.87" y="165.86" width="64.214" height="64.214" stroke="#000" stroke-width="6.25px"/><g fill="#d27d65" stroke="#000" stroke-width="6.25px"><rect x="236.43" y="165.86" width="64.214" height="64.214"/><rect x="299.99" y="165.86" width="64.214" height="64.214"/><rect x="363.55" y="165.86" width="64.214" height="64.214"/><rect x="427.11" y="165.86" width="64.214" height="64.214"/><rect x="490.67" y="165.86" width="64.214" height="64.214"/><rect x="554.23" y="165.86" width="64.214" height="64.214"/><rect x="617.8" y="165.86" width="64.214" height="64.214"/><rect x="681.36" y="165.86" width="64.214" height="64.214"/><rect x="744.92" y="165.86" width="64.214" height="64.214"/></g><rect x="808.48" y="165.86" width="64.214" height="64.214" stroke="#000" stroke-width="6.25px"/><g fill="#fff" stroke="#000" stroke-width="6.25px"><rect x="872.04" y="165.86" width="64.214" height="64.214"/><rect x="935.6" y="165.86" width="64.214" height="64.214"/><rect x="45.759" y="227.74" width="64.214" height="64.214"/><rect x="109.32" y="227.74" width="64.214" height="64.214"/></g><rect x="172.88" y="227.74" width="64.214" height="64.214" fill="#d27d65" stroke="#000" stroke-width="6.25px"/><g fill="#fff" stroke="#000" stroke-width="6.25px"><rect x="236.44" y="227.74" width="64.214" height="64.214"/><rect x="300" y="227.74" width="64.214" height="64.214"/><rect x="363.57" y="227.74" width="64.214" height="64.214"/></g><g stroke="#000" stroke-width="6.25px"><rect x="427.13" y="227.74" width="64.214" height="64.214"/><rect x="490.69" y="227.74" width="64.214" height="64.214" fill="#fff"/><rect x="554.25" y="227.74" width="64.214" height="64.214"/></g><g fill="#fff" stroke="#000" stroke-width="6.25px"><rect x="617.81" y="227.74" width="64.214" height="64.214"/><rect x="681.37" y="227.74" width="64.214" height="64.214"/><rect x="744.94" y="227.74" width="64.214" height="64.214"/></g><rect x="808.5" y="227.74" width="64.214" height="64.214" fill="#d27d65" stroke="#000" stroke-width="6.25px"/><g fill="#fff" stroke="#000" stroke-width="6.25px"><rect x="872.06" y="227.74" width="64.214" height="64.214"/><rect x="935.62" y="227.74" width="64.214" height="64.214"/><rect x="45.774" y="289.63" width="64.214" height="64.214"/><rect x="109.34" y="289.63" width="64.214" height="64.214"/></g><g stroke="#000" stroke-width="6.25px"><rect x="172.9" y="289.63" width="64.214" height="64.214" fill="#d27d65"/><rect x="236.46" y="289.63" width="64.214" height="64.214" fill="#fff"/><rect x="300.02" y="289.63" width="64.214" height="64.214" fill="#fff"/><rect x="363.58" y="289.63" width="64.214" height="64.214"/><rect x="427.14" y="289.63" width="64.214" height="64.214"/><rect x="490.7" y="289.63" width="64.214" height="64.214" fill="#fff"/><rect x="554.27" y="289.63" width="64.214" height="64.214"/><rect x="617.83" y="289.63" width="64.214" height="64.214"/><rect x="681.39" y="289.63" width="64.214" height="64.214" fill="#fff"/><rect x="744.95" y="289.63" width="64.214" height="64.214" fill="#fff"/><rect x="808.51" y="289.63" width="64.214" height="64.214" fill="#d27d65"/><rect x="872.07" y="289.63" width="64.214" height="64.214" fill="#fff"/><rect x="935.63" y="289.63" width="64.214" height="64.214" fill="#fff"/><rect x="45.789" y="351.52" width="64.214" height="64.214"/><rect x="109.35" y="351.52" width="64.214" height="64.214" fill="#fff"/><rect x="172.91" y="351.52" width="64.214" height="64.214" fill="#d27d65"/><rect x="236.47" y="351.52" width="64.214" height="64.214" fill="#fff"/><rect x="300.04" y="351.52" width="64.214" height="64.214"/><rect x="363.6" y="351.52" width="64.214" height="64.214"/></g><g fill="#fff" stroke="#000" stroke-width="6.25px"><rect x="427.16" y="351.52" width="64.214" height="64.214"/><rect x="490.72" y="351.52" width="64.214" height="64.214"/><rect x="554.28" y="351.52" width="64.214" height="64.214"/></g><g stroke="#000" stroke-width="6.25px"><rect x="617.84" y="351.52" width="64.214" height="64.214"/><rect x="681.4" y="351.52" width="64.214" height="64.214"/><rect x="744.97" y="351.52" width="64.214" height="64.214" fill="#fff"/><rect x="808.53" y="351.52" width="64.214" height="64.214" fill="#d27d65"/><rect x="872.09" y="351.52" width="64.214" height="64.214" fill="#fff"/><rect x="935.65" y="351.52" width="64.214" height="64.214"/><rect x="45.804" y="413.41" width="64.214" height="64.214"/><rect x="109.37" y="413.41" width="64.214" height="64.214"/><rect x="172.93" y="413.41" width="64.214" height="64.214" fill="#d27d65"/><rect x="236.49" y="413.41" width="64.214" height="64.214"/><rect x="300.05" y="413.41" width="64.214" height="64.214"/></g><g fill="#fff" stroke="#000" stroke-width="6.25px"><rect x="363.61" y="413.41" width="64.214" height="64.214"/><rect x="427.17" y="413.41" width="64.214" height="64.214"/><rect x="490.73" y="413.41" width="64.214" height="64.214"/><rect x="554.3" y="413.41" width="64.214" height="64.214"/><rect x="617.86" y="413.41" width="64.214" height="64.214"/></g><g stroke="#000" stroke-width="6.25px"><rect x="681.42" y="413.41" width="64.214" height="64.214"/><rect x="744.98" y="413.41" width="64.214" height="64.214"/><rect x="808.54" y="413.41" width="64.214" height="64.214" fill="#d27d65"/><rect x="872.1" y="413.41" width="64.214" height="64.214"/><rect x="935.66" y="413.41" width="64.214" height="64.214"/><rect x="45.819" y="475.29" width="64.214" height="64.214" fill="#fff"/><rect x="109.38" y="475.29" width="64.214" height="64.214" fill="#fff"/><rect x="172.94" y="475.29" width="64.214" height="64.214" fill="#d27d65"/></g><g fill="#fff" stroke="#000" stroke-width="6.25px"><rect x="236.5" y="475.29" width="64.214" height="64.214"/><rect x="300.06" y="475.29" width="64.214" height="64.214"/><rect x="363.63" y="475.29" width="64.214" height="64.214"/><rect x="427.19" y="475.29" width="64.214" height="64.214"/></g><rect x="490.75" y="475.29" width="64.214" height="64.214" stroke="#000" stroke-width="6.25px"/><g fill="#fff" stroke="#000" stroke-width="6.25px"><rect x="554.31" y="475.29" width="64.214" height="64.214"/><rect x="617.87" y="475.29" width="64.214" height="64.214"/><rect x="681.43" y="475.29" width="64.214" height="64.214"/><rect x="745" y="475.29" width="64.214" height="64.214"/></g><g stroke="#000" stroke-width="6.25px"><rect x="808.56" y="475.29" width="64.214" height="64.214" fill="#d27d65"/><rect x="872.12" y="475.29" width="64.214" height="64.214" fill="#fff"/><rect x="935.68" y="475.29" width="64.214" height="64.214" fill="#fff"/><rect x="45.835" y="537.18" width="64.214" height="64.214"/><rect x="109.4" y="537.18" width="64.214" height="64.214"/><rect x="172.96" y="537.18" width="64.214" height="64.214" fill="#d27d65"/><rect x="236.52" y="537.18" width="64.214" height="64.214"/><rect x="300.08" y="537.18" width="64.214" height="64.214"/></g><g fill="#fff" stroke="#000" stroke-width="6.25px"><rect x="363.64" y="537.18" width="64.214" height="64.214"/><rect x="427.2" y="537.18" width="64.214" height="64.214"/><rect x="490.77" y="537.18" width="64.214" height="64.214"/><rect x="554.33" y="537.18" width="64.214" height="64.214"/><rect x="617.89" y="537.18" width="64.214" height="64.214"/></g><g stroke="#000" stroke-width="6.25px"><rect x="681.45" y="537.18" width="64.214" height="64.214"/><rect x="745.01" y="537.18" width="64.214" height="64.214"/><rect x="808.57" y="537.18" width="64.214" height="64.214" fill="#d27d65"/><rect x="872.13" y="537.18" width="64.214" height="64.214"/><rect x="935.7" y="537.18" width="64.214" height="64.214"/><rect x="45.85" y="599.07" width="64.214" height="64.214"/><rect x="109.41" y="599.07" width="64.214" height="64.214" fill="#fff"/><rect x="172.97" y="599.07" width="64.214" height="64.214" fill="#d27d65"/><rect x="236.53" y="599.07" width="64.214" height="64.214" fill="#fff"/><rect x="300.1" y="599.07" width="64.214" height="64.214"/><rect x="363.66" y="599.07" width="64.214" height="64.214"/></g><g fill="#fff" stroke="#000" stroke-width="6.25px"><rect x="427.22" y="599.07" width="64.214" height="64.214"/><rect x="490.78" y="599.07" width="64.214" height="64.214"/><rect x="554.34" y="599.07" width="64.214" height="64.214"/></g><g stroke="#000" stroke-width="6.25px"><rect x="617.9" y="599.07" width="64.214" height="64.214"/><rect x="681.46" y="599.07" width="64.214" height="64.214"/><rect x="745.03" y="599.07" width="64.214" height="64.214" fill="#fff"/><rect x="808.59" y="599.07" width="64.214" height="64.214" fill="#d27d65"/><rect x="872.15" y="599.07" width="64.214" height="64.214" fill="#fff"/><rect x="935.71" y="599.07" width="64.214" height="64.214"/><rect x="45.865" y="660.96" width="64.214" height="64.214" fill="#fff"/><rect x="109.43" y="660.96" width="64.214" height="64.214" fill="#fff"/><rect x="172.99" y="660.96" width="64.214" height="64.214" fill="#d27d65"/><rect x="236.55" y="660.96" width="64.214" height="64.214" fill="#fff"/><rect x="300.11" y="660.96" width="64.214" height="64.214" fill="#fff"/><rect x="363.67" y="660.96" width="64.214" height="64.214"/><rect x="427.23" y="660.96" width="64.214" height="64.214"/><rect x="490.8" y="660.96" width="64.214" height="64.214" fill="#fff"/><rect x="554.36" y="660.96" width="64.214" height="64.214"/><rect x="617.92" y="660.96" width="64.214" height="64.214"/><rect x="681.48" y="660.96" width="64.214" height="64.214" fill="#fff"/><rect x="745.04" y="660.96" width="64.214" height="64.214" fill="#fff"/><rect x="808.6" y="660.96" width="64.214" height="64.214" fill="#d27d65"/></g><g fill="#fff" stroke="#000" stroke-width="6.25px"><rect x="872.16" y="660.96" width="64.214" height="64.214"/><rect x="935.72" y="660.96" width="64.214" height="64.214"/><rect x="45.88" y="722.85" width="64.214" height="64.214"/><rect x="109.44" y="722.85" width="64.214" height="64.214"/></g><rect x="173" y="722.85" width="64.214" height="64.214" fill="#d27d65" stroke="#000" stroke-width="6.25px"/><g fill="#fff" stroke="#000" stroke-width="6.25px"><rect x="236.56" y="722.85" width="64.214" height="64.214"/><rect x="300.13" y="722.85" width="64.214" height="64.214"/><rect x="363.69" y="722.85" width="64.214" height="64.214"/></g><g stroke="#000" stroke-width="6.25px"><rect x="427.25" y="722.85" width="64.214" height="64.214"/><rect x="490.81" y="722.85" width="64.214" height="64.214" fill="#fff"/><rect x="554.37" y="722.85" width="64.214" height="64.214"/></g><g fill="#fff" stroke="#000" stroke-width="6.25px"><rect x="617.93" y="722.85" width="64.214" height="64.214"/><rect x="681.5" y="722.85" width="64.214" height="64.214"/><rect x="745.06" y="722.85" width="64.214" height="64.214"/></g><rect x="808.62" y="722.85" width="64.214" height="64.214" fill="#d27d65" stroke="#000" stroke-width="6.25px"/><g fill="#fff" stroke="#000" stroke-width="6.25px"><rect x="872.18" y="722.85" width="64.214" height="64.214"/><rect x="935.74" y="722.85" width="64.214" height="64.214"/><rect x="45.895" y="784.73" width="64.214" height="64.214"/><rect x="109.46" y="784.73" width="64.214" height="64.214"/></g><rect x="173.02" y="784.73" width="64.214" height="64.214" stroke="#000" stroke-width="6.25px"/><g fill="#d27d65" stroke="#000" stroke-width="6.25px"><rect x="236.58" y="784.73" width="64.214" height="64.214"/><rect x="300.14" y="784.73" width="64.214" height="64.214"/><rect x="363.7" y="784.73" width="64.214" height="64.214"/><rect x="427.26" y="784.73" width="64.214" height="64.214"/><rect x="490.83" y="784.73" width="64.214" height="64.214"/><rect x="554.39" y="784.73" width="64.214" height="64.214"/><rect x="617.95" y="784.73" width="64.214" height="64.214"/><rect x="681.51" y="784.73" width="64.214" height="64.214"/><rect x="745.07" y="784.73" width="64.214" height="64.214"/></g><rect x="808.63" y="784.73" width="64.214" height="64.214" stroke="#000" stroke-width="6.25px"/><g fill="#fff" stroke="#000" stroke-width="6.25px"><rect x="872.19" y="784.73" width="64.214" height="64.214"/><rect x="935.76" y="784.73" width="64.214" height="64.214"/><rect x="45.91" y="846.62" width="64.214" height="64.214"/><rect x="109.47" y="846.62" width="64.214" height="64.214"/><rect x="173.03" y="846.62" width="64.214" height="64.214"/><rect x="236.6" y="846.62" width="64.214" height="64.214"/><rect x="300.16" y="846.62" width="64.214" height="64.214"/><rect x="363.72" y="846.62" width="64.214" height="64.214"/></g><g stroke="#000" stroke-width="6.25px"><rect x="427.28" y="846.62" width="64.214" height="64.214"/><rect x="490.84" y="846.62" width="64.214" height="64.214" fill="#fff"/><rect x="554.4" y="846.62" width="64.214" height="64.214"/></g><g fill="#fff" stroke="#000" stroke-width="6.25px"><rect x="617.96" y="846.62" width="64.214" height="64.214"/><rect x="681.53" y="846.62" width="64.214" height="64.214"/><rect x="745.09" y="846.62" width="64.214" height="64.214"/><rect x="808.65" y="846.62" width="64.214" height="64.214"/><rect x="872.21" y="846.62" width="64.214" height="64.214"/><rect x="935.77" y="846.62" width="64.214" height="64.214"/><rect x="45.926" y="908.51" width="64.214" height="64.214"/><rect x="109.49" y="908.51" width="64.214" height="64.214"/><rect x="173.05" y="908.51" width="64.214" height="64.214"/><rect x="236.61" y="908.51" width="64.214" height="64.214"/><rect x="300.17" y="908.51" width="64.214" height="64.214"/></g><g stroke="#000" stroke-width="6.25px"><rect x="363.73" y="908.51" width="64.214" height="64.214"/><rect x="427.29" y="908.51" width="64.214" height="64.214"/><rect x="490.86" y="908.51" width="64.214" height="64.214" fill="#fff"/><rect x="554.42" y="908.51" width="64.214" height="64.214"/><rect x="617.98" y="908.51" width="64.214" height="64.214"/></g><g fill="#fff" stroke="#000" stroke-width="6.25px"><rect x="681.54" y="908.51" width="64.214" height="64.214"/><rect x="745.1" y="908.51" width="64.214" height="64.214"/><rect x="808.66" y="908.51" width="64.214" height="64.214"/><rect x="872.22" y="908.51" width="64.214" height="64.214"/><rect x="935.79" y="908.51" width="64.214" height="64.214"/>
        </g><g fill-rule="nonzero"><rect x="13.261" y="58.234" width="4.3" height="23.466"/><path d="m14.339 120.38c2.229 0 4.001 0.636 5.317 1.907 1.315 1.271 1.973 2.964 1.973 5.081 0 1.612-0.49 3.359-1.469 5.24-0.98 1.882-2.702 4.373-5.166 7.475h8.046v4.065h-15.201v-0.487c1.769-2.184 3.289-4.146 4.56-5.887 1.271-1.742 2.254-3.186 2.948-4.334s1.187-2.125 1.478-2.931 0.437-1.641 0.437-2.503c0-1.075-0.344-1.979-1.033-2.713-0.689-0.733-1.526-1.1-2.511-1.1-1.769 0-3.606 1.008-5.51 3.024v-4.603c2.005-1.489 4.049-2.234 6.131-2.234z"/><path d="m14.444 182.83c2.172 0 3.925 0.541 5.258 1.621 1.332 1.081 1.998 2.512 1.998 4.292 0 2.408-1.091 4.199-3.275 5.375 1.254 0.448 2.2 1.179 2.839 2.192 0.638 1.014 0.957 2.22 0.957 3.62 0 2.083-0.728 3.765-2.184 5.047-1.455 1.283-3.37 1.924-5.744 1.924-1.87 0-3.668-0.443-5.392-1.327v-4.132c0.952 0.638 1.825 1.1 2.62 1.385 0.795 0.286 1.607 0.429 2.436 0.429 1.097 0 1.996-0.311 2.696-0.932 0.7-0.622 1.05-1.431 1.05-2.428 0-1.097-0.387-1.973-1.159-2.628-0.773-0.655-1.831-0.983-3.175-0.983h-0.269v-3.645h0.202c1.254 0 2.234-0.277 2.939-0.831 0.706-0.555 1.059-1.302 1.059-2.243 0-0.929-0.342-1.677-1.025-2.242-0.683-0.566-1.557-0.849-2.62-0.849-1.322 0-2.71 0.353-4.166 1.059v-3.679c1.467-0.683 3.119-1.025 4.955-1.025z"/><path d="m21.617 245.28v13.69h1.998v3.443h-1.998v6.635h-4.301v-6.635h-9.591v-2.755l11.422-14.378zm-4.401 7.122-5.191 6.568h5.291v-6.568z"/><path d="m21.434 308.04v3.964h-7.441v5.056l0.437-0.034h0.352c1.434 0 2.733 0.311 3.897 0.932 1.165 0.622 2.075 1.492 2.73 2.612s0.982 2.38 0.982 3.78c0 2.206-0.741 4-2.225 5.383s-3.435 2.074-5.854 2.074c-2.15 0-4.054-0.442-5.711-1.326v-3.931c1.747 1.075 3.421 1.613 5.022 1.613 1.255 0 2.302-0.35 3.141-1.05 0.84-0.7 1.26-1.588 1.26-2.663 0-1.209-0.481-2.152-1.444-2.83-0.963-0.677-2.274-1.016-3.931-1.016-0.784 0-1.652 0.101-2.603 0.302v-12.866z"/><path d="m21.244 370.18c-1.255 1.041-2.64 2.581-4.158 4.619-1.517 2.038-2.6 3.824-3.25 5.358 0.873-0.369 1.769-0.554 2.688-0.554 1.209 0 2.309 0.305 3.3 0.915 0.991 0.611 1.761 1.456 2.31 2.537 0.549 1.08 0.823 2.281 0.823 3.603 0 1.399-0.325 2.682-0.974 3.846-0.65 1.165-1.546 2.08-2.688 2.746-1.142 0.667-2.385 1-3.729 1-2.284 0-4.135-0.77-5.551-2.31-1.417-1.539-2.125-3.541-2.125-6.005 0-2.452 0.736-5.078 2.209-7.878 1.472-2.799 3.479-5.425 6.021-7.877zm-8.987 16.478c0 1.086 0.305 1.982 0.916 2.687 0.61 0.706 1.397 1.058 2.36 1.058 0.94 0 1.702-0.333 2.284-0.999s0.873-1.548 0.873-2.646c0-1.03-0.299-1.884-0.898-2.561-0.599-0.678-1.375-1.016-2.327-1.016-0.918 0-1.682 0.333-2.292 0.999-0.611 0.666-0.916 1.492-0.916 2.478z"/><path d="m22.817 432.94v0.135l-9.457 23.633-3.964-1.478 7.407-18.258h-9.356v-4.032z"/><path d="m15.424 495.08c2.094 0 3.805 0.611 5.132 1.831 1.327 1.221 1.99 2.8 1.99 4.737 0 2.116-0.963 3.779-2.889 4.989 1.21 0.638 2.083 1.428 2.62 2.368 0.538 0.941 0.807 2.044 0.807 3.309 0 1.299-0.331 2.472-0.991 3.519-0.661 1.047-1.579 1.862-2.755 2.444s-2.48 0.874-3.914 0.874c-2.239 0-4.084-0.639-5.534-1.915-1.451-1.277-2.176-2.917-2.176-4.922 0-1.332 0.286-2.461 0.857-3.384 0.571-0.924 1.433-1.689 2.587-2.293-1.926-1.221-2.889-2.895-2.889-5.023 0-1.926 0.669-3.496 2.007-4.711s3.054-1.823 5.148-1.823zm-2.855 6.635c0 1.008 0.269 1.834 0.806 2.478 0.538 0.644 1.221 0.966 2.049 0.966 0.807 0 1.478-0.334 2.016-1 0.537-0.666 0.806-1.481 0.806-2.444 0-1.019-0.255-1.825-0.764-2.419-0.51-0.593-1.195-0.89-2.058-0.89-0.873 0-1.567 0.291-2.083 0.874-0.515 0.582-0.772 1.394-0.772 2.435zm-0.487 10.398c0 1.153 0.302 2.06 0.907 2.721 0.604 0.66 1.416 0.991 2.435 0.991s1.823-0.333 2.411-1c0.588-0.666 0.881-1.548 0.881-2.645 0-1.098-0.302-1.999-0.907-2.705-0.604-0.705-1.388-1.058-2.351-1.058-1.008 0-1.823 0.333-2.444 1-0.622 0.666-0.932 1.565-0.932 2.696z"/><path d="m15.265 557.54c1.478 0 2.805 0.347 3.981 1.041s2.083 1.671 2.721 2.931 0.957 2.707 0.957 4.342c0 2.464-0.747 5.123-2.242 7.979-1.495 2.855-3.485 5.448-5.971 7.777h-5.123c1.332-1.153 2.743-2.724 4.232-4.712 1.49-1.987 2.542-3.737 3.158-5.249-0.84 0.359-1.735 0.538-2.687 0.538-1.859 0-3.396-0.664-4.611-1.991s-1.823-3.026-1.823-5.098c0-1.366 0.32-2.628 0.958-3.787s1.528-2.078 2.671-2.755c1.142-0.677 2.402-1.016 3.779-1.016zm-3.141 7.491c0 1.042 0.297 1.898 0.89 2.57 0.594 0.672 1.378 1.008 2.352 1.008 0.918 0 1.679-0.339 2.284-1.016 0.605-0.678 0.907-1.487 0.907-2.427 0-1.12-0.305-2.03-0.915-2.73-0.611-0.7-1.403-1.05-2.377-1.05-0.941 0-1.699 0.336-2.276 1.008s-0.865 1.551-0.865 2.637z"/><rect y="620.29" width="4.3" height="23.466"/><path d="m20.358 619.98c2.374 0 4.258 1.07 5.652 3.208 1.394 2.139 2.092 5.062 2.092 8.768 0 3.741-0.689 6.691-2.067 8.853-1.377 2.161-3.258 3.241-5.643 3.241-2.419 0-4.331-1.072-5.737-3.216-1.405-2.145-2.108-5.081-2.108-8.81 0-3.718 0.7-6.655 2.1-8.81 1.4-2.156 3.303-3.234 5.711-3.234zm-3.443 12.178c0 5.364 1.147 8.046 3.443 8.046 2.24 0 3.359-2.822 3.359-8.466 0-5.274-1.131-7.911-3.393-7.911-2.273 0-3.409 2.777-3.409 8.331z"/><rect x="2.348" y="682.74" width="4.3" height="23.466"/><rect x="20.505" y="682.74" width="4.3" height="23.466"/><rect x=".187" y="745.19" width="4.3" height="23.466"/><path d="m19.335 744.89c2.229 0 4.001 0.635 5.317 1.906 1.315 1.271 1.973 2.965 1.973 5.081 0 1.613-0.49 3.36-1.469 5.241-0.98 1.881-2.702 4.373-5.166 7.475h8.046v4.065h-15.201v-0.487c1.769-2.184 3.289-4.146 4.56-5.888 1.271-1.741 2.254-3.186 2.948-4.333 0.695-1.148 1.187-2.125 1.478-2.931 0.292-0.807 0.437-1.641 0.437-2.503 0-1.075-0.344-1.979-1.033-2.713-0.689-0.733-1.526-1.1-2.511-1.1-1.769 0-3.606 1.008-5.51 3.023v-4.602c2.005-1.489 4.049-2.234 6.131-2.234z"/><rect x="1.07" y="807.64" width="4.3" height="23.466"/><path d="m19.95 807.34c2.173 0 3.925 0.541 5.258 1.621 1.332 1.081 1.999 2.511 1.999 4.292 0 2.407-1.092 4.199-3.276 5.375 1.255 0.448 2.201 1.179 2.839 2.192s0.957 2.22 0.957 3.62c0 2.083-0.727 3.765-2.183 5.047s-3.371 1.924-5.745 1.924c-1.87 0-3.667-0.443-5.392-1.327v-4.133c0.952 0.639 1.826 1.101 2.621 1.386 0.795 0.286 1.607 0.429 2.435 0.429 1.098 0 1.996-0.311 2.696-0.933 0.7-0.621 1.05-1.43 1.05-2.427 0-1.097-0.386-1.974-1.159-2.629s-1.831-0.982-3.175-0.982h-0.268v-3.645h0.201c1.254 0 2.234-0.277 2.94-0.832 0.705-0.554 1.058-1.301 1.058-2.242 0-0.93-0.342-1.677-1.025-2.243-0.683-0.565-1.556-0.848-2.62-0.848-1.321 0-2.71 0.353-4.166 1.058v-3.678c1.467-0.683 3.119-1.025 4.955-1.025z"/><rect x=".286" y="870.09" width="4.3" height="23.466"/><path d="m26.003 869.79v13.689h1.998v3.444h-1.998v6.635h-4.3v-6.635h-9.592v-2.755l11.422-14.378zm-4.401 7.122-5.19 6.567h5.291v-6.567z"/><rect x=".797" y="932.54" width="4.3" height="23.466"/><path d="m26.866 932.54v3.964h-7.441v5.056l0.436-0.033h0.353c1.433 0 2.732 0.311 3.897 0.932 1.165 0.622 2.074 1.492 2.73 2.612 0.655 1.12 0.982 2.38 0.982 3.779 0 2.206-0.742 4.001-2.225 5.384-1.484 1.383-3.435 2.074-5.854 2.074-2.15 0-4.054-0.442-5.711-1.327v-3.93c1.747 1.075 3.421 1.612 5.022 1.612 1.254 0 2.301-0.35 3.141-1.05 0.84-0.699 1.26-1.587 1.26-2.662 0-1.209-0.482-2.153-1.445-2.83-0.963-0.678-2.273-1.016-3.93-1.016-0.784 0-1.652 0.1-2.604 0.302v-12.867z"/>
        <rect x="77.653" width="4.893" height="21.191"/><rect x="137.77" width="4.893" height="21.191"/><rect x="145.99" width="4.893" height="21.191"/><rect x="194.3" width="4.893" height="21.191"/><rect x="202.52" width="4.893" height="21.191"/><rect x="210.75" width="4.893" height="21.191"/><rect x="259.57" width="4.893" height="21.191"/><path d="m282.5 0h-4.892l-3.272 17.338-3.547-17.338h-5.015l5.382 21.191h6.177z"/><path d="m340.83 0h-4.892l-3.272 17.338-3.547-17.338h-5.015l5.382 21.191h6.177z"/><path d="m401.49 0h-4.892l-3.272 17.338-3.547-17.338h-5.015l5.382 21.191h6.177z"/><rect x="402.84" width="4.893" height="21.191"/><path d="m461.01 0h-4.893l-3.271 17.338-3.547-17.338h-5.015l5.381 21.191h6.177z"/><rect x="462.36" width="4.893" height="21.191"/><rect x="470.58" width="4.893" height="21.191"/><path d="m519.12 0h-4.892l-3.272 17.338-3.547-17.338h-5.015l5.382 21.191h6.176z"/><rect x="520.47" width="4.893" height="21.191"/><rect x="528.69" width="4.893" height="21.191"/><rect x="536.92" width="4.893" height="21.191"/><rect x="574.86" width="4.893" height="21.191"/><path d="m592.32 9.754 5.015-9.754h-5.076l-2.814 6.88-2.629-6.88h-5.199l4.893 9.938-5.29 11.253h5.106l3.058-8.165 3.18 8.165h5.229z"/><path d="m653.8 9.754 5.015-9.754h-5.076l-2.813 6.88-2.63-6.88h-5.198l4.892 9.938-5.29 11.253h5.107l3.058-8.165 3.18 8.165h5.229z"/><path d="m710.54 9.754 5.015-9.754h-5.076l-2.814 6.88-2.629-6.88h-5.199l4.893 9.938-5.29 11.253h5.106l3.058-8.165 3.18 8.165h5.229z"/><rect x="717.51" width="4.893" height="21.191"/><path d="m766.48 9.754 5.015-9.754h-5.076l-2.813 6.88-2.63-6.88h-5.198l4.892 9.938-5.29 11.253h5.107l3.058-8.165 3.18 8.165h5.229z"/><rect x="773.45" width="4.893" height="21.191"/><rect x="781.68" width="4.893" height="21.191"/><path d="m827.71 9.754 5.015-9.754h-5.076l-2.813 6.88-2.63-6.88h-5.198l4.892 9.938-5.29 11.253h5.107l3.058-8.165 3.18 8.165h5.229z"/><rect x="834.68" width="4.893" height="21.191"/><rect x="842.91" width="4.893" height="21.191"/><rect x="851.13" width="4.893" height="21.191"/><path d="m892.26 9.754 5.015-9.754h-5.076l-2.813 6.88-2.63-6.88h-5.198l4.892 9.938-5.29 11.253h5.107l3.058-8.165 3.18 8.165h5.229z"/><rect x="899.23" width="4.893" height="21.191"/><path d="m922.17 0h-4.893l-3.272 17.338-3.547-17.338h-5.015l5.382 21.191h6.177z"/><path d="m958.52 9.754 5.015-9.754h-5.076l-2.813 6.88-2.63-6.88h-5.198l4.893 9.938-5.29 11.253h5.106l3.058-8.165 3.18 8.165h5.229z"/><path d="m980.2 0h-4.892l-3.272 17.338-3.547-17.338h-5.015l5.382 21.191h6.177z"/>
        <path d="m65.599 56.513 7.372 16.741 7.186-16.741h5.281l-11.515 26.408h-1.754l-11.889-26.408z"/><path d="m84.181 118.55v3.938h-11.814v6.85h11.31v3.938h-11.31v7.409h12.076v3.938h-17.115v-26.073z"/><path d="m75.154 182.5c2.451 0 4.448 0.678 5.991 2.035 1.542 1.356 2.314 3.123 2.314 5.3 0 1.481-0.383 2.772-1.148 3.873s-1.9 1.969-3.406 2.603c0.834 0.448 1.574 1.058 2.221 1.829 0.647 0.772 1.45 2.072 2.408 3.901 1.592 3.16 2.774 5.338 3.546 6.532h-5.618c-0.386-0.572-0.908-1.487-1.568-2.743-1.443-2.775-2.501-4.644-3.173-5.609-0.671-0.964-1.318-1.648-1.941-2.053-0.622-0.404-1.337-0.606-2.146-0.606h-1.829v11.011h-5.039v-26.073zm-1.139 11.124c1.319 0 2.355-0.33 3.108-0.989 0.752-0.66 1.129-1.562 1.129-2.707 0-1.194-0.373-2.087-1.12-2.678s-1.81-0.886-3.191-0.886h-3.136v7.26z"/><path d="m139.14 182.17c2.539 0 4.983 0.635 7.335 1.904v4.479c-2.7-1.63-5.095-2.445-7.185-2.445-1.27 0-2.262 0.246-2.977 0.738-0.716 0.491-1.073 1.147-1.073 1.969 0 0.982 0.665 1.891 1.997 2.724 0.373 0.249 1.81 0.946 4.311 2.091 2.14 1.008 3.683 2.127 4.628 3.359 0.946 1.232 1.419 2.713 1.419 4.442 0 2.24-0.806 4.047-2.417 5.422s-3.699 2.062-6.262 2.062c-1.667 0-3.101-0.183-4.302-0.55-1.2-0.368-2.547-0.999-4.04-1.895v-4.964c2.787 2.314 5.412 3.471 7.876 3.471 1.232 0 2.227-0.267 2.986-0.802s1.138-1.245 1.138-2.128c0-1.207-0.659-2.19-1.978-2.949-1.095-0.597-2.507-1.313-4.237-2.146-2.053-0.933-3.586-2.022-4.6-3.266-1.014-1.245-1.521-2.688-1.521-4.33 0-2.19 0.815-3.935 2.445-5.235 1.63-1.301 3.782-1.951 6.457-1.951z"/><path d="m278.13 182.5v3.938h-9.257v22.135h-5.039v-22.135h-9.257v-3.938z"/><path d="m338.89 182.5v3.938h-11.814v6.85h11.31v3.938h-11.31v7.409h12.075v3.938h-17.114v-26.073z"/><path d="m394.01 182.17c2.538 0 4.983 0.635 7.335 1.904v4.479c-2.7-1.63-5.095-2.445-7.186-2.445-1.269 0-2.261 0.246-2.976 0.738-0.716 0.491-1.073 1.147-1.073 1.969 0 0.982 0.665 1.891 1.997 2.724 0.373 0.249 1.81 0.946 4.311 2.091 2.14 1.008 3.683 2.127 4.628 3.359 0.946 1.232 1.419 2.713 1.419 4.442 0 2.24-0.806 4.047-2.417 5.422s-3.699 2.062-6.262 2.062c-1.667 0-3.101-0.183-4.302-0.55-1.2-0.368-2.547-0.999-4.04-1.895v-4.964c2.787 2.314 5.412 3.471 7.876 3.471 1.231 0 2.227-0.267 2.986-0.802s1.138-1.245 1.138-2.128c0-1.207-0.659-2.19-1.978-2.949-1.095-0.597-2.507-1.313-4.237-2.146-2.053-0.933-3.586-2.022-4.6-3.266-1.014-1.245-1.521-2.688-1.521-4.33 0-2.19 0.815-3.935 2.445-5.235 1.63-1.301 3.782-1.951 6.457-1.951z"/><path d="m469.28 182.5v3.938h-9.257v22.135h-5.039v-22.135h-9.257v-3.938z"/><path d="m523.41 182.5 11.515 26.073h-5.319l-2.706-6.345h-11.59l-2.519 6.345h-5.282l10.75-26.073zm-6.569 15.902h8.417l-4.405-10.321z"/><path d="m576.39 182.5 8.567 10.284 8.566-10.284h4.498v26.073h-5.039v-18.309h-0.149l-7.54 9.183h-0.709l-7.54-9.183h-0.15v18.309h-5.039v-26.073z"/><path d="m657.47 182.5v3.938h-11.814v6.85h11.31v3.938h-11.31v7.409h12.075v3.938h-17.114v-26.073z"/><path d="m704.38 182.5 15.491 18.197v-18.197h4.927v26.073h-4.33l-15.584-18.495v18.495h-4.927v-26.073z"/><path d="m787.86 182.5v3.938h-9.257v22.135h-5.039v-22.135h-9.258v-3.938z"/><path d="m896.76 182.5v10.974h13.531v-10.974h5.039v26.073h-5.039v-11.011h-13.531v11.011h-5.04v-26.073z"/><rect x="964.72" y="182.5" width="5.039" height="26.073"/><path d="m75.582 244.04c2.538 0 4.983 0.634 7.335 1.903v4.48c-2.7-1.63-5.095-2.445-7.186-2.445-1.269 0-2.261 0.245-2.977 0.737-0.715 0.491-1.073 1.148-1.073 1.969 0 0.983 0.666 1.891 1.997 2.725 0.374 0.249 1.811 0.945 4.312 2.09 2.14 1.008 3.682 2.128 4.628 3.359 0.946 1.232 1.419 2.713 1.419 4.442 0 2.24-0.806 4.047-2.417 5.422-1.612 1.375-3.699 2.062-6.262 2.062-1.667 0-3.101-0.183-4.302-0.55s-2.547-0.999-4.041-1.895v-4.964c2.788 2.314 5.413 3.471 7.876 3.471 1.232 0 2.228-0.267 2.987-0.802s1.138-1.244 1.138-2.128c0-1.207-0.659-2.19-1.978-2.949-1.095-0.597-2.507-1.312-4.237-2.146-2.053-0.933-3.586-2.022-4.6-3.266s-1.521-2.688-1.521-4.33c0-2.19 0.814-3.935 2.444-5.235s3.783-1.95 6.458-1.95z"/><path d="m147.89 244.37v3.938h-11.813v6.849h11.31v3.938h-11.31v7.409h12.075v3.938h-17.115v-26.072z"/><path d="m205.49 244.04c1.48 0 2.93 0.168 4.348 0.504 1.419 0.335 2.949 0.908 4.592 1.717v4.74c-1.605-0.921-3.089-1.586-4.452-1.997-1.362-0.411-2.784-0.616-4.264-0.616-1.854 0-3.528 0.383-5.021 1.148s-2.653 1.845-3.48 3.238c-0.828 1.394-1.242 2.943-1.242 4.647 0 1.742 0.411 3.304 1.232 4.685s1.979 2.448 3.472 3.201c1.493 0.752 3.172 1.129 5.039 1.129 1.431 0 2.796-0.206 4.096-0.616 1.301-0.411 2.94-1.151 4.918-2.221v4.74c-1.692 0.884-3.247 1.512-4.666 1.885-1.418 0.374-3.073 0.56-4.964 0.56-2.75 0-5.207-0.547-7.372-1.642s-3.867-2.672-5.105-4.731-1.857-4.315-1.857-6.766c0-2.625 0.638-4.983 1.913-7.073 1.276-2.09 3.03-3.702 5.263-4.834 2.234-1.132 4.75-1.698 7.55-1.698z"/><path d="m268.7 244.37 11.515 26.072h-5.319l-2.706-6.345h-11.59l-2.52 6.345h-5.281l10.75-26.072zm-6.57 15.901h8.418l-4.405-10.321z"/><path d="m322.24 244.37 15.491 18.196v-18.196h4.927v26.072h-4.33l-15.584-18.495v18.495h-4.927v-26.072z"/><path d="m405.72 244.37v3.938h-9.258v22.134h-5.039v-22.134h-9.257v-3.938z"/><path d="m521.33 244.37c2.451 0 4.448 0.678 5.991 2.034s2.314 3.123 2.314 5.3c0 1.481-0.382 2.772-1.147 3.873-0.766 1.101-1.901 1.969-3.406 2.604 0.833 0.447 1.573 1.057 2.22 1.829 0.647 0.771 1.45 2.071 2.408 3.9 1.593 3.161 2.775 5.338 3.546 6.532h-5.618c-0.385-0.572-0.908-1.486-1.567-2.743-1.444-2.775-2.501-4.644-3.173-5.609-0.672-0.964-1.319-1.648-1.941-2.052-0.622-0.405-1.338-0.607-2.146-0.607h-1.829v11.011h-5.04v-26.072zm-1.138 11.123c1.319 0 2.354-0.33 3.107-0.989 0.753-0.66 1.129-1.562 1.129-2.706 0-1.195-0.373-2.088-1.119-2.679-0.747-0.591-1.811-0.886-3.192-0.886h-3.135v7.26z"/><path d="m646.15 244.37v22.134h12.654v3.938h-17.693v-26.072z"/><path d="m721.35 244.37v3.938h-11.814v6.849h11.31v3.938h-11.31v7.409h12.076v3.938h-17.115v-26.072z"/><path d="m778.44 244.37 11.515 26.072h-5.319l-2.706-6.345h-11.59l-2.52 6.345h-5.282l10.751-26.072zm-6.57 15.901h8.417l-4.404-10.321z"/><path d="m832.7 244.37 7.372 16.741 7.185-16.741h5.282l-11.515 26.408h-1.755l-11.888-26.408z"/><path d="m912.5 244.37v3.938h-11.814v6.849h11.31v3.938h-11.31v7.409h12.075v3.938h-17.114v-26.072z"/><path d="m959.41 244.37 15.49 18.196v-18.196h4.928v26.072h-4.33l-15.584-18.495v18.495h-4.927v-26.072z"/><path d="m87.292 306.24v3.938h-9.257v22.135h-5.039v-22.135h-9.257v-3.938z"/><path d="m139.19 306.24c2.451 0 4.448 0.678 5.991 2.034s2.314 3.123 2.314 5.301c0 1.48-0.382 2.771-1.148 3.872-0.765 1.101-1.9 1.969-3.406 2.604 0.834 0.448 1.574 1.057 2.221 1.829 0.647 0.771 1.45 2.071 2.408 3.9 1.592 3.161 2.775 5.338 3.546 6.533h-5.618c-0.385-0.573-0.908-1.487-1.567-2.744-1.444-2.775-2.501-4.644-3.173-5.608-0.672-0.965-1.319-1.649-1.941-2.053-0.622-0.405-1.338-0.607-2.147-0.607h-1.829v11.012h-5.039v-26.073zm-1.138 11.123c1.318 0 2.354-0.33 3.107-0.989s1.129-1.561 1.129-2.706c0-1.195-0.373-2.087-1.12-2.678-0.746-0.591-1.81-0.887-3.191-0.887h-3.136v7.26z"/><path d="m205.14 306.24 11.515 26.073h-5.319l-2.706-6.346h-11.59l-2.52 6.346h-5.282l10.75-26.073zm-6.57 15.901h8.417l-4.404-10.321z"/><path d="m258.68 306.24 15.49 18.197v-18.197h4.927v26.073h-4.329l-15.584-18.496v18.496h-4.928v-26.073z"/><path d="m330.61 305.9c2.538 0 4.983 0.634 7.334 1.904v4.479c-2.7-1.63-5.095-2.445-7.185-2.445-1.269 0-2.262 0.246-2.977 0.737-0.715 0.492-1.073 1.148-1.073 1.969 0 0.983 0.666 1.891 1.997 2.725 0.373 0.249 1.81 0.946 4.311 2.09 2.14 1.008 3.683 2.128 4.629 3.36 0.945 1.231 1.418 2.712 1.418 4.442 0 2.239-0.806 4.046-2.417 5.421s-3.698 2.063-6.261 2.063c-1.668 0-3.102-0.184-4.302-0.551-1.201-0.367-2.548-0.998-4.041-1.894v-4.965c2.787 2.314 5.412 3.472 7.876 3.472 1.232 0 2.227-0.268 2.986-0.803s1.139-1.244 1.139-2.128c0-1.206-0.66-2.189-1.979-2.948-1.095-0.598-2.507-1.313-4.236-2.147-2.053-0.933-3.587-2.022-4.601-3.266s-1.521-2.687-1.521-4.33c0-2.19 0.815-3.935 2.445-5.235s3.782-1.95 6.458-1.95z"/><path d="m518.88 306.24v22.135h12.654v3.938h-17.693v-26.073z"/><path d="m712.91 305.9c2.539 0 4.984 0.634 7.335 1.904v4.479c-2.7-1.63-5.095-2.445-7.185-2.445-1.269 0-2.262 0.246-2.977 0.737-0.716 0.492-1.073 1.148-1.073 1.969 0 0.983 0.665 1.891 1.997 2.725 0.373 0.249 1.81 0.946 4.311 2.09 2.14 1.008 3.683 2.128 4.629 3.36 0.945 1.231 1.418 2.712 1.418 4.442 0 2.239-0.806 4.046-2.417 5.421s-3.698 2.063-6.262 2.063c-1.667 0-3.101-0.184-4.301-0.551-1.201-0.367-2.548-0.998-4.041-1.894v-4.965c2.787 2.314 5.412 3.472 7.876 3.472 1.232 0 2.227-0.268 2.986-0.803s1.138-1.244 1.138-2.128c0-1.206-0.659-2.189-1.978-2.948-1.095-0.598-2.507-1.313-4.236-2.147-2.053-0.933-3.587-2.022-4.601-3.266s-1.521-2.687-1.521-4.33c0-2.19 0.815-3.935 2.445-5.235s3.782-1.95 6.457-1.95z"/><path d="m779.1 305.9c1.481 0 2.93 0.168 4.349 0.504 1.418 0.336 2.949 0.908 4.591 1.717v4.74c-1.605-0.92-3.089-1.586-4.451-1.997-1.363-0.41-2.784-0.616-4.265-0.616-1.854 0-3.527 0.383-5.02 1.148s-2.654 1.845-3.481 3.238c-0.827 1.394-1.241 2.943-1.241 4.648 0 1.741 0.411 3.303 1.232 4.684s1.978 2.448 3.471 3.201 3.173 1.129 5.039 1.129c1.431 0 2.797-0.205 4.097-0.616s2.939-1.151 4.918-2.221v4.741c-1.692 0.883-3.248 1.511-4.666 1.885-1.419 0.373-3.073 0.56-4.965 0.56-2.749 0-5.207-0.548-7.372-1.643s-3.866-2.672-5.104-4.731-1.857-4.314-1.857-6.765c0-2.626 0.638-4.984 1.913-7.074s3.03-3.702 5.263-4.834 4.75-1.698 7.549-1.698z"/><path d="m848.94 306.24v3.938h-11.814v6.849h11.31v3.938h-11.31v7.41h12.075v3.938h-17.114v-26.073z"/><path d="m895.85 306.24 15.491 18.197v-18.197h4.927v26.073h-4.33l-15.584-18.496v18.496h-4.927v-26.073z"/><path d="m979.33 306.24v3.938h-9.257v22.135h-5.039v-22.135h-9.257v-3.938z"/><path d="m151.17 368.11v3.938h-9.257v22.135h-5.039v-22.135h-9.257v-3.938z"/><path d="m195.12 368.11 15.491 18.197v-18.197h4.927v26.073h-4.33l-15.584-18.496v18.496h-4.927v-26.073z"/><path d="m269.02 368.11 11.516 26.073h-5.32l-2.706-6.346h-11.59l-2.519 6.346h-5.282l10.75-26.073zm-6.569 15.901h8.417l-4.405-10.321z"/><path d="m458.2 367.77c2.538 0 4.983 0.635 7.335 1.904v4.479c-2.7-1.63-5.095-2.445-7.186-2.445-1.269 0-2.261 0.246-2.976 0.737-0.716 0.492-1.073 1.148-1.073 1.969 0 0.983 0.665 1.892 1.996 2.725 0.374 0.249 1.811 0.946 4.312 2.09 2.14 1.008 3.683 2.128 4.628 3.36 0.946 1.232 1.419 2.712 1.419 4.442 0 2.239-0.806 4.047-2.417 5.422-1.611 1.374-3.699 2.062-6.262 2.062-1.667 0-3.101-0.184-4.302-0.551-1.2-0.367-2.547-0.998-4.04-1.894v-4.965c2.787 2.315 5.412 3.472 7.876 3.472 1.231 0 2.227-0.268 2.986-0.803s1.138-1.244 1.138-2.127c0-1.207-0.659-2.19-1.978-2.949-1.095-0.597-2.507-1.313-4.237-2.146-2.053-0.934-3.586-2.022-4.6-3.267-1.014-1.244-1.521-2.687-1.521-4.329 0-2.19 0.815-3.935 2.445-5.236 1.63-1.3 3.782-1.95 6.457-1.95z"/><path d="m530.51 368.11v3.938h-11.814v6.85h11.31v3.938h-11.31v7.409h12.075v3.938h-17.114v-26.073z"/><path d="m587.4 367.77c3.21 0 6.395 0.716 9.555 2.146v4.61c-3.16-1.605-6.27-2.407-9.331-2.407-1.904 0-3.596 0.379-5.077 1.138-1.48 0.759-2.628 1.851-3.443 3.276-0.815 1.424-1.223 3.014-1.223 4.768 0 2.663 0.887 4.806 2.66 6.43 1.773 1.623 4.109 2.435 7.008 2.435 0.796 0 1.559-0.068 2.286-0.205 0.728-0.137 1.596-0.398 2.604-0.784v-4.33h-4.311v-3.938h9.35v10.75c-1.281 0.896-2.821 1.596-4.619 2.1s-3.667 0.756-5.608 0.756c-2.75 0-5.242-0.566-7.475-1.699-2.234-1.132-3.976-2.718-5.226-4.759-1.25-2.04-1.876-4.317-1.876-6.831 0-2.55 0.632-4.858 1.895-6.924 1.263-2.065 3.023-3.67 5.281-4.815 2.259-1.145 4.775-1.717 7.55-1.717z"/><path d="m788.34 368.11v3.938h-9.257v22.135h-5.039v-22.135h-9.258v-3.938z"/><path d="m840.23 368.11c2.452 0 4.449 0.678 5.991 2.034 1.543 1.357 2.315 3.123 2.315 5.301 0 1.48-0.383 2.771-1.148 3.872-0.765 1.102-1.901 1.969-3.406 2.604 0.833 0.448 1.574 1.058 2.221 1.829s1.449 2.072 2.407 3.901c1.593 3.16 2.775 5.337 3.546 6.532h-5.617c-0.386-0.572-0.909-1.487-1.568-2.744-1.443-2.774-2.501-4.644-3.173-5.608s-1.319-1.649-1.941-2.053-1.337-0.607-2.146-0.607h-1.829v11.012h-5.039v-26.073zm-1.138 11.123c1.319 0 2.355-0.329 3.107-0.989 0.753-0.659 1.13-1.561 1.13-2.706 0-1.194-0.374-2.087-1.12-2.678-0.747-0.591-1.811-0.887-3.192-0.887h-3.135v7.26z"/><path d="m912.81 368.11v3.938h-11.814v6.85h11.31v3.938h-11.31v7.409h12.075v3.938h-17.115v-26.073z"/><path d="m215.04 429.98v3.938h-9.257v22.135h-5.04v-22.135h-9.257v-3.938z"/><rect x="391.9" y="429.98" width="5.039" height="26.073"/><path d="m460.83 429.64c1.48 0 2.93 0.168 4.348 0.504 1.419 0.336 2.949 0.909 4.592 1.717v4.741c-1.606-0.921-3.089-1.587-4.452-1.997-1.362-0.411-2.784-0.616-4.264-0.616-1.854 0-3.528 0.383-5.021 1.148s-2.653 1.844-3.48 3.238c-0.828 1.393-1.242 2.942-1.242 4.647 0 1.742 0.411 3.303 1.232 4.685 0.821 1.381 1.979 2.448 3.472 3.2 1.493 0.753 3.172 1.129 5.039 1.129 1.431 0 2.796-0.205 4.096-0.615 1.301-0.411 2.94-1.151 4.918-2.221v4.74c-1.692 0.884-3.247 1.512-4.666 1.885-1.418 0.373-3.073 0.56-4.964 0.56-2.75 0-5.207-0.547-7.372-1.642s-3.867-2.672-5.105-4.731c-1.238-2.06-1.857-4.315-1.857-6.766 0-2.625 0.638-4.983 1.913-7.073 1.276-2.091 3.03-3.702 5.263-4.834 2.234-1.133 4.75-1.699 7.55-1.699z"/><path d="m533.63 429.98v3.938h-9.257v22.135h-5.039v-22.135h-9.257v-3.938z"/><path d="m578.71 429.98v15.174c0 1.555 0.233 2.793 0.7 3.714 0.466 0.92 1.229 1.679 2.286 2.277 1.058 0.597 2.29 0.895 3.696 0.895 1.542 0 2.852-0.283 3.928-0.849s1.863-1.337 2.361-2.314 0.747-2.33 0.747-4.059v-14.838h5.039v15.491c0 3.509-1.052 6.206-3.154 8.091-2.103 1.885-5.077 2.827-8.921 2.827-2.414 0-4.508-0.429-6.281-1.288-1.773-0.858-3.126-2.099-4.059-3.723s-1.4-3.531-1.4-5.72v-15.678z"/><path d="m649.51 429.64c2.538 0 4.983 0.635 7.335 1.904v4.479c-2.7-1.63-5.096-2.445-7.186-2.445-1.269 0-2.261 0.246-2.977 0.738-0.715 0.491-1.073 1.147-1.073 1.969 0 0.982 0.666 1.891 1.997 2.724 0.373 0.249 1.81 0.946 4.311 2.091 2.14 1.008 3.683 2.127 4.629 3.359 0.945 1.232 1.418 2.713 1.418 4.442 0 2.24-0.805 4.047-2.417 5.422-1.611 1.375-3.698 2.062-6.261 2.062-1.667 0-3.101-0.183-4.302-0.551-1.201-0.367-2.548-0.998-4.041-1.894v-4.964c2.787 2.314 5.413 3.471 7.876 3.471 1.232 0 2.227-0.267 2.986-0.802s1.139-1.245 1.139-2.128c0-1.207-0.66-2.19-1.978-2.949-1.095-0.597-2.508-1.313-4.237-2.146-2.053-0.933-3.587-2.022-4.601-3.266-1.014-1.245-1.521-2.688-1.521-4.33 0-2.19 0.815-3.935 2.445-5.235 1.63-1.301 3.783-1.951 6.458-1.951z"/><path d="m840.66 429.64c2.538 0 4.983 0.635 7.334 1.904v4.479c-2.7-1.63-5.095-2.445-7.185-2.445-1.269 0-2.261 0.246-2.977 0.738-0.715 0.491-1.073 1.147-1.073 1.969 0 0.982 0.666 1.891 1.997 2.724 0.373 0.249 1.81 0.946 4.311 2.091 2.14 1.008 3.683 2.127 4.629 3.359 0.945 1.232 1.418 2.713 1.418 4.442 0 2.24-0.805 4.047-2.417 5.422-1.611 1.375-3.698 2.062-6.261 2.062-1.668 0-3.102-0.183-4.302-0.551-1.201-0.367-2.548-0.998-4.041-1.894v-4.964c2.787 2.314 5.413 3.471 7.876 3.471 1.232 0 2.227-0.267 2.986-0.802s1.139-1.245 1.139-2.128c0-1.207-0.66-2.19-1.979-2.949-1.094-0.597-2.507-1.313-4.236-2.146-2.053-0.933-3.587-2.022-4.601-3.266-1.014-1.245-1.521-2.688-1.521-4.33 0-2.19 0.815-3.935 2.445-5.235 1.63-1.301 3.783-1.951 6.458-1.951z"/><path d="m76.213 491.51c2.538 0 4.983 0.634 7.334 1.903v4.48c-2.7-1.63-5.095-2.445-7.185-2.445-1.269 0-2.261 0.245-2.977 0.737-0.715 0.491-1.073 1.148-1.073 1.969 0 0.983 0.666 1.891 1.997 2.725 0.373 0.249 1.81 0.945 4.311 2.09 2.14 1.008 3.683 2.128 4.629 3.359 0.945 1.232 1.418 2.713 1.418 4.442 0 2.24-0.805 4.047-2.417 5.422-1.611 1.375-3.698 2.062-6.261 2.062-1.668 0-3.102-0.183-4.302-0.55-1.201-0.367-2.548-0.999-4.041-1.895v-4.964c2.787 2.314 5.413 3.471 7.876 3.471 1.232 0 2.227-0.267 2.986-0.802s1.139-1.244 1.139-2.128c0-1.207-0.66-2.19-1.979-2.949-1.095-0.597-2.507-1.312-4.236-2.146-2.053-0.933-3.587-2.022-4.601-3.266s-1.521-2.688-1.521-4.33c0-2.19 0.815-3.935 2.445-5.235s3.783-1.95 6.458-1.95z"/><path d="m141.5 491.85c2.439 0 4.42 0.706 5.945 2.118 1.524 1.412 2.286 3.232 2.286 5.459 0 2.252-0.771 4.075-2.314 5.468-1.543 1.394-3.577 2.091-6.103 2.091h-4.853v10.936h-5.039v-26.072zm-1.25 11.198c1.344 0 2.392-0.308 3.145-0.924 0.752-0.616 1.129-1.528 1.129-2.734 0-2.402-1.543-3.602-4.629-3.602h-3.434v7.26z"/><rect x="200.9" y="491.85" width="5.039" height="26.073"/><path d="m259.15 491.85 15.49 18.196v-18.196h4.927v26.072h-4.329l-15.584-18.495v18.495h-4.928v-26.072z"/><path d="m330.87 491.51c2.7 0 5.129 0.556 7.288 1.67s3.879 2.719 5.16 4.815c1.282 2.097 1.923 4.395 1.923 6.896 0 2.439-0.625 4.7-1.876 6.784-1.25 2.085-2.967 3.702-5.151 4.853s-4.644 1.726-7.381 1.726c-2.7 0-5.155-0.584-7.363-1.754-2.209-1.17-3.929-2.778-5.161-4.825-1.231-2.046-1.847-4.308-1.847-6.784 0-2.389 0.616-4.634 1.847-6.737 1.232-2.103 2.931-3.736 5.096-4.899 2.165-1.164 4.653-1.745 7.465-1.745zm-9.201 13.381c0 1.73 0.392 3.285 1.176 4.666s1.875 2.451 3.275 3.21 2.983 1.139 4.75 1.139c2.675 0 4.874-0.84 6.597-2.52 1.724-1.68 2.585-3.844 2.585-6.495 0-1.729-0.388-3.288-1.166-4.675s-1.873-2.46-3.285-3.219-3.002-1.139-4.768-1.139c-1.767 0-3.357 0.383-4.769 1.148s-2.498 1.835-3.257 3.21-1.138 2.933-1.138 4.675z"/><path d="m406.22 491.85-15.192 22.134h15.266v3.938h-23.926l15.173-22.134h-14.259v-3.938z"/><path d="m460.48 491.85 11.516 26.072h-5.319l-2.706-6.345h-11.59l-2.52 6.345h-5.282l10.75-26.072zm-6.569 15.901h8.417l-4.404-10.321z"/><path d="m587.92 491.85 11.516 26.072h-5.319l-2.706-6.345h-11.59l-2.52 6.345h-5.282l10.75-26.072zm-6.569 15.901h8.417l-4.404-10.321z"/><path d="m642.58 491.85v15.173c0 1.555 0.233 2.793 0.7 3.714 0.466 0.921 1.228 1.68 2.286 2.277 1.057 0.597 2.289 0.896 3.695 0.896 1.543 0 2.853-0.283 3.929-0.849 1.076-0.567 1.863-1.338 2.361-2.315 0.497-0.976 0.746-2.33 0.746-4.059v-14.837h5.039v15.49c0 3.509-1.051 6.206-3.154 8.091-2.102 1.885-5.076 2.827-8.921 2.827-2.414 0-4.507-0.429-6.28-1.287-1.773-0.859-3.126-2.1-4.059-3.724-0.934-1.624-1.4-3.53-1.4-5.72v-15.677z"/><path d="m715.86 491.51c1.481 0 2.93 0.168 4.349 0.504 1.418 0.335 2.949 0.908 4.591 1.717v4.74c-1.605-0.921-3.089-1.586-4.451-1.997-1.363-0.411-2.784-0.616-4.265-0.616-1.854 0-3.527 0.383-5.02 1.148s-2.654 1.845-3.481 3.238c-0.827 1.394-1.241 2.943-1.241 4.647 0 1.742 0.411 3.304 1.232 4.685s1.978 2.448 3.471 3.201c1.493 0.752 3.173 1.129 5.039 1.129 1.431 0 2.797-0.206 4.097-0.616 1.3-0.411 2.939-1.151 4.918-2.221v4.74c-1.692 0.884-3.248 1.512-4.666 1.885-1.419 0.374-3.073 0.56-4.965 0.56-2.749 0-5.207-0.547-7.372-1.642s-3.866-2.672-5.104-4.731-1.857-4.315-1.857-6.766c0-2.625 0.638-4.983 1.913-7.073s3.03-3.702 5.263-4.834 4.75-1.698 7.549-1.698z"/><path d="m788.65 491.85v3.938h-9.257v22.134h-5.039v-22.134h-9.257v-3.938z"/><rect x="838.07" y="491.85" width="5.039" height="26.073"/><path d="m904.32 491.51c2.7 0 5.129 0.556 7.288 1.67s3.879 2.719 5.16 4.815c1.282 2.097 1.923 4.395 1.923 6.896 0 2.439-0.626 4.7-1.876 6.784-1.251 2.085-2.968 3.702-5.151 4.853-2.184 1.151-4.644 1.726-7.382 1.726-2.7 0-5.154-0.584-7.362-1.754-2.209-1.17-3.929-2.778-5.161-4.825-1.232-2.046-1.847-4.308-1.847-6.784 0-2.389 0.615-4.634 1.847-6.737s2.93-3.736 5.095-4.899c2.165-1.164 4.654-1.745 7.466-1.745zm-9.201 13.381c0 1.73 0.392 3.285 1.175 4.666 0.784 1.381 1.876 2.451 3.276 3.21s2.983 1.139 4.75 1.139c2.675 0 4.874-0.84 6.597-2.52s2.585-3.844 2.585-6.495c0-1.729-0.389-3.288-1.166-4.675-0.778-1.387-1.873-2.46-3.285-3.219s-3.002-1.139-4.769-1.139c-1.766 0-3.356 0.383-4.768 1.148s-2.498 1.835-3.257 3.21-1.138 2.933-1.138 4.675z"/><path d="m960.04 491.85 15.491 18.196v-18.196h4.927v26.072h-4.33l-15.584-18.495v18.495h-4.927v-26.072z"/><path d="m206.28 553.38c1.481 0 2.93 0.168 4.349 0.504 1.418 0.336 2.949 0.908 4.591 1.717v4.74c-1.605-0.92-3.089-1.586-4.451-1.997-1.363-0.41-2.784-0.616-4.265-0.616-1.854 0-3.527 0.383-5.02 1.148s-2.654 1.845-3.481 3.238c-0.827 1.394-1.241 2.943-1.241 4.648 0 1.741 0.41 3.303 1.232 4.684 0.821 1.381 1.978 2.448 3.471 3.201s3.173 1.129 5.039 1.129c1.431 0 2.797-0.205 4.097-0.616s2.939-1.151 4.918-2.221v4.741c-1.693 0.883-3.248 1.511-4.666 1.885-1.419 0.373-3.074 0.56-4.965 0.56-2.75 0-5.207-0.548-7.372-1.643s-3.866-2.672-5.104-4.731-1.857-4.314-1.857-6.765c0-2.626 0.637-4.984 1.913-7.074 1.275-2.09 3.029-3.702 5.263-4.834 2.233-1.132 4.75-1.698 7.549-1.698z"/><path d="m403.55 553.71v3.938h-11.814v6.849h11.31v3.938h-11.31v7.41h12.075v3.938h-17.114v-26.073z"/><path d="m455.79 553.71v22.135h12.653v3.938h-17.692v-26.073z"/><path d="m524.36 553.71 11.515 26.073h-5.319l-2.706-6.346h-11.59l-2.519 6.346h-5.282l10.75-26.073zm-6.569 15.901h8.417l-4.405-10.321z"/><path d="m577.89 553.71 15.491 18.197v-18.197h4.927v26.073h-4.33l-15.584-18.496v18.496h-4.927v-26.073z"/><path d="m648.62 553.71c2.713 0 5.127 0.553 7.242 1.661 2.115 1.107 3.757 2.662 4.927 4.666 1.169 2.003 1.754 4.255 1.754 6.756 0 2.551-0.588 4.812-1.763 6.784-1.176 1.972-2.847 3.499-5.012 4.582-2.165 1.082-4.647 1.624-7.446 1.624h-10.62v-26.073zm-0.522 22.135c2.787 0 5.023-0.837 6.709-2.511 1.686-1.673 2.529-3.866 2.529-6.578 0-2.812-0.849-5.033-2.547-6.663-1.699-1.63-3.985-2.445-6.859-2.445h-5.189v18.197z"/><path d="m843.45 553.38c1.481 0 2.93 0.168 4.349 0.504 1.418 0.336 2.948 0.908 4.591 1.717v4.74c-1.605-0.92-3.089-1.586-4.451-1.997-1.363-0.41-2.784-0.616-4.265-0.616-1.854 0-3.527 0.383-5.021 1.148-1.493 0.765-2.653 1.845-3.48 3.238-0.828 1.394-1.241 2.943-1.241 4.648 0 1.741 0.41 3.303 1.231 4.684 0.822 1.381 1.979 2.448 3.472 3.201s3.173 1.129 5.039 1.129c1.431 0 2.796-0.205 4.097-0.616 1.3-0.411 2.939-1.151 4.917-2.221v4.741c-1.692 0.883-3.247 1.511-4.666 1.885-1.418 0.373-3.073 0.56-4.964 0.56-2.75 0-5.207-0.548-7.372-1.643s-3.866-2.672-5.104-4.731c-1.239-2.059-1.858-4.314-1.858-6.765 0-2.626 0.638-4.984 1.913-7.074 1.276-2.09 3.03-3.702 5.264-4.834 2.233-1.132 4.749-1.698 7.549-1.698z"/><path d="m142.21 615.58 11.515 26.073h-5.319l-2.706-6.346h-11.59l-2.52 6.346h-5.281l10.75-26.073zm-6.57 15.901h8.418l-4.405-10.321z"/><path d="m201.08 615.58v22.135h12.654v3.938h-17.693v-26.073z"/><path d="m279.23 615.58v3.938h-9.257v22.135h-5.04v-22.135h-9.257v-3.938z"/><path d="m460.8 615.58 11.515 26.073h-5.319l-2.706-6.346h-11.59l-2.52 6.346h-5.281l10.75-26.073zm-6.57 15.901h8.418l-4.405-10.321z"/><path d="m521.34 615.58c2.712 0 5.126 0.554 7.241 1.661 2.116 1.107 3.758 2.663 4.928 4.666 1.169 2.003 1.754 4.255 1.754 6.756 0 2.551-0.588 4.812-1.764 6.784s-2.846 3.5-5.011 4.582c-2.165 1.083-4.647 1.624-7.447 1.624h-10.619v-26.073zm-0.523 22.135c2.788 0 5.024-0.837 6.71-2.51 1.686-1.674 2.529-3.867 2.529-6.579 0-2.812-0.849-5.033-2.548-6.663-1.698-1.63-3.984-2.445-6.859-2.445h-5.188v18.197z"/><path d="m586.05 615.25c2.7 0 5.13 0.557 7.288 1.67 2.159 1.114 3.879 2.719 5.161 4.816 1.281 2.096 1.922 4.395 1.922 6.896 0 2.438-0.625 4.7-1.876 6.784-1.25 2.084-2.967 3.702-5.151 4.852-2.183 1.151-4.644 1.727-7.381 1.727-2.7 0-5.154-0.585-7.363-1.755-2.208-1.169-3.929-2.777-5.16-4.824-1.232-2.047-1.848-4.308-1.848-6.784 0-2.389 0.616-4.635 1.848-6.738 1.231-2.102 2.93-3.736 5.095-4.899s4.653-1.745 7.465-1.745zm-9.201 13.382c0 1.729 0.392 3.285 1.176 4.666s1.876 2.451 3.275 3.21c1.4 0.759 2.983 1.138 4.75 1.138 2.675 0 4.874-0.84 6.598-2.519 1.723-1.68 2.585-3.845 2.585-6.495 0-1.73-0.389-3.288-1.167-4.675-0.778-1.388-1.872-2.461-3.285-3.22-1.412-0.759-3.001-1.138-4.768-1.138s-3.356 0.382-4.769 1.147c-1.412 0.766-2.497 1.836-3.256 3.211-0.759 1.374-1.139 2.933-1.139 4.675z"/><path d="m785.72 615.58v3.938h-10.862v6.738h10.862v3.975h-10.862v11.422h-5.039v-26.073z"/><path d="m838.25 615.58v22.135h12.654v3.938h-17.693v-26.073z"/><path d="m897.77 615.58v15.173c0 1.556 0.233 2.794 0.7 3.714 0.466 0.921 1.228 1.68 2.286 2.277 1.058 0.598 2.289 0.896 3.695 0.896 1.543 0 2.853-0.283 3.929-0.849s1.863-1.337 2.361-2.314 0.747-2.33 0.747-4.06v-14.837h5.039v15.491c0 3.508-1.052 6.205-3.154 8.09-2.103 1.885-5.077 2.828-8.922 2.828-2.413 0-4.507-0.429-6.28-1.288-1.773-0.858-3.126-2.1-4.059-3.723-0.933-1.624-1.4-3.531-1.4-5.721v-15.677z"/><path d="m78.253 677.45c2.439 0 4.421 0.706 5.945 2.119 1.524 1.412 2.286 3.231 2.286 5.459 0 2.252-0.771 4.075-2.314 5.468-1.543 1.394-3.577 2.09-6.103 2.09h-4.853v10.937h-5.039v-26.073zm-1.25 11.198c1.344 0 2.392-0.308 3.145-0.923 0.752-0.616 1.129-1.528 1.129-2.735 0-2.401-1.543-3.602-4.629-3.602h-3.434v7.26z"/><path d="m137.52 677.45v22.135h12.654v3.938h-17.693v-26.073z"/><path d="m212.71 677.45v3.938h-11.814v6.85h11.31v3.938h-11.31v7.409h12.075v3.938h-17.114v-26.073z"/><path d="m269.81 677.45 11.515 26.073h-5.319l-2.706-6.345h-11.59l-2.52 6.345h-5.282l10.75-26.073zm-6.57 15.902h8.417l-4.404-10.321z"/><path d="m331.55 677.11c2.538 0 4.983 0.635 7.334 1.904v4.479c-2.7-1.63-5.095-2.445-7.185-2.445-1.269 0-2.262 0.246-2.977 0.738-0.715 0.491-1.073 1.147-1.073 1.969 0 0.982 0.666 1.891 1.997 2.724 0.373 0.249 1.81 0.946 4.311 2.091 2.14 1.008 3.683 2.127 4.629 3.359 0.945 1.232 1.418 2.713 1.418 4.442 0 2.24-0.806 4.047-2.417 5.422s-3.698 2.062-6.261 2.062c-1.668 0-3.102-0.183-4.302-0.551-1.201-0.367-2.548-0.998-4.041-1.894v-4.964c2.787 2.314 5.412 3.471 7.876 3.471 1.232 0 2.227-0.267 2.986-0.802s1.139-1.245 1.139-2.128c0-1.207-0.66-2.19-1.979-2.949-1.095-0.597-2.507-1.313-4.236-2.146-2.053-0.933-3.587-2.022-4.601-3.266-1.014-1.245-1.521-2.688-1.521-4.33 0-2.19 0.815-3.935 2.445-5.235 1.63-1.301 3.782-1.951 6.458-1.951z"/><path d="m513.93 677.45 8.566 10.284 8.567-10.284h4.498v26.073h-5.04v-18.309h-0.149l-7.54 9.183h-0.709l-7.54-9.183h-0.149v18.309h-5.04v-26.073z"/><path d="m715.82 677.45 11.516 26.073h-5.319l-2.707-6.345h-11.59l-2.519 6.345h-5.282l10.75-26.073zm-6.569 15.902h8.417l-4.404-10.321z"/><path d="m777.3 677.45c2.451 0 4.448 0.678 5.991 2.035 1.543 1.356 2.314 3.123 2.314 5.3 0 1.481-0.383 2.772-1.148 3.873s-1.9 1.969-3.406 2.603c0.834 0.448 1.574 1.058 2.221 1.829 0.647 0.772 1.45 2.072 2.408 3.901 1.592 3.16 2.774 5.338 3.546 6.532h-5.618c-0.386-0.572-0.908-1.487-1.568-2.743-1.443-2.775-2.501-4.644-3.172-5.609-0.672-0.964-1.319-1.648-1.941-2.053-0.623-0.404-1.338-0.606-2.147-0.606h-1.829v11.011h-5.039v-26.073zm-1.139 11.124c1.319 0 2.355-0.33 3.108-0.989 0.753-0.66 1.129-1.562 1.129-2.707 0-1.194-0.373-2.087-1.12-2.678-0.746-0.591-1.81-0.886-3.191-0.886h-3.136v7.26z"/><path d="m849.88 677.45v3.938h-11.814v6.85h11.31v3.938h-11.31v7.409h12.075v3.938h-17.114v-26.073z"/><path d="m896.79 677.45 15.491 18.197v-18.197h4.927v26.073h-4.33l-15.584-18.495v18.495h-4.927v-26.073z"/><path d="m970.69 677.45 11.516 26.073h-5.319l-2.707-6.345h-11.59l-2.519 6.345h-5.282l10.75-26.073zm-6.569 15.902h8.417l-4.405-10.321z"/><path d="m73.96 739.32v22.134h12.654v3.938h-17.693v-26.072z"/><rect x="137.82" y="739.32" width="5.039" height="26.073"/><path d="m204.28 738.98c2.539 0 4.983 0.634 7.335 1.903v4.48c-2.7-1.63-5.095-2.445-7.185-2.445-1.27 0-2.262 0.245-2.977 0.737-0.716 0.491-1.073 1.148-1.073 1.969 0 0.983 0.665 1.891 1.997 2.725 0.373 0.248 1.81 0.945 4.311 2.09 2.14 1.008 3.683 2.128 4.628 3.359 0.946 1.232 1.419 2.713 1.419 4.442 0 2.24-0.806 4.047-2.417 5.422s-3.699 2.062-6.262 2.062c-1.667 0-3.101-0.183-4.302-0.55-1.2-0.367-2.547-0.999-4.04-1.895v-4.964c2.787 2.314 5.412 3.471 7.876 3.471 1.232 0 2.227-0.267 2.986-0.802s1.138-1.244 1.138-2.128c0-1.207-0.659-2.19-1.978-2.949-1.095-0.597-2.507-1.312-4.237-2.146-2.053-0.933-3.586-2.022-4.6-3.266s-1.521-2.688-1.521-4.33c0-2.19 0.815-3.935 2.445-5.235s3.782-1.95 6.457-1.95z"/><path d="m279.55 739.32v3.938h-9.257v22.134h-5.039v-22.134h-9.257v-3.938z"/><path d="m340.31 739.32v3.938h-11.814v6.849h11.31v3.938h-11.31v7.409h12.075v3.938h-17.114v-26.072z"/><path d="m387.22 739.32 15.491 18.196v-18.196h4.927v26.072h-4.33l-15.584-18.495v18.495h-4.927v-26.072z"/><path d="m531.46 739.32v3.938h-11.814v6.849h11.31v3.938h-11.31v7.409h12.075v3.938h-17.114v-26.072z"/><path d="m661.85 739.32v3.938h-9.257v22.134h-5.039v-22.134h-9.257v-3.938z"/><path d="m698.35 739.32 6.495 16.087 6.831-16.087h4.255l6.869 16.143 6.476-16.143h5.151l-10.732 26.408h-1.698l-8.212-19.335-8.249 19.335h-1.642l-10.751-26.408z"/><rect x="774.99" y="739.32" width="5.039" height="26.073"/><path d="m841.45 738.98c2.538 0 4.983 0.634 7.335 1.903v4.48c-2.7-1.63-5.095-2.445-7.186-2.445-1.269 0-2.261 0.245-2.976 0.737-0.716 0.491-1.074 1.148-1.074 1.969 0 0.983 0.666 1.891 1.997 2.725 0.374 0.248 1.811 0.945 4.312 2.09 2.14 1.008 3.683 2.128 4.628 3.359 0.946 1.232 1.419 2.713 1.419 4.442 0 2.24-0.806 4.047-2.417 5.422-1.612 1.375-3.699 2.062-6.262 2.062-1.667 0-3.101-0.183-4.302-0.55s-2.547-0.999-4.04-1.895v-4.964c2.787 2.314 5.412 3.471 7.875 3.471 1.232 0 2.228-0.267 2.987-0.802s1.138-1.244 1.138-2.128c0-1.207-0.659-2.19-1.978-2.949-1.095-0.597-2.507-1.312-4.237-2.146-2.053-0.933-3.586-2.022-4.6-3.266s-1.521-2.688-1.521-4.33c0-2.19 0.815-3.935 2.444-5.235 1.63-1.3 3.783-1.95 6.458-1.95z"/><path d="m916.72 739.32v3.938h-9.257v22.134h-5.04v-22.134h-9.257v-3.938z"/><path d="m968.88 738.98c2.538 0 4.983 0.634 7.335 1.903v4.48c-2.7-1.63-5.095-2.445-7.186-2.445-1.269 0-2.261 0.245-2.977 0.737-0.715 0.491-1.073 1.148-1.073 1.969 0 0.983 0.666 1.891 1.997 2.725 0.374 0.248 1.811 0.945 4.312 2.09 2.14 1.008 3.683 2.128 4.628 3.359 0.946 1.232 1.419 2.713 1.419 4.442 0 2.24-0.806 4.047-2.417 5.422-1.612 1.375-3.699 2.062-6.262 2.062-1.667 0-3.101-0.183-4.302-0.55s-2.547-0.999-4.041-1.895v-4.964c2.788 2.314 5.413 3.471 7.876 3.471 1.232 0 2.228-0.267 2.987-0.802s1.138-1.244 1.138-2.128c0-1.207-0.659-2.19-1.978-2.949-1.095-0.597-2.507-1.312-4.237-2.146-2.053-0.933-3.586-2.022-4.6-3.266s-1.521-2.688-1.521-4.33c0-2.19 0.815-3.935 2.444-5.235 1.63-1.3 3.783-1.95 6.458-1.95z"/><path d="m78.97 801.19 11.515 26.073h-5.319l-2.706-6.346h-11.59l-2.52 6.346h-5.281l10.75-26.073zm-6.57 15.901h8.418l-4.405-10.321z"/><path d="m149.31 801.19v3.938h-11.813v6.849h11.31v3.938h-11.31v7.41h12.075v3.938h-17.115v-26.073z"/><path d="m279.7 801.19v3.938h-9.257v22.135h-5.04v-22.135h-9.257v-3.938z"/><path d="m324.88 801.19v10.974h13.531v-10.974h5.04v26.073h-5.04v-11.012h-13.531v11.012h-5.039v-26.073z"/><rect x="392.84" y="801.19" width="5.039" height="26.073"/><path d="m459.03 801.19c2.451 0 4.448 0.678 5.991 2.034s2.314 3.123 2.314 5.301c0 1.48-0.382 2.771-1.147 3.872-0.766 1.101-1.901 1.969-3.406 2.604 0.833 0.448 1.574 1.057 2.221 1.829 0.647 0.771 1.449 2.071 2.407 3.9 1.593 3.161 2.775 5.338 3.546 6.533h-5.618c-0.385-0.573-0.908-1.487-1.567-2.744-1.444-2.775-2.501-4.644-3.173-5.608-0.672-0.965-1.319-1.649-1.941-2.053-0.622-0.405-1.338-0.607-2.146-0.607h-1.829v11.012h-5.039v-26.073zm-1.138 11.123c1.319 0 2.354-0.33 3.107-0.989s1.129-1.561 1.129-2.706c0-1.195-0.373-2.087-1.119-2.678-0.747-0.591-1.811-0.887-3.192-0.887h-3.135v7.26z"/><path d="m534.57 801.19v3.938h-9.257v22.135h-5.039v-22.135h-9.257v-3.938z"/><path d="m580.22 801.19 6.309 8.716 6.382-8.716h5.991l-9.854 13.158v12.915h-5.039v-12.953l-9.91-13.12z"/><path d="m650.24 800.85c2.7 0 5.129 0.557 7.288 1.67 2.159 1.114 3.879 2.719 5.161 4.815 1.281 2.097 1.922 4.396 1.922 6.897 0 2.438-0.625 4.7-1.876 6.784-1.25 2.084-2.967 3.701-5.151 4.852-2.183 1.151-4.644 1.727-7.381 1.727-2.7 0-5.154-0.585-7.363-1.755-2.208-1.169-3.929-2.778-5.16-4.824-1.232-2.047-1.848-4.308-1.848-6.784 0-2.389 0.616-4.635 1.848-6.738 1.231-2.103 2.93-3.736 5.095-4.899s4.653-1.745 7.465-1.745zm-9.201 13.382c0 1.729 0.392 3.284 1.176 4.665s1.876 2.452 3.275 3.211c1.4 0.758 2.983 1.138 4.75 1.138 2.675 0 4.874-0.84 6.598-2.52 1.723-1.679 2.585-3.844 2.585-6.494 0-1.73-0.389-3.288-1.167-4.676-0.778-1.387-1.872-2.46-3.285-3.219-1.412-0.759-3.001-1.139-4.768-1.139s-3.356 0.383-4.769 1.148c-1.412 0.765-2.497 1.835-3.256 3.21s-1.139 2.934-1.139 4.676z"/><path d="m705.96 801.19 15.49 18.197v-18.197h4.928v26.073h-4.33l-15.584-18.496v18.496h-4.927v-26.073z"/><path d="m786.48 801.19v3.938h-11.814v6.849h11.31v3.938h-11.31v7.41h12.076v3.938h-17.115v-26.073z"/><path d="m913.92 801.19v3.938h-11.814v6.849h11.31v3.938h-11.31v7.41h12.075v3.938h-17.114v-26.073z"/><path d="m980.59 801.19v3.938h-9.257v22.135h-5.039v-22.135h-9.257v-3.938z"/><path d="m70.076 863.06v15.173c0 1.556 0.233 2.794 0.7 3.714 0.466 0.921 1.228 1.68 2.286 2.277 1.058 0.598 2.289 0.896 3.695 0.896 1.543 0 2.853-0.283 3.929-0.849s1.863-1.338 2.361-2.314c0.498-0.977 0.747-2.33 0.747-4.06v-14.837h5.039v15.491c0 3.508-1.052 6.205-3.154 8.09-2.103 1.885-5.077 2.828-8.922 2.828-2.413 0-4.507-0.429-6.28-1.288-1.773-0.858-3.126-2.1-4.059-3.723-0.933-1.624-1.4-3.531-1.4-5.721v-15.677z"/><path d="m132.66 863.06 15.49 18.197v-18.197h4.928v26.073h-4.33l-15.584-18.496v18.496h-4.928v-26.073z"/><path d="m197.6 863.06v10.974h13.531v-10.974h5.039v26.073h-5.039v-11.012h-13.531v11.012h-5.039v-26.073z"/><path d="m268.1 862.72c2.7 0 5.129 0.557 7.288 1.67 2.159 1.114 3.879 2.719 5.16 4.816 1.282 2.096 1.923 4.395 1.923 6.896 0 2.438-0.625 4.7-1.876 6.784-1.25 2.084-2.967 3.702-5.151 4.852-2.184 1.151-4.644 1.727-7.381 1.727-2.7 0-5.155-0.585-7.363-1.755-2.209-1.169-3.929-2.777-5.161-4.824-1.231-2.047-1.847-4.308-1.847-6.784 0-2.389 0.616-4.635 1.847-6.738 1.232-2.102 2.931-3.736 5.096-4.899s4.653-1.745 7.465-1.745zm-9.201 13.382c0 1.729 0.392 3.285 1.176 4.666s1.875 2.451 3.275 3.21 2.983 1.138 4.75 1.138c2.675 0 4.874-0.84 6.597-2.519 1.724-1.68 2.585-3.845 2.585-6.495 0-1.73-0.388-3.288-1.166-4.675-0.778-1.388-1.873-2.461-3.285-3.22s-3.002-1.138-4.768-1.138c-1.767 0-3.357 0.382-4.769 1.147-1.412 0.766-2.498 1.836-3.257 3.211-0.759 1.374-1.138 2.933-1.138 4.675z"/><path d="m331.81 862.72c2.7 0 5.129 0.557 7.288 1.67 2.159 1.114 3.879 2.719 5.16 4.816 1.282 2.096 1.923 4.395 1.923 6.896 0 2.438-0.625 4.7-1.876 6.784-1.25 2.084-2.967 3.702-5.151 4.852-2.184 1.151-4.644 1.727-7.381 1.727-2.7 0-5.155-0.585-7.363-1.755-2.209-1.169-3.929-2.777-5.161-4.824-1.231-2.047-1.847-4.308-1.847-6.784 0-2.389 0.616-4.635 1.847-6.738 1.232-2.102 2.931-3.736 5.096-4.899s4.653-1.745 7.465-1.745zm-9.201 13.382c0 1.729 0.392 3.285 1.176 4.666s1.875 2.451 3.275 3.21 2.983 1.138 4.75 1.138c2.675 0 4.874-0.84 6.597-2.519 1.724-1.68 2.585-3.845 2.585-6.495 0-1.73-0.388-3.288-1.166-4.675-0.778-1.388-1.873-2.461-3.285-3.22s-3.002-1.138-4.768-1.138c-1.767 0-3.357 0.382-4.769 1.147-1.412 0.766-2.498 1.836-3.257 3.211-0.759 1.374-1.138 2.933-1.138 4.675z"/><path d="m394.54 863.06c2.712 0 5.126 0.554 7.241 1.661s3.758 2.663 4.927 4.666c1.17 2.003 1.755 4.255 1.755 6.756 0 2.551-0.588 4.812-1.764 6.784s-2.846 3.5-5.011 4.582c-2.165 1.083-4.647 1.624-7.447 1.624h-10.619v-26.073zm-0.523 22.135c2.787 0 5.024-0.837 6.71-2.51 1.686-1.674 2.529-3.867 2.529-6.579 0-2.812-0.85-5.033-2.548-6.663s-3.985-2.445-6.859-2.445h-5.188v18.197z"/><path d="m516.1 863.06v15.173c0 1.556 0.233 2.794 0.7 3.714 0.466 0.921 1.228 1.68 2.286 2.277 1.057 0.598 2.289 0.896 3.695 0.896 1.543 0 2.853-0.283 3.929-0.849s1.863-1.338 2.361-2.314c0.498-0.977 0.746-2.33 0.746-4.06v-14.837h5.039v15.491c0 3.508-1.051 6.205-3.154 8.09-2.102 1.885-5.076 2.828-8.921 2.828-2.414 0-4.507-0.429-6.28-1.288-1.773-0.858-3.126-2.1-4.059-3.723-0.933-1.624-1.4-3.531-1.4-5.721v-15.677z"/><path d="m650.82 863.06c2.389 0 4.336 0.622 5.841 1.866 1.506 1.245 2.259 2.8 2.259 4.666 0 1.195-0.314 2.246-0.943 3.154-0.628 0.909-1.54 1.63-2.734 2.165v0.224c1.817 0.411 3.232 1.223 4.246 2.436s1.521 2.635 1.521 4.264c0 1.444-0.37 2.735-1.11 3.873-0.741 1.139-1.767 1.994-3.08 2.566-1.313 0.573-2.859 0.859-4.638 0.859h-10.918v-26.073zm-1.344 10.825c1.331 0 2.383-0.317 3.154-0.952 0.772-0.635 1.157-1.518 1.157-2.65 0-1.008-0.354-1.807-1.064-2.398-0.709-0.591-1.642-0.887-2.799-0.887h-3.621v6.887zm1.176 11.31c1.704 0 2.992-0.321 3.863-0.961 0.871-0.641 1.307-1.584 1.307-2.828 0-1.107-0.433-1.981-1.298-2.622-0.864-0.641-2.025-0.961-3.48-0.961h-4.741v7.372z"/><path d="m722.92 863.06v3.938h-11.814v6.85h11.31v3.937h-11.31v7.41h12.075v3.938h-17.114v-26.073z"/><path d="m789.47 863.06-15.192 22.135h15.267v3.938h-23.926l15.173-22.135h-14.259v-3.938z"/><path d="m841.55 862.72c2.7 0 5.129 0.557 7.288 1.67 2.159 1.114 3.879 2.719 5.16 4.816 1.282 2.096 1.923 4.395 1.923 6.896 0 2.438-0.626 4.7-1.876 6.784-1.251 2.084-2.968 3.702-5.151 4.852-2.184 1.151-4.644 1.727-7.382 1.727-2.7 0-5.154-0.585-7.362-1.755-2.209-1.169-3.929-2.777-5.161-4.824s-1.847-4.308-1.847-6.784c0-2.389 0.615-4.635 1.847-6.738 1.232-2.102 2.93-3.736 5.095-4.899s4.654-1.745 7.466-1.745zm-9.201 13.382c0 1.729 0.392 3.285 1.175 4.666 0.784 1.381 1.876 2.451 3.276 3.21s2.983 1.138 4.75 1.138c2.675 0 4.874-0.84 6.597-2.519 1.724-1.68 2.585-3.845 2.585-6.495 0-1.73-0.389-3.288-1.166-4.675-0.778-1.388-1.873-2.461-3.285-3.22s-3.002-1.138-4.769-1.138c-1.766 0-3.356 0.382-4.768 1.147-1.412 0.766-2.498 1.836-3.257 3.211-0.759 1.374-1.138 2.933-1.138 4.675z"/><path d="m907.45 863.06 11.516 26.073h-5.319l-2.707-6.346h-11.59l-2.519 6.346h-5.282l10.75-26.073zm-6.569 15.901h8.417l-4.405-10.321z"/><path d="m968.93 863.06c2.451 0 4.448 0.678 5.991 2.034 1.543 1.357 2.314 3.123 2.314 5.301 0 1.48-0.383 2.771-1.148 3.872-0.765 1.102-1.9 1.969-3.406 2.604 0.834 0.448 1.574 1.058 2.221 1.829s1.45 2.072 2.408 3.901c1.592 3.16 2.774 5.337 3.546 6.532h-5.618c-0.386-0.572-0.908-1.487-1.568-2.744-1.443-2.774-2.501-4.644-3.173-5.608-0.671-0.964-1.318-1.649-1.941-2.053-0.622-0.404-1.337-0.607-2.146-0.607h-1.829v11.012h-5.039v-26.073zm-1.139 11.123c1.319 0 2.355-0.329 3.108-0.989 0.752-0.659 1.129-1.561 1.129-2.706 0-1.194-0.373-2.087-1.12-2.678-0.746-0.591-1.81-0.887-3.191-0.887h-3.136v7.26z"/><path d="m76.113 924.92c2.712 0 5.126 0.554 7.241 1.661 2.115 1.108 3.758 2.663 4.927 4.666 1.17 2.003 1.754 4.255 1.754 6.756 0 2.551-0.587 4.812-1.763 6.785-1.176 1.972-2.846 3.499-5.011 4.581-2.165 1.083-4.648 1.624-7.447 1.624h-10.62v-26.073zm-0.523 22.135c2.787 0 5.024-0.837 6.709-2.51 1.686-1.674 2.529-3.867 2.529-6.579 0-2.812-0.849-5.033-2.547-6.663-1.699-1.63-3.985-2.445-6.859-2.445h-5.188v18.197z"/><path d="m143 924.92 11.516 26.073h-5.319l-2.707-6.345h-11.59l-2.519 6.345h-5.282l10.75-26.073zm-6.569 15.902h8.417l-4.405-10.321z"/><path d="m195.98 924.92 8.567 10.284 8.566-10.284h4.498v26.073h-5.039v-18.309h-0.149l-7.54 9.183h-0.709l-7.54-9.183h-0.15v18.309h-5.039v-26.073z"/><path d="m268.25 924.59c2.7 0 5.129 0.557 7.288 1.671 2.158 1.113 3.879 2.718 5.16 4.815 1.282 2.096 1.922 4.395 1.922 6.896 0 2.439-0.625 4.7-1.875 6.784-1.251 2.084-2.968 3.702-5.151 4.853-2.184 1.151-4.644 1.726-7.382 1.726-2.7 0-5.154-0.585-7.362-1.754-2.209-1.17-3.929-2.778-5.161-4.825s-1.848-4.308-1.848-6.784c0-2.389 0.616-4.635 1.848-6.737 1.232-2.103 2.93-3.736 5.095-4.9 2.165-1.163 4.654-1.745 7.466-1.745zm-9.201 13.382c0 1.73 0.391 3.285 1.175 4.666s1.876 2.451 3.276 3.21 2.983 1.138 4.75 1.138c2.675 0 4.874-0.839 6.597-2.519s2.585-3.845 2.585-6.495c0-1.729-0.389-3.288-1.166-4.675-0.778-1.387-1.873-2.461-3.285-3.22s-3.002-1.138-4.769-1.138-3.356 0.383-4.768 1.148-2.498 1.835-3.257 3.21-1.138 2.933-1.138 4.675z"/><path d="m323.97 924.92 15.491 18.197v-18.197h4.927v26.073h-4.33l-15.584-18.495v18.495h-4.927v-26.073z"/><path d="m523.34 924.59c2.538 0 4.983 0.635 7.335 1.904v4.479c-2.7-1.63-5.095-2.445-7.186-2.445-1.269 0-2.261 0.246-2.976 0.738-0.716 0.491-1.073 1.147-1.073 1.969 0 0.982 0.665 1.891 1.996 2.724 0.374 0.249 1.811 0.946 4.312 2.091 2.14 1.008 3.683 2.127 4.628 3.359 0.946 1.232 1.419 2.713 1.419 4.442 0 2.24-0.806 4.047-2.417 5.422s-3.699 2.062-6.262 2.062c-1.667 0-3.101-0.183-4.302-0.551-1.2-0.367-2.547-0.998-4.04-1.894v-4.964c2.787 2.314 5.412 3.471 7.876 3.471 1.231 0 2.227-0.267 2.986-0.802s1.138-1.245 1.138-2.128c0-1.207-0.659-2.19-1.978-2.949-1.095-0.597-2.507-1.313-4.237-2.146-2.053-0.933-3.586-2.022-4.6-3.266-1.014-1.245-1.521-2.688-1.521-4.33 0-2.19 0.815-3.935 2.445-5.235 1.63-1.301 3.782-1.951 6.457-1.951z"/><path d="m713.28 924.92c2.713 0 5.127 0.554 7.242 1.661 2.115 1.108 3.757 2.663 4.927 4.666 1.169 2.003 1.754 4.255 1.754 6.756 0 2.551-0.588 4.812-1.763 6.785-1.176 1.972-2.847 3.499-5.012 4.581-2.165 1.083-4.647 1.624-7.446 1.624h-10.62v-26.073zm-0.522 22.135c2.787 0 5.023-0.837 6.709-2.51 1.686-1.674 2.529-3.867 2.529-6.579 0-2.812-0.849-5.033-2.547-6.663-1.699-1.63-3.985-2.445-6.859-2.445h-5.189v18.197z"/><path d="m786.8 924.92v3.938h-11.814v6.85h11.31v3.938h-11.31v7.409h12.075v3.938h-17.114v-26.073z"/><path d="m841.65 924.92c2.452 0 4.449 0.678 5.991 2.035 1.543 1.356 2.315 3.123 2.315 5.3 0 1.481-0.383 2.772-1.148 3.873s-1.901 1.969-3.406 2.603c0.833 0.448 1.574 1.058 2.221 1.829 0.647 0.772 1.449 2.072 2.407 3.901 1.593 3.16 2.775 5.338 3.546 6.532h-5.617c-0.386-0.572-0.909-1.487-1.568-2.743-1.443-2.775-2.501-4.644-3.173-5.609-0.672-0.964-1.319-1.648-1.941-2.053-0.622-0.404-1.337-0.606-2.146-0.606h-1.829v11.011h-5.039v-26.073zm-1.138 11.124c1.319 0 2.355-0.33 3.107-0.989 0.753-0.66 1.13-1.562 1.13-2.707 0-1.194-0.374-2.087-1.12-2.678-0.747-0.591-1.811-0.886-3.192-0.886h-3.135v7.26z"/><path d="m896.86 924.92 8.567 10.284 8.566-10.284h4.498v26.073h-5.039v-18.309h-0.149l-7.54 9.183h-0.71l-7.54-9.183h-0.149v18.309h-5.039v-26.073z"/><path d="m971.32 924.92 11.515 26.073h-5.319l-2.706-6.345h-11.59l-2.519 6.345h-5.282l10.75-26.073zm-6.57 15.902h8.418l-4.405-10.321z"/><path d="m131.09 118.55 15.49 18.197v-18.197h4.928v26.073h-4.33l-15.584-18.496v18.496h-4.927v-26.073z"/><path d="m201.82 118.55c2.712 0 5.126 0.554 7.241 1.661 2.116 1.108 3.758 2.663 4.927 4.666 1.17 2.003 1.755 4.255 1.755 6.756 0 2.551-0.588 4.812-1.764 6.784s-2.846 3.5-5.011 4.582c-2.165 1.083-4.647 1.624-7.447 1.624h-10.619v-26.073zm-0.523 22.135c2.787 0 5.024-0.837 6.71-2.51 1.686-1.674 2.529-3.867 2.529-6.579 0-2.812-0.849-5.033-2.548-6.663-1.698-1.63-3.984-2.445-6.859-2.445h-5.188v18.197z"/><rect x="263.99" y="118.55" width="5.039" height="26.073"/><path d="m322.97 118.55 7.372 16.741 7.185-16.741h5.282l-11.515 26.409h-1.755l-11.888-26.409z"/><path d="m402.77 118.55v3.938h-11.814v6.85h11.31v3.938h-11.31v7.409h12.075v3.938h-17.114v-26.073z"/><path d="m524.08 118.21c1.481 0 2.931 0.168 4.349 0.504s2.949 0.908 4.591 1.717v4.741c-1.605-0.921-3.089-1.587-4.451-1.997-1.362-0.411-2.784-0.616-4.265-0.616-1.853 0-3.527 0.382-5.02 1.148-1.493 0.765-2.653 1.844-3.481 3.238-0.827 1.393-1.241 2.942-1.241 4.647 0 1.742 0.411 3.303 1.232 4.684 0.821 1.382 1.978 2.448 3.471 3.201s3.173 1.129 5.039 1.129c1.431 0 2.797-0.205 4.097-0.616 1.3-0.41 2.94-1.15 4.918-2.221v4.741c-1.692 0.883-3.248 1.512-4.666 1.885s-3.073 0.56-4.964 0.56c-2.75 0-5.208-0.548-7.372-1.642-2.165-1.095-3.867-2.672-5.105-4.732-1.238-2.059-1.857-4.314-1.857-6.765 0-2.625 0.638-4.983 1.913-7.074 1.275-2.09 3.03-3.701 5.263-4.833 2.234-1.133 4.75-1.699 7.549-1.699z"/><path d="m641.56 118.55 7.372 16.741 7.185-16.741h5.282l-11.516 26.409h-1.754l-11.889-26.409z"/><path d="m714.73 118.55 11.515 26.073h-5.319l-2.706-6.346h-11.59l-2.52 6.346h-5.282l10.75-26.073zm-6.57 15.901h8.417l-4.404-10.32z"/><path d="m768.26 118.55 15.49 18.197v-18.197h4.927v26.073h-4.33l-15.584-18.496v18.496h-4.927v-26.073z"/><rect x="837.45" y="118.55" width="5.039" height="26.073"/><path d="m915.46 118.55v3.938h-9.257v22.135h-5.039v-22.135h-9.257v-3.938z"/><path d="m969.59 118.55 11.516 26.073h-5.319l-2.707-6.346h-11.59l-2.519 6.346h-5.282l10.75-26.073zm-6.569 15.901h8.417l-4.404-10.32z"/><rect x="134.49" y="56.849" width="5.039" height="26.073"/><path d="m201.12 56.849c2.451 0 4.448 0.678 5.991 2.034 1.542 1.356 2.314 3.123 2.314 5.3 0 1.481-0.383 2.772-1.148 3.873s-1.9 1.969-3.406 2.604c0.834 0.447 1.574 1.057 2.221 1.829 0.647 0.771 1.449 2.071 2.408 3.9 1.592 3.161 2.774 5.338 3.546 6.532h-5.618c-0.386-0.572-0.908-1.486-1.568-2.743-1.443-2.775-2.501-4.644-3.173-5.608-0.672-0.965-1.319-1.649-1.941-2.053-0.622-0.405-1.337-0.607-2.146-0.607h-1.829v11.011h-5.039v-26.072zm-1.139 11.123c1.319 0 2.355-0.33 3.108-0.989 0.752-0.66 1.129-1.562 1.129-2.706 0-1.195-0.373-2.088-1.12-2.679s-1.81-0.886-3.191-0.886h-3.136v7.26z"/><path d="m267.3 56.177c3.21 0 6.395 0.715 9.556 2.146v4.61c-3.161-1.605-6.271-2.408-9.332-2.408-1.904 0-3.596 0.38-5.076 1.139-1.481 0.759-2.629 1.851-3.444 3.275-0.815 1.425-1.222 3.014-1.222 4.769 0 2.662 0.886 4.806 2.659 6.429 1.773 1.624 4.109 2.436 7.008 2.436 0.797 0 1.559-0.069 2.287-0.205 0.727-0.137 1.595-0.399 2.603-0.784v-4.33h-4.311v-3.938h9.35v10.75c-1.281 0.896-2.821 1.596-4.619 2.1-1.798 0.503-3.667 0.755-5.608 0.755-2.75 0-5.242-0.566-7.475-1.698s-3.975-2.719-5.226-4.759c-1.25-2.041-1.875-4.318-1.875-6.831 0-2.551 0.631-4.859 1.894-6.924s3.023-3.671 5.282-4.815c2.258-1.145 4.774-1.717 7.549-1.717z"/><path d="m521.22 56.177c2.539 0 4.984 0.634 7.335 1.903v4.48c-2.7-1.63-5.095-2.445-7.185-2.445-1.269 0-2.262 0.245-2.977 0.737-0.716 0.491-1.073 1.148-1.073 1.969 0 0.983 0.665 1.891 1.997 2.725 0.373 0.249 1.81 0.945 4.311 2.09 2.14 1.008 3.683 2.128 4.629 3.359 0.945 1.232 1.418 2.713 1.418 4.442 0 2.24-0.806 4.047-2.417 5.422s-3.698 2.062-6.262 2.062c-1.667 0-3.101-0.183-4.301-0.55-1.201-0.367-2.548-0.999-4.041-1.894v-4.965c2.787 2.314 5.412 3.471 7.876 3.471 1.232 0 2.227-0.267 2.986-0.802s1.139-1.244 1.139-2.128c0-1.207-0.66-2.19-1.979-2.949-1.095-0.597-2.507-1.312-4.236-2.146-2.053-0.933-3.587-2.022-4.601-3.266s-1.521-2.687-1.521-4.33c0-2.19 0.815-3.935 2.445-5.235s3.782-1.95 6.457-1.95z"/><path d="m327.85 56.177c2.699 0 5.129 0.557 7.288 1.67 2.158 1.114 3.878 2.719 5.16 4.815 1.282 2.097 1.922 4.396 1.922 6.896 0 2.439-0.625 4.7-1.875 6.785-1.251 2.084-2.968 3.701-5.151 4.852-2.184 1.151-4.645 1.726-7.382 1.726-2.7 0-5.154-0.584-7.363-1.754-2.208-1.17-3.928-2.778-5.16-4.824-1.232-2.047-1.848-4.309-1.848-6.785 0-2.389 0.616-4.634 1.848-6.737s2.93-3.736 5.095-4.899c2.165-1.164 4.654-1.745 7.466-1.745zm-9.202 13.381c0 1.73 0.392 3.285 1.176 4.666s1.876 2.451 3.276 3.21c1.399 0.759 2.983 1.139 4.75 1.139 2.675 0 4.874-0.84 6.597-2.52 1.723-1.679 2.585-3.844 2.585-6.495 0-1.729-0.389-3.287-1.167-4.675-0.777-1.387-1.872-2.46-3.284-3.219-1.413-0.759-3.002-1.139-4.769-1.139s-3.356 0.383-4.768 1.148c-1.413 0.765-2.498 1.835-3.257 3.21s-1.139 2.933-1.139 4.675z"/><path d="m704.77 56.849 8.567 10.283 8.566-10.283h4.498v26.072h-5.039v-18.308h-0.149l-7.54 9.182h-0.709l-7.54-9.182h-0.15v18.308h-5.039v-26.072z"/><rect x="774.95" y="56.849" width="5.039" height="26.073"/><path d="m840.64 56.849c2.712 0 5.126 0.553 7.241 1.661 2.115 1.107 3.758 2.662 4.927 4.666 1.17 2.003 1.755 4.255 1.755 6.756 0 2.55-0.588 4.812-1.764 6.784s-2.846 3.499-5.011 4.582c-2.165 1.082-4.648 1.623-7.447 1.623h-10.62v-26.072zm-0.523 22.134c2.787 0 5.024-0.836 6.71-2.51 1.685-1.673 2.528-3.866 2.528-6.579 0-2.812-0.849-5.033-2.547-6.662-1.699-1.63-3.985-2.445-6.859-2.445h-5.188v18.196z"/><path d="m907.96 56.849 11.516 26.072h-5.319l-2.707-6.345h-11.59l-2.519 6.345h-5.282l10.75-26.072zm-6.569 15.901h8.417l-4.404-10.321z"/><path d="m968.52 56.177c2.538 0 4.983 0.634 7.335 1.903v4.48c-2.7-1.63-5.095-2.445-7.185-2.445-1.27 0-2.262 0.245-2.977 0.737-0.716 0.491-1.073 1.148-1.073 1.969 0 0.983 0.665 1.891 1.997 2.725 0.373 0.249 1.81 0.945 4.311 2.09 2.14 1.008 3.683 2.128 4.628 3.359 0.946 1.232 1.419 2.713 1.419 4.442 0 2.24-0.806 4.047-2.417 5.422s-3.699 2.062-6.262 2.062c-1.667 0-3.101-0.183-4.302-0.55-1.2-0.367-2.547-0.999-4.04-1.894v-4.965c2.787 2.314 5.412 3.471 7.876 3.471 1.231 0 2.227-0.267 2.986-0.802s1.138-1.244 1.138-2.128c0-1.207-0.659-2.19-1.978-2.949-1.095-0.597-2.507-1.312-4.237-2.146-2.053-0.933-3.586-2.022-4.6-3.266s-1.521-2.687-1.521-4.33c0-2.19 0.815-3.935 2.445-5.235s3.782-1.95 6.457-1.95z"/>
    </g>
</svg>
