<?xml version="1.0" encoding="utf-8"?>
<svg clip-rule="evenodd" fill-rule="evenodd" stroke-linecap="round" stroke-linejoin="round" stroke-miterlimit="1.5" version="1.1" viewBox="0 0 1004 976" xml:space="preserve" xmlns="http://www.w3.org/2000/svg">
	<title>A crossword puzzle grid with rows numbered with Arabic numerals and columns numbered with Roman numerals. Most cells are black or white, but some additional reddish cells create a square pattern mid-way to the center of the puzzle.</title>
    <g fill="#fff" stroke="#000" stroke-width="6.25px">
        <rect x="45.728" y="40.212" width="64.214" height="64.214"/><rect x="109.29" y="40.212" width="64.214" height="64.214"/><rect x="172.85" y="40.212" width="64.214" height="64.214"/><rect x="236.41" y="40.212" width="64.214" height="64.214"/><rect x="299.97" y="40.212" width="64.214" height="64.214"/></g><g stroke="#000" stroke-width="6.25px"><rect x="363.54" y="40.212" width="64.214" height="64.214"/><rect x="427.1" y="40.212" width="64.214" height="64.214"/><rect x="490.66" y="40.212" width="64.214" height="64.214" fill="#fff"/><rect x="554.22" y="40.212" width="64.214" height="64.214"/><rect x="617.78" y="40.212" width="64.214" height="64.214"/></g><g fill="#fff" stroke="#000" stroke-width="6.25px"><rect x="681.34" y="40.212" width="64.214" height="64.214"/><rect x="744.9" y="40.212" width="64.214" height="64.214"/><rect x="808.47" y="40.212" width="64.214" height="64.214"/><rect x="872.03" y="40.212" width="64.214" height="64.214"/><rect x="935.59" y="40.212" width="64.214" height="64.214"/><rect x="45.728" y="103.97" width="64.214" height="64.214"/><rect x="109.29" y="103.97" width="64.214" height="64.214"/><rect x="172.85" y="103.97" width="64.214" height="64.214"/><rect x="236.41" y="103.97" width="64.214" height="64.214"/><rect x="299.97" y="103.97" width="64.214" height="64.214"/><rect x="363.54" y="103.97" width="64.214" height="64.214"/></g><g stroke="#000" stroke-width="6.25px"><rect x="427.1" y="103.97" width="64.214" height="64.214"/><rect x="490.66" y="103.97" width="64.214" height="64.214" fill="#fff"/><rect x="554.22" y="103.97" width="64.214" height="64.214"/></g><g fill="#fff" stroke="#000" stroke-width="6.25px"><rect x="617.78" y="103.97" width="64.214" height="64.214"/><rect x="681.34" y="103.97" width="64.214" height="64.214"/><rect x="744.9" y="103.97" width="64.214" height="64.214"/><rect x="808.47" y="103.97" width="64.214" height="64.214"/><rect x="872.03" y="103.97" width="64.214" height="64.214"/><rect x="935.59" y="103.97" width="64.214" height="64.214"/><rect x="45.744" y="165.86" width="64.214" height="64.214"/><rect x="109.3" y="165.86" width="64.214" height="64.214"/></g><rect x="172.87" y="165.86" width="64.214" height="64.214" stroke="#000" stroke-width="6.25px"/><g fill="#d27d65" stroke="#000" stroke-width="6.25px"><rect x="236.43" y="165.86" width="64.214" height="64.214"/><rect x="299.99" y="165.86" width="64.214" height="64.214"/><rect x="363.55" y="165.86" width="64.214" height="64.214"/><rect x="427.11" y="165.86" width="64.214" height="64.214"/><rect x="490.67" y="165.86" width="64.214" height="64.214"/><rect x="554.23" y="165.86" width="64.214" height="64.214"/><rect x="617.8" y="165.86" width="64.214" height="64.214"/><rect x="681.36" y="165.86" width="64.214" height="64.214"/><rect x="744.92" y="165.86" width="64.214" height="64.214"/></g><rect x="808.48" y="165.86" width="64.214" height="64.214" stroke="#000" stroke-width="6.25px"/><g fill="#fff" stroke="#000" stroke-width="6.25px"><rect x="872.04" y="165.86" width="64.214" height="64.214"/><rect x="935.6" y="165.86" width="64.214" height="64.214"/><rect x="45.759" y="227.74" width="64.214" height="64.214"/><rect x="109.32" y="227.74" width="64.214" height="64.214"/></g><rect x="172.88" y="227.74" width="64.214" height="64.214" fill="#d27d65" stroke="#000" stroke-width="6.25px"/><g fill="#fff" stroke="#000" stroke-width="6.25px"><rect x="236.44" y="227.74" width="64.214" height="64.214"/><rect x="300" y="227.74" width="64.214" height="64.214"/><rect x="363.57" y="227.74" width="64.214" height="64.214"/></g><g stroke="#000" stroke-width="6.25px"><rect x="427.13" y="227.74" width="64.214" height="64.214"/><rect x="490.69" y="227.74" width="64.214" height="64.214" fill="#fff"/><rect x="554.25" y="227.74" width="64.214" height="64.214"/></g><g fill="#fff" stroke="#000" stroke-width="6.25px"><rect x="617.81" y="227.74" width="64.214" height="64.214"/><rect x="681.37" y="227.74" width="64.214" height="64.214"/><rect x="744.94" y="227.74" width="64.214" height="64.214"/></g><rect x="808.5" y="227.74" width="64.214" height="64.214" fill="#d27d65" stroke="#000" stroke-width="6.25px"/><g fill="#fff" stroke="#000" stroke-width="6.25px"><rect x="872.06" y="227.74" width="64.214" height="64.214"/><rect x="935.62" y="227.74" width="64.214" height="64.214"/><rect x="45.774" y="289.63" width="64.214" height="64.214"/><rect x="109.34" y="289.63" width="64.214" height="64.214"/></g><g stroke="#000" stroke-width="6.25px"><rect x="172.9" y="289.63" width="64.214" height="64.214" fill="#d27d65"/><rect x="236.46" y="289.63" width="64.214" height="64.214" fill="#fff"/><rect x="300.02" y="289.63" width="64.214" height="64.214" fill="#fff"/><rect x="363.58" y="289.63" width="64.214" height="64.214"/><rect x="427.14" y="289.63" width="64.214" height="64.214"/><rect x="490.7" y="289.63" width="64.214" height="64.214" fill="#fff"/><rect x="554.27" y="289.63" width="64.214" height="64.214"/><rect x="617.83" y="289.63" width="64.214" height="64.214"/><rect x="681.39" y="289.63" width="64.214" height="64.214" fill="#fff"/><rect x="744.95" y="289.63" width="64.214" height="64.214" fill="#fff"/><rect x="808.51" y="289.63" width="64.214" height="64.214" fill="#d27d65"/><rect x="872.07" y="289.63" width="64.214" height="64.214" fill="#fff"/><rect x="935.63" y="289.63" width="64.214" height="64.214" fill="#fff"/><rect x="45.789" y="351.52" width="64.214" height="64.214"/><rect x="109.35" y="351.52" width="64.214" height="64.214" fill="#fff"/><rect x="172.91" y="351.52" width="64.214" height="64.214" fill="#d27d65"/><rect x="236.47" y="351.52" width="64.214" height="64.214" fill="#fff"/><rect x="300.04" y="351.52" width="64.214" height="64.214"/><rect x="363.6" y="351.52" width="64.214" height="64.214"/></g><g fill="#fff" stroke="#000" stroke-width="6.25px"><rect x="427.16" y="351.52" width="64.214" height="64.214"/><rect x="490.72" y="351.52" width="64.214" height="64.214"/><rect x="554.28" y="351.52" width="64.214" height="64.214"/></g><g stroke="#000" stroke-width="6.25px"><rect x="617.84" y="351.52" width="64.214" height="64.214"/><rect x="681.4" y="351.52" width="64.214" height="64.214"/><rect x="744.97" y="351.52" width="64.214" height="64.214" fill="#fff"/><rect x="808.53" y="351.52" width="64.214" height="64.214" fill="#d27d65"/><rect x="872.09" y="351.52" width="64.214" height="64.214" fill="#fff"/><rect x="935.65" y="351.52" width="64.214" height="64.214"/><rect x="45.804" y="413.41" width="64.214" height="64.214"/><rect x="109.37" y="413.41" width="64.214" height="64.214"/><rect x="172.93" y="413.41" width="64.214" height="64.214" fill="#d27d65"/><rect x="236.49" y="413.41" width="64.214" height="64.214"/><rect x="300.05" y="413.41" width="64.214" height="64.214"/></g><g fill="#fff" stroke="#000" stroke-width="6.25px"><rect x="363.61" y="413.41" width="64.214" height="64.214"/><rect x="427.17" y="413.41" width="64.214" height="64.214"/><rect x="490.73" y="413.41" width="64.214" height="64.214"/><rect x="554.3" y="413.41" width="64.214" height="64.214"/><rect x="617.86" y="413.41" width="64.214" height="64.214"/></g><g stroke="#000" stroke-width="6.25px"><rect x="681.42" y="413.41" width="64.214" height="64.214"/><rect x="744.98" y="413.41" width="64.214" height="64.214"/><rect x="808.54" y="413.41" width="64.214" height="64.214" fill="#d27d65"/><rect x="872.1" y="413.41" width="64.214" height="64.214"/><rect x="935.66" y="413.41" width="64.214" height="64.214"/><rect x="45.819" y="475.29" width="64.214" height="64.214" fill="#fff"/><rect x="109.38" y="475.29" width="64.214" height="64.214" fill="#fff"/><rect x="172.94" y="475.29" width="64.214" height="64.214" fill="#d27d65"/></g><g fill="#fff" stroke="#000" stroke-width="6.25px"><rect x="236.5" y="475.29" width="64.214" height="64.214"/><rect x="300.06" y="475.29" width="64.214" height="64.214"/><rect x="363.63" y="475.29" width="64.214" height="64.214"/><rect x="427.19" y="475.29" width="64.214" height="64.214"/></g><rect x="490.75" y="475.29" width="64.214" height="64.214" stroke="#000" stroke-width="6.25px"/><g fill="#fff" stroke="#000" stroke-width="6.25px"><rect x="554.31" y="475.29" width="64.214" height="64.214"/><rect x="617.87" y="475.29" width="64.214" height="64.214"/><rect x="681.43" y="475.29" width="64.214" height="64.214"/><rect x="745" y="475.29" width="64.214" height="64.214"/></g><g stroke="#000" stroke-width="6.25px"><rect x="808.56" y="475.29" width="64.214" height="64.214" fill="#d27d65"/><rect x="872.12" y="475.29" width="64.214" height="64.214" fill="#fff"/><rect x="935.68" y="475.29" width="64.214" height="64.214" fill="#fff"/><rect x="45.835" y="537.18" width="64.214" height="64.214"/><rect x="109.4" y="537.18" width="64.214" height="64.214"/><rect x="172.96" y="537.18" width="64.214" height="64.214" fill="#d27d65"/><rect x="236.52" y="537.18" width="64.214" height="64.214"/><rect x="300.08" y="537.18" width="64.214" height="64.214"/></g><g fill="#fff" stroke="#000" stroke-width="6.25px"><rect x="363.64" y="537.18" width="64.214" height="64.214"/><rect x="427.2" y="537.18" width="64.214" height="64.214"/><rect x="490.77" y="537.18" width="64.214" height="64.214"/><rect x="554.33" y="537.18" width="64.214" height="64.214"/><rect x="617.89" y="537.18" width="64.214" height="64.214"/></g><g stroke="#000" stroke-width="6.25px"><rect x="681.45" y="537.18" width="64.214" height="64.214"/><rect x="745.01" y="537.18" width="64.214" height="64.214"/><rect x="808.57" y="537.18" width="64.214" height="64.214" fill="#d27d65"/><rect x="872.13" y="537.18" width="64.214" height="64.214"/><rect x="935.7" y="537.18" width="64.214" height="64.214"/><rect x="45.85" y="599.07" width="64.214" height="64.214"/><rect x="109.41" y="599.07" width="64.214" height="64.214" fill="#fff"/><rect x="172.97" y="599.07" width="64.214" height="64.214" fill="#d27d65"/><rect x="236.53" y="599.07" width="64.214" height="64.214" fill="#fff"/><rect x="300.1" y="599.07" width="64.214" height="64.214"/><rect x="363.66" y="599.07" width="64.214" height="64.214"/></g><g fill="#fff" stroke="#000" stroke-width="6.25px"><rect x="427.22" y="599.07" width="64.214" height="64.214"/><rect x="490.78" y="599.07" width="64.214" height="64.214"/><rect x="554.34" y="599.07" width="64.214" height="64.214"/></g><g stroke="#000" stroke-width="6.25px"><rect x="617.9" y="599.07" width="64.214" height="64.214"/><rect x="681.46" y="599.07" width="64.214" height="64.214"/><rect x="745.03" y="599.07" width="64.214" height="64.214" fill="#fff"/><rect x="808.59" y="599.07" width="64.214" height="64.214" fill="#d27d65"/><rect x="872.15" y="599.07" width="64.214" height="64.214" fill="#fff"/><rect x="935.71" y="599.07" width="64.214" height="64.214"/><rect x="45.865" y="660.96" width="64.214" height="64.214" fill="#fff"/><rect x="109.43" y="660.96" width="64.214" height="64.214" fill="#fff"/><rect x="172.99" y="660.96" width="64.214" height="64.214" fill="#d27d65"/><rect x="236.55" y="660.96" width="64.214" height="64.214" fill="#fff"/><rect x="300.11" y="660.96" width="64.214" height="64.214" fill="#fff"/><rect x="363.67" y="660.96" width="64.214" height="64.214"/><rect x="427.23" y="660.96" width="64.214" height="64.214"/><rect x="490.8" y="660.96" width="64.214" height="64.214" fill="#fff"/><rect x="554.36" y="660.96" width="64.214" height="64.214"/><rect x="617.92" y="660.96" width="64.214" height="64.214"/><rect x="681.48" y="660.96" width="64.214" height="64.214" fill="#fff"/><rect x="745.04" y="660.96" width="64.214" height="64.214" fill="#fff"/><rect x="808.6" y="660.96" width="64.214" height="64.214" fill="#d27d65"/></g><g fill="#fff" stroke="#000" stroke-width="6.25px"><rect x="872.16" y="660.96" width="64.214" height="64.214"/><rect x="935.72" y="660.96" width="64.214" height="64.214"/><rect x="45.88" y="722.85" width="64.214" height="64.214"/><rect x="109.44" y="722.85" width="64.214" height="64.214"/></g><rect x="173" y="722.85" width="64.214" height="64.214" fill="#d27d65" stroke="#000" stroke-width="6.25px"/><g fill="#fff" stroke="#000" stroke-width="6.25px"><rect x="236.56" y="722.85" width="64.214" height="64.214"/><rect x="300.13" y="722.85" width="64.214" height="64.214"/><rect x="363.69" y="722.85" width="64.214" height="64.214"/></g><g stroke="#000" stroke-width="6.25px"><rect x="427.25" y="722.85" width="64.214" height="64.214"/><rect x="490.81" y="722.85" width="64.214" height="64.214" fill="#fff"/><rect x="554.37" y="722.85" width="64.214" height="64.214"/></g><g fill="#fff" stroke="#000" stroke-width="6.25px"><rect x="617.93" y="722.85" width="64.214" height="64.214"/><rect x="681.5" y="722.85" width="64.214" height="64.214"/><rect x="745.06" y="722.85" width="64.214" height="64.214"/></g><rect x="808.62" y="722.85" width="64.214" height="64.214" fill="#d27d65" stroke="#000" stroke-width="6.25px"/><g fill="#fff" stroke="#000" stroke-width="6.25px"><rect x="872.18" y="722.85" width="64.214" height="64.214"/><rect x="935.74" y="722.85" width="64.214" height="64.214"/><rect x="45.895" y="784.73" width="64.214" height="64.214"/><rect x="109.46" y="784.73" width="64.214" height="64.214"/></g><rect x="173.02" y="784.73" width="64.214" height="64.214" stroke="#000" stroke-width="6.25px"/><g fill="#d27d65" stroke="#000" stroke-width="6.25px"><rect x="236.58" y="784.73" width="64.214" height="64.214"/><rect x="300.14" y="784.73" width="64.214" height="64.214"/><rect x="363.7" y="784.73" width="64.214" height="64.214"/><rect x="427.26" y="784.73" width="64.214" height="64.214"/><rect x="490.83" y="784.73" width="64.214" height="64.214"/><rect x="554.39" y="784.73" width="64.214" height="64.214"/><rect x="617.95" y="784.73" width="64.214" height="64.214"/><rect x="681.51" y="784.73" width="64.214" height="64.214"/><rect x="745.07" y="784.73" width="64.214" height="64.214"/></g><rect x="808.63" y="784.73" width="64.214" height="64.214" stroke="#000" stroke-width="6.25px"/><g fill="#fff" stroke="#000" stroke-width="6.25px"><rect x="872.19" y="784.73" width="64.214" height="64.214"/><rect x="935.76" y="784.73" width="64.214" height="64.214"/><rect x="45.91" y="846.62" width="64.214" height="64.214"/><rect x="109.47" y="846.62" width="64.214" height="64.214"/><rect x="173.03" y="846.62" width="64.214" height="64.214"/><rect x="236.6" y="846.62" width="64.214" height="64.214"/><rect x="300.16" y="846.62" width="64.214" height="64.214"/><rect x="363.72" y="846.62" width="64.214" height="64.214"/></g><g stroke="#000" stroke-width="6.25px"><rect x="427.28" y="846.62" width="64.214" height="64.214"/><rect x="490.84" y="846.62" width="64.214" height="64.214" fill="#fff"/><rect x="554.4" y="846.62" width="64.214" height="64.214"/></g><g fill="#fff" stroke="#000" stroke-width="6.25px"><rect x="617.96" y="846.62" width="64.214" height="64.214"/><rect x="681.53" y="846.62" width="64.214" height="64.214"/><rect x="745.09" y="846.62" width="64.214" height="64.214"/><rect x="808.65" y="846.62" width="64.214" height="64.214"/><rect x="872.21" y="846.62" width="64.214" height="64.214"/><rect x="935.77" y="846.62" width="64.214" height="64.214"/><rect x="45.926" y="908.51" width="64.214" height="64.214"/><rect x="109.49" y="908.51" width="64.214" height="64.214"/><rect x="173.05" y="908.51" width="64.214" height="64.214"/><rect x="236.61" y="908.51" width="64.214" height="64.214"/><rect x="300.17" y="908.51" width="64.214" height="64.214"/></g><g stroke="#000" stroke-width="6.25px"><rect x="363.73" y="908.51" width="64.214" height="64.214"/><rect x="427.29" y="908.51" width="64.214" height="64.214"/><rect x="490.86" y="908.51" width="64.214" height="64.214" fill="#fff"/><rect x="554.42" y="908.51" width="64.214" height="64.214"/><rect x="617.98" y="908.51" width="64.214" height="64.214"/></g><g fill="#fff" stroke="#000" stroke-width="6.25px"><rect x="681.54" y="908.51" width="64.214" height="64.214"/><rect x="745.1" y="908.51" width="64.214" height="64.214"/><rect x="808.66" y="908.51" width="64.214" height="64.214"/><rect x="872.22" y="908.51" width="64.214" height="64.214"/><rect x="935.79" y="908.51" width="64.214" height="64.214"/>
        </g><g fill-rule="nonzero"><rect x="13.261" y="58.234" width="4.3" height="23.466"/><path d="m14.339 120.38c2.229 0 4.001 0.636 5.317 1.907 1.315 1.271 1.973 2.964 1.973 5.081 0 1.612-0.49 3.359-1.469 5.24-0.98 1.882-2.702 4.373-5.166 7.475h8.046v4.065h-15.201v-0.487c1.769-2.184 3.289-4.146 4.56-5.887 1.271-1.742 2.254-3.186 2.948-4.334s1.187-2.125 1.478-2.931 0.437-1.641 0.437-2.503c0-1.075-0.344-1.979-1.033-2.713-0.689-0.733-1.526-1.1-2.511-1.1-1.769 0-3.606 1.008-5.51 3.024v-4.603c2.005-1.489 4.049-2.234 6.131-2.234z"/><path d="m14.444 182.83c2.172 0 3.925 0.541 5.258 1.621 1.332 1.081 1.998 2.512 1.998 4.292 0 2.408-1.091 4.199-3.275 5.375 1.254 0.448 2.2 1.179 2.839 2.192 0.638 1.014 0.957 2.22 0.957 3.62 0 2.083-0.728 3.765-2.184 5.047-1.455 1.283-3.37 1.924-5.744 1.924-1.87 0-3.668-0.443-5.392-1.327v-4.132c0.952 0.638 1.825 1.1 2.62 1.385 0.795 0.286 1.607 0.429 2.436 0.429 1.097 0 1.996-0.311 2.696-0.932 0.7-0.622 1.05-1.431 1.05-2.428 0-1.097-0.387-1.973-1.159-2.628-0.773-0.655-1.831-0.983-3.175-0.983h-0.269v-3.645h0.202c1.254 0 2.234-0.277 2.939-0.831 0.706-0.555 1.059-1.302 1.059-2.243 0-0.929-0.342-1.677-1.025-2.242-0.683-0.566-1.557-0.849-2.62-0.849-1.322 0-2.71 0.353-4.166 1.059v-3.679c1.467-0.683 3.119-1.025 4.955-1.025z"/><path d="m21.617 245.28v13.69h1.998v3.443h-1.998v6.635h-4.301v-6.635h-9.591v-2.755l11.422-14.378zm-4.401 7.122-5.191 6.568h5.291v-6.568z"/><path d="m21.434 308.04v3.964h-7.441v5.056l0.437-0.034h0.352c1.434 0 2.733 0.311 3.897 0.932 1.165 0.622 2.075 1.492 2.73 2.612s0.982 2.38 0.982 3.78c0 2.206-0.741 4-2.225 5.383s-3.435 2.074-5.854 2.074c-2.15 0-4.054-0.442-5.711-1.326v-3.931c1.747 1.075 3.421 1.613 5.022 1.613 1.255 0 2.302-0.35 3.141-1.05 0.84-0.7 1.26-1.588 1.26-2.663 0-1.209-0.481-2.152-1.444-2.83-0.963-0.677-2.274-1.016-3.931-1.016-0.784 0-1.652 0.101-2.603 0.302v-12.866z"/><path d="m21.244 370.18c-1.255 1.041-2.64 2.581-4.158 4.619-1.517 2.038-2.6 3.824-3.25 5.358 0.873-0.369 1.769-0.554 2.688-0.554 1.209 0 2.309 0.305 3.3 0.915 0.991 0.611 1.761 1.456 2.31 2.537 0.549 1.08 0.823 2.281 0.823 3.603 0 1.399-0.325 2.682-0.974 3.846-0.65 1.165-1.546 2.08-2.688 2.746-1.142 0.667-2.385 1-3.729 1-2.284 0-4.135-0.77-5.551-2.31-1.417-1.539-2.125-3.541-2.125-6.005 0-2.452 0.736-5.078 2.209-7.878 1.472-2.799 3.479-5.425 6.021-7.877zm-8.987 16.478c0 1.086 0.305 1.982 0.916 2.687 0.61 0.706 1.397 1.058 2.36 1.058 0.94 0 1.702-0.333 2.284-0.999s0.873-1.548 0.873-2.646c0-1.03-0.299-1.884-0.898-2.561-0.599-0.678-1.375-1.016-2.327-1.016-0.918 0-1.682 0.333-2.292 0.999-0.611 0.666-0.916 1.492-0.916 2.478z"/><path d="m22.817 432.94v0.135l-9.457 23.633-3.964-1.478 7.407-18.258h-9.356v-4.032z"/><path d="m15.424 495.08c2.094 0 3.805 0.611 5.132 1.831 1.327 1.221 1.99 2.8 1.99 4.737 0 2.116-0.963 3.779-2.889 4.989 1.21 0.638 2.083 1.428 2.62 2.368 0.538 0.941 0.807 2.044 0.807 3.309 0 1.299-0.331 2.472-0.991 3.519-0.661 1.047-1.579 1.862-2.755 2.444s-2.48 0.874-3.914 0.874c-2.239 0-4.084-0.639-5.534-1.915-1.451-1.277-2.176-2.917-2.176-4.922 0-1.332 0.286-2.461 0.857-3.384 0.571-0.924 1.433-1.689 2.587-2.293-1.926-1.221-2.889-2.895-2.889-5.023 0-1.926 0.669-3.496 2.007-4.711s3.054-1.823 5.148-1.823zm-2.855 6.635c0 1.008 0.269 1.834 0.806 2.478 0.538 0.644 1.221 0.966 2.049 0.966 0.807 0 1.478-0.334 2.016-1 0.537-0.666 0.806-1.481 0.806-2.444 0-1.019-0.255-1.825-0.764-2.419-0.51-0.593-1.195-0.89-2.058-0.89-0.873 0-1.567 0.291-2.083 0.874-0.515 0.582-0.772 1.394-0.772 2.435zm-0.487 10.398c0 1.153 0.302 2.06 0.907 2.721 0.604 0.66 1.416 0.991 2.435 0.991s1.823-0.333 2.411-1c0.588-0.666 0.881-1.548 0.881-2.645 0-1.098-0.302-1.999-0.907-2.705-0.604-0.705-1.388-1.058-2.351-1.058-1.008 0-1.823 0.333-2.444 1-0.622 0.666-0.932 1.565-0.932 2.696z"/><path d="m15.265 557.54c1.478 0 2.805 0.347 3.981 1.041s2.083 1.671 2.721 2.931 0.957 2.707 0.957 4.342c0 2.464-0.747 5.123-2.242 7.979-1.495 2.855-3.485 5.448-5.971 7.777h-5.123c1.332-1.153 2.743-2.724 4.232-4.712 1.49-1.987 2.542-3.737 3.158-5.249-0.84 0.359-1.735 0.538-2.687 0.538-1.859 0-3.396-0.664-4.611-1.991s-1.823-3.026-1.823-5.098c0-1.366 0.32-2.628 0.958-3.787s1.528-2.078 2.671-2.755c1.142-0.677 2.402-1.016 3.779-1.016zm-3.141 7.491c0 1.042 0.297 1.898 0.89 2.57 0.594 0.672 1.378 1.008 2.352 1.008 0.918 0 1.679-0.339 2.284-1.016 0.605-0.678 0.907-1.487 0.907-2.427 0-1.12-0.305-2.03-0.915-2.73-0.611-0.7-1.403-1.05-2.377-1.05-0.941 0-1.699 0.336-2.276 1.008s-0.865 1.551-0.865 2.637z"/><rect y="620.29" width="4.3" height="23.466"/><path d="m20.358 619.98c2.374 0 4.258 1.07 5.652 3.208 1.394 2.139 2.092 5.062 2.092 8.768 0 3.741-0.689 6.691-2.067 8.853-1.377 2.161-3.258 3.241-5.643 3.241-2.419 0-4.331-1.072-5.737-3.216-1.405-2.145-2.108-5.081-2.108-8.81 0-3.718 0.7-6.655 2.1-8.81 1.4-2.156 3.303-3.234 5.711-3.234zm-3.443 12.178c0 5.364 1.147 8.046 3.443 8.046 2.24 0 3.359-2.822 3.359-8.466 0-5.274-1.131-7.911-3.393-7.911-2.273 0-3.409 2.777-3.409 8.331z"/><rect x="2.348" y="682.74" width="4.3" height="23.466"/><rect x="20.505" y="682.74" width="4.3" height="23.466"/><rect x=".187" y="745.19" width="4.3" height="23.466"/><path d="m19.335 744.89c2.229 0 4.001 0.635 5.317 1.906 1.315 1.271 1.973 2.965 1.973 5.081 0 1.613-0.49 3.36-1.469 5.241-0.98 1.881-2.702 4.373-5.166 7.475h8.046v4.065h-15.201v-0.487c1.769-2.184 3.289-4.146 4.56-5.888 1.271-1.741 2.254-3.186 2.948-4.333 0.695-1.148 1.187-2.125 1.478-2.931 0.292-0.807 0.437-1.641 0.437-2.503 0-1.075-0.344-1.979-1.033-2.713-0.689-0.733-1.526-1.1-2.511-1.1-1.769 0-3.606 1.008-5.51 3.023v-4.602c2.005-1.489 4.049-2.234 6.131-2.234z"/><rect x="1.07" y="807.64" width="4.3" height="23.466"/><path d="m19.95 807.34c2.173 0 3.925 0.541 5.258 1.621 1.332 1.081 1.999 2.511 1.999 4.292 0 2.407-1.092 4.199-3.276 5.375 1.255 0.448 2.201 1.179 2.839 2.192s0.957 2.22 0.957 3.62c0 2.083-0.727 3.765-2.183 5.047s-3.371 1.924-5.745 1.924c-1.87 0-3.667-0.443-5.392-1.327v-4.133c0.952 0.639 1.826 1.101 2.621 1.386 0.795 0.286 1.607 0.429 2.435 0.429 1.098 0 1.996-0.311 2.696-0.933 0.7-0.621 1.05-1.43 1.05-2.427 0-1.097-0.386-1.974-1.159-2.629s-1.831-0.982-3.175-0.982h-0.268v-3.645h0.201c1.254 0 2.234-0.277 2.94-0.832 0.705-0.554 1.058-1.301 1.058-2.242 0-0.93-0.342-1.677-1.025-2.243-0.683-0.565-1.556-0.848-2.62-0.848-1.321 0-2.71 0.353-4.166 1.058v-3.678c1.467-0.683 3.119-1.025 4.955-1.025z"/><rect x=".286" y="870.09" width="4.3" height="23.466"/><path d="m26.003 869.79v13.689h1.998v3.444h-1.998v6.635h-4.3v-6.635h-9.592v-2.755l11.422-14.378zm-4.401 7.122-5.19 6.567h5.291v-6.567z"/><rect x=".797" y="932.54" width="4.3" height="23.466"/><path d="m26.866 932.54v3.964h-7.441v5.056l0.436-0.033h0.353c1.433 0 2.732 0.311 3.897 0.932 1.165 0.622 2.074 1.492 2.73 2.612 0.655 1.12 0.982 2.38 0.982 3.779 0 2.206-0.742 4.001-2.225 5.384-1.484 1.383-3.435 2.074-5.854 2.074-2.15 0-4.054-0.442-5.711-1.327v-3.93c1.747 1.075 3.421 1.612 5.022 1.612 1.254 0 2.301-0.35 3.141-1.05 0.84-0.699 1.26-1.587 1.26-2.662 0-1.209-0.482-2.153-1.445-2.83-0.963-0.678-2.273-1.016-3.93-1.016-0.784 0-1.652 0.1-2.604 0.302v-12.867z"/>
        <rect x="77.653" width="4.893" height="21.191"/><rect x="137.77" width="4.893" height="21.191"/><rect x="145.99" width="4.893" height="21.191"/><rect x="194.3" width="4.893" height="21.191"/><rect x="202.52" width="4.893" height="21.191"/><rect x="210.75" width="4.893" height="21.191"/><rect x="259.57" width="4.893" height="21.191"/><path d="m282.5 0h-4.892l-3.272 17.338-3.547-17.338h-5.015l5.382 21.191h6.177z"/><path d="m340.83 0h-4.892l-3.272 17.338-3.547-17.338h-5.015l5.382 21.191h6.177z"/><path d="m401.49 0h-4.892l-3.272 17.338-3.547-17.338h-5.015l5.382 21.191h6.177z"/><rect x="402.84" width="4.893" height="21.191"/><path d="m461.01 0h-4.893l-3.271 17.338-3.547-17.338h-5.015l5.381 21.191h6.177z"/><rect x="462.36" width="4.893" height="21.191"/><rect x="470.58" width="4.893" height="21.191"/><path d="m519.12 0h-4.892l-3.272 17.338-3.547-17.338h-5.015l5.382 21.191h6.176z"/><rect x="520.47" width="4.893" height="21.191"/><rect x="528.69" width="4.893" height="21.191"/><rect x="536.92" width="4.893" height="21.191"/><rect x="574.86" width="4.893" height="21.191"/><path d="m592.32 9.754 5.015-9.754h-5.076l-2.814 6.88-2.629-6.88h-5.199l4.893 9.938-5.29 11.253h5.106l3.058-8.165 3.18 8.165h5.229z"/><path d="m653.8 9.754 5.015-9.754h-5.076l-2.813 6.88-2.63-6.88h-5.198l4.892 9.938-5.29 11.253h5.107l3.058-8.165 3.18 8.165h5.229z"/><path d="m710.54 9.754 5.015-9.754h-5.076l-2.814 6.88-2.629-6.88h-5.199l4.893 9.938-5.29 11.253h5.106l3.058-8.165 3.18 8.165h5.229z"/><rect x="717.51" width="4.893" height="21.191"/><path d="m766.48 9.754 5.015-9.754h-5.076l-2.813 6.88-2.63-6.88h-5.198l4.892 9.938-5.29 11.253h5.107l3.058-8.165 3.18 8.165h5.229z"/><rect x="773.45" width="4.893" height="21.191"/><rect x="781.68" width="4.893" height="21.191"/><path d="m827.71 9.754 5.015-9.754h-5.076l-2.813 6.88-2.63-6.88h-5.198l4.892 9.938-5.29 11.253h5.107l3.058-8.165 3.18 8.165h5.229z"/><rect x="834.68" width="4.893" height="21.191"/><rect x="842.91" width="4.893" height="21.191"/><rect x="851.13" width="4.893" height="21.191"/><path d="m892.26 9.754 5.015-9.754h-5.076l-2.813 6.88-2.63-6.88h-5.198l4.892 9.938-5.29 11.253h5.107l3.058-8.165 3.18 8.165h5.229z"/><rect x="899.23" width="4.893" height="21.191"/><path d="m922.17 0h-4.893l-3.272 17.338-3.547-17.338h-5.015l5.382 21.191h6.177z"/><path d="m958.52 9.754 5.015-9.754h-5.076l-2.813 6.88-2.63-6.88h-5.198l4.893 9.938-5.29 11.253h5.106l3.058-8.165 3.18 8.165h5.229z"/><path d="m980.2 0h-4.892l-3.272 17.338-3.547-17.338h-5.015l5.382 21.191h6.177z"/>
    </g>
</svg>
